<?xml version="1.0" encoding="utf-8"?>
<!-- Generator: Adobe Illustrator 28.4.1, SVG Export Plug-In . SVG Version: 6.00 Build 0)  -->
<svg version="1.1" id="Layer_1" xmlns="http://www.w3.org/2000/svg" xmlns:xlink="http://www.w3.org/1999/xlink" x="0px" y="0px"
	 viewBox="0 0 542 621" style="enable-background:new 0 0 542 621;" xml:space="preserve">
<style type="text/css">
	.st0{fill:#FFB804;}
	.st1{fill:#FFFFFF;}
	.st2{fill:#2C2424;}
	.st3{fill:#FF636C;stroke:#000000;stroke-width:1.8984;stroke-linecap:round;stroke-linejoin:round;stroke-miterlimit:10;}
	.st4{fill:#FFFFFF;stroke:#000000;stroke-width:1.8984;stroke-linecap:round;stroke-linejoin:round;stroke-miterlimit:10;}
</style>
<g>
	<g>
		<path class="st0" d="M36.9,353.2c-1.8-2.2-1.8-12.6,18.9-9.5c20.7,3.1,64.9,17.2,92.8,24.1c28,6.9,37.8,2.2,41.7-2.1
			c-4.7-7.6-22.2-19.9-48.7-32.4h26v-20.9c36.2,18.4,70.5,45.4,51.7,76.8c-15.1,24.5-71.4,0.1-103.7-9.5
			c-32.3-9.6-85.8-1.1-81.8-16.7C30.1,359.5,32.7,353.4,36.9,353.2z"/>
		<path d="M36.1,352.8c-0.2,0.1-0.2,0.4-0.1,0.6c-1-1.7-0.9-3.9-0.1-5.6c4.2-8.3,17.7-5.9,25.2-4.6c30.4,6.1,60,16.1,90,23.7
			c6.6,1.6,13.4,2.8,20.1,3.1c6.4,0.2,13.9-0.2,18.5-4.9c0,0-0.1,1.1-0.1,1.1c-2.6-3.9-6.5-7.1-10.3-10c-11.7-8.8-24.8-15.7-38-22.1
			c-0.5-0.2-0.7-0.8-0.5-1.3c0.2-0.3,0.5-0.5,0.9-0.5h26l-0.9,0.9v-20.9c0-0.7,0.8-1.2,1.4-0.8c20.7,10.8,47.6,26.3,56,49.4
			c3.3,9.3,1.7,19.8-3.3,28.2c-1.6,2.9-4,5.4-6.7,7.2c-5.5,3.6-12.3,4.6-18.7,4.7c-28.4-0.5-55.5-13.1-82.4-20.6
			c-15.2-3.9-30.9-4.3-46.5-5.3c-8.3-0.7-27.2-0.5-32.5-7c-1.2-1.5-1.4-3.6-0.9-5.3c0,0,0.3,0.9,0.3,0.9c-3.9-3.4-2-10.7,3.2-11.5
			C36.3,352.3,36,352.5,36.1,352.8L36.1,352.8z M37.8,353.6c-0.2,0.3-0.8,0.6-1.1,0.6c0,0-0.3,0.1-0.3,0.1c-0.6,0.2-1.2,0.5-1.7,0.9
			c-2.1,1.8-2.3,5.4-0.2,7.2c0.2,0.2,0.3,0.6,0.3,0.9c-3,9.6,25.7,9.1,31.7,9.8c18.8,1,38.1,1.6,56.1,8c23.5,7.3,48,17.4,72.8,17.9
			c14.4-0.1,23.2-5,27.3-19.3c3.7-12.2-1.8-24.7-9.9-33.9c-12.4-14.1-28.9-23.9-45.5-32.5c0,0,1.4-0.8,1.4-0.8s0,20.9,0,20.9
			c0,0.5-0.4,0.9-0.9,0.9h-26c0,0,0.4-1.8,0.4-1.8c15.5,7.5,31.1,15.5,44.1,27.1c1.8,1.7,3.6,3.5,5,5.7c0,0,0,0.9,0,0.9
			c-11.7,13.9-45.8,2.6-61-1.2c-19.9-5.4-39.7-11.5-59.7-16.5c-7.9-1.6-27.9-8.1-32.7,0.3c-0.6,1.2-0.7,2.7,0,3.9
			C37.8,352.9,37.9,353.3,37.8,353.6L37.8,353.6z"/>
	</g>
	<g>
		<path class="st0" d="M380.7,141.1c0,0,83.7,130.1,81.5,230.9c-2.3,100.7-65.3,110.5-111.3,144.5c-46,33.9,21.1,83.7,4.5,94.3
			c-16.6,10.6-49,8.3-48.3-1.9c0.8-10.2,9.1-10.2,15.1-8.7c-2.6-7.2-33.2-63.8,8.3-98.5c-32.4,8.7-104.9,14.3-168.2-3.8
			c-9.4,29.4-20.7,59.6-43,96.2c6.4,0,24.5,1.9,24.5,10.6c0,8.7-13.6,11.7-36.6,10.2c-23-1.5-30.2-4.5-24.9-10.2
			c5.3-5.7,40.4-39.2,63.7-114.3c-8.7-7.2-25.1-38.1,7.2-89.6c0-23.2-41.5-77.5-46.8-122.8c2.3,27.9,3.8,32.1-4.1,32.4
			c-7.9,0.4-28.9-116.9,57.7-172.8C244.3,83.3,323,97,359.2,109C395.4,121.1,408.3,136.2,380.7,141.1z"/>
		<path d="M381.6,141.5c0.3-0.2-0.1-1,0-0.8c0,0,0.1,0.1,0.1,0.1s0.2,0.3,0.2,0.3s0.3,0.5,0.3,0.5s0.7,1,0.7,1c0.6,1,3.3,5,4,6.1
			c19.1,30.2,35.3,62.2,49,95.3c19.4,48.1,34.4,100.5,26.8,152.7c-6.2,43.9-27.6,71.4-65.3,93.5c-15.3,9.3-31,17.4-45.4,27.9
			c-27.8,20.3-12.4,47.1,1.4,70.8c3,6,9.9,16.2,4.4,22.1c-9.4,7.2-24.7,8.9-36.2,7.7c-5.2-0.7-13.9-2.2-15.5-8.4
			c-0.5-10.5,7.6-13.6,16.5-11.1c0,0-1.1,1.2-1.1,1.2c-1.9-3.9-3.9-8-5.6-12.2c-12.6-29.9-13.8-65.7,14.2-87.3c0,0,0.9,1.6,0.9,1.6
			c-27.5,7.7-56.2,9.5-84.6,9.2c-28.4-0.6-57-4.3-84.1-13c0,0,1.2-0.6,1.2-0.6c-2.3,8.5-4.9,17-7.8,25.3
			c-8.6,25.1-20,49.4-35.3,71.1c0,0-0.8-1.4-0.8-1.4c5-0.2,10,0.2,14.9,1.5c3.7,1,8,2.6,10.2,6.2c2.6,4,0.4,9.5-3.4,11.8
			c-6.8,4.1-14.8,4.2-22.3,4.3c-5,0-9.9-0.3-14.8-0.7c-7.3-0.8-15.4-1-22.1-4.4c-3.5-2.1-3.2-5.5-0.4-8.1c3.5-3.5,6.7-7.1,9.8-10.8
			c6.2-7.4,11.9-15.3,17.2-23.5c5.2-8.2,10-16.7,14.5-25.3c8.9-17.3,16.1-35.4,22.3-53.9c0,0,0.3,1,0.3,1c-3.3-2.7-5.6-6.2-7.5-9.9
			c-5.5-11.1-6.3-24.1-4.3-36.2c1.6-10.1,5.1-19.8,9.7-28.9c2.7-5.5,5.8-10.7,9.2-15.8c0,0-0.1,0.5-0.1,0.5c0-2.6-0.6-5.3-1.3-7.9
			c-2.2-7.9-5.8-15.3-9.4-22.7c-14.1-29.6-33.6-58.5-36.1-92.1c0,0,1.9-0.2,1.9-0.2c0,0,0.9,7.8,0.9,7.8c0.4,4.9,1.3,11,1.4,15.8
			c0,2.9,0.2,6.3-2,8.6c-1.4,1.4-3.3,1.7-5.1,1.8c-1.9,0.3-3.2-1.7-3.9-3c-1.3-2.6-2-5.2-2.7-7.8c-3.7-15.5-4-31.6-2.8-47.5
			c3.1-42.2,21.5-84.3,55.7-110.4c42.5-31.4,95.6-48.9,148.6-47.2c26.4,0.9,53,6,77.4,16.6c7.3,3.4,15,7,20.3,13.6
			c7.1,9.6-4,15.1-12.4,15.6c0,0-0.5,0-0.5,0c-0.1,0-0.2,0-0.2,0C382,141.9,381.9,141.7,381.6,141.5L381.6,141.5z M379.8,140.7
			c0.3-0.3,0.8-0.6,1.4-0.8c0,0,1.1-0.4,1.1-0.4c10.4-3.5,16.6-6.9,4.3-15.6c-25-15.6-60-22.4-89.2-23.6
			c-52.1-2-104.4,15.1-146.3,45.8c-33.5,25.3-51.9,66.5-54.8,107.9c-1.1,15.5-0.7,31.3,2.8,46.5c0.8,2.9,1.5,6.1,3.3,8.4
			c0.1,0.1,0.2,0.2,0.1,0.1c0,0-0.1,0-0.2,0c0,0,0.2,0,0.2,0s0.4,0,0.4,0c1.2-0.1,2.2-0.4,2.7-0.9c0.5-0.5,0.9-1.5,1-2.7
			c0.4-3.7,0-7.7-0.2-11.5c-0.2-3.8-0.8-11.9-0.9-15.7c-0.1-0.5,0.3-1,0.8-1.1c0.5-0.1,1,0.3,1.1,0.8c6.4,32.4,22.5,61.7,36.5,91.4
			c2.3,5,4.6,10.1,6.5,15.3c1.8,5.4,4,11,3.7,16.8c-3,5.2-5.9,10.5-8.4,16c-4.1,9-7.4,18.5-9,28.3c-2.4,14.8-1.1,33.1,10,44.2
			c0.3,0.3,0.4,0.6,0.2,1c-5.5,18.8-12.7,37.1-21.4,54.7c-8.8,17.6-19.4,34.3-32.1,49.3c-3.2,3.7-6.6,7.4-10,10.9
			c-0.8,0.8-1.4,1.7-1.4,2.3c0,0.7,0.6,1.2,1.3,1.6c1.8,1.1,4.2,1.6,6.5,2.1c4.7,0.9,9.5,1.4,14.4,1.8c10.3,0.6,26.1,2,35.2-3.2
			c4-2.4,4.5-7.6,0.4-10.2c-5.9-3.8-13.6-4.6-20.5-4.9c-0.7,0.1-1.2-0.7-0.9-1.3c0,0,0.1-0.2,0.1-0.2c11.6-23.6,23.7-46.9,33.3-71.5
			c3.3-8.1,6.4-16.3,9.7-24.5c0.1-0.5,0.6-0.8,1.1-0.6c13.7,3.4,27.6,6,41.6,7.7c34.9,4.3,70.5,4.4,105.4-0.2
			c7-0.9,13.9-2.1,20.8-3.7c0.5-0.1,1.1,0.2,1.2,0.7c0.1,0.4-0.1,0.7-0.3,0.9c-25.6,22.3-23.7,55.5-12.8,84.9
			c1.5,4.2,3.2,8.2,4.8,12.5c0.2,0.5-0.1,1.1-0.6,1.2c-0.2,0.1-0.4,0.1-0.6,0c-3-0.7-6.3-0.9-8.9,0.1c-3.4,1.3-4.8,5.2-4.5,8.6
			c0.5,1.9,2.4,3,4.2,3.8c2.7,1.2,5.9,1.7,9,2.1c9.3,0.8,19-0.4,27.7-4c1.4-0.6,2.8-1.3,4.1-2.1c1-0.6,2-1.3,2.3-2.4
			c0.6-2.5-0.5-5.4-1.6-7.9c-1.3-2.8-2.8-5.6-4.4-8.4c-3.2-5.6-6.5-11.2-9.5-17.1c-12.9-24.9-11.7-45.9,13-61.9
			c13.3-9.3,27.9-17,41.6-25.4c36.4-21.6,56.9-47.7,62.8-90.4c10.8-74.1-26.8-155.2-59.7-220.1c-5.5-11-11.7-22.4-17.6-33.2
			c0,0-0.3-0.5-0.3-0.5s-0.1-0.3-0.1-0.3s-0.1-0.1-0.1-0.1C380.1,141.9,379.6,141,379.8,140.7L379.8,140.7z"/>
	</g>
	<g>
		<path class="st0" d="M409.3,266.6c0,0,152.8,43.6,117.4,102.7c-15.1,24.5-71.4,0.1-103.7-9.5c-32.4-9.6-85.8-1.1-81.8-16.7
			c-3.8-3.6-1.2-9.6,3.1-9.9c-1.8-2.3-1.8-12.6,18.9-9.5c20.7,3.1,64.9,17.2,92.8,24.1c28,7,37.8,2.2,41.7-2.1
			c-7.5-11.9-46.8-36-103.1-53.4"/>
		<path d="M409.4,266.1c34.4,9,78,26.7,105,49.9c16.1,14,26.6,33.4,14.4,53.8c-16.2,27.7-77.1,0.2-100.8-6.8
			c-14.5-5.2-30-6.3-45.5-7.3c-7.7-0.5-15.5-0.8-23.3-1.6c-5.6-0.8-16.9-1.5-19-7.8c-0.3-1.1-0.2-2.3,0-3.4c0,0,0.3,0.9,0.3,0.9
			c-4.1-3.5-1.8-11.2,3.7-11.5c0,0-0.7,1.5-0.7,1.5c-1.3-1.9-1.1-4-0.4-6c1.6-3.7,5.7-5.1,9.4-5.6c8.8-1,17.5,1.3,26,3.2
			c26.8,6.3,53.2,14.7,79.9,21.2c10.7,2.4,30,6.6,38.6-1.5c0,0-0.1,1.1-0.1,1.1c-2.7-3.9-6.5-7-10.3-9.8c-3.8-2.9-7.9-5.6-12.1-8.1
			c-23-13.8-47.9-24.2-73.2-33c-2-0.8-4.9-1.7-6.9-2.5c-0.2-0.1-0.3-0.3-0.2-0.5c0.1-0.2,0.3-0.3,0.5-0.3c2.4,0.6,4.7,1.3,7.1,2
			c30.3,9.6,60.4,21.7,86.2,40.7c3.9,3.1,7.8,6.3,10.6,10.6c0.2,0.4,0.2,0.8-0.1,1.1c-9.2,9.8-29,5.7-40.7,3.2
			c-26.8-6.7-53-15.3-79.8-21.8c-8.1-1.6-28.1-7.8-33,0.9c-0.6,1.1-0.6,3,0.1,4c0.5,0.6,0,1.5-0.7,1.5c-2.7,0.1-4.6,3.4-3.9,6
			c0.2,0.9,0.7,1.7,1.4,2.3c0.2,0.2,0.3,0.6,0.3,0.9c-0.5,1.7-0.1,3.3,1.2,4.4c6.8,5.5,29.8,5.2,39.3,6c15.5,0.8,31.3,2,46.1,7.1
			c23.8,7.1,53.9,19.9,78.6,17.3c13-1.7,18.7-8.3,21.6-20.7c4.3-23.1-18.4-40.6-35.6-52.1c-22.6-14.7-47.9-25.2-73.3-34.5
			c0,0-11-3.9-11-3.9c-0.3-0.1-0.4-0.4-0.3-0.6C408.9,266.2,409.2,266.1,409.4,266.1L409.4,266.1z"/>
	</g>
	<path d="M161.4,221.1c-13.9,4.5-27.3,19-29,35.1c-1.7,16.1,11.2,38.5,26.7,43.4c15.6,4.9,32.4,0.6,41.3-6.3
		c8.9-6.9,21.8-22.2,12.8-46.8C204.2,222,185.6,213.3,161.4,221.1z"/>
	<path class="st1" d="M201.7,286.8c-5.2,5-8.3,7.5-19,9.3c-10.8,1.8-23,1-32.4-8.9c-9.5-9.8-16.5-22.3-12.2-36.1
		c4.3-13.8,10.1-21,22.2-23.5c12.1-2.5,33.1,1.9,40,26.2C207,278.3,207.2,281.5,201.7,286.8z"/>
	<path d="M305.1,248c-16.3,6.6-33.2-1.5-45.2-16.1c-12-14.6-15.6-36.2-7.9-50.9c7.7-14.7,33.3-33.4,57.1-28.7
		c23.9,4.7,32.1,24.9,35.9,37.3c3.7,12.4-0.7,29.7-10,39.6C325.7,239.1,316.8,243.2,305.1,248z"/>
	<g>
		<path class="st2" d="M282.9,269.2c0,0-3.1,21.5-18.7,29.8c-15.7,8.3-32.2-0.1-32.2-0.1l5.9,13.4c0,0,26,11,39.3,6.8
			c13.3-4.3,18.3-16,19.8-29.3C291.7,276.6,282.9,269.2,282.9,269.2z"/>
		<path d="M283.2,270c0.1,0,0.3-0.1,0.4-0.2c0.1-0.1,0.1-0.1,0.1-0.2c0-0.1,0-0.1,0-0.1c0,0.2-0.1,0.7-0.1,0.8
			c-1.4,9.2-5.2,18.4-11.8,25.1c-10.3,10.4-28.3,12.3-40.4,4.1c0,0,1.3-1.2,1.3-1.2c0,0,5.9,13.4,5.9,13.4s-0.5-0.5-0.5-0.5
			c6,2.2,12.3,4,18.5,5.3c6,1.2,12.6,2.3,18.6,1c6-1.3,11.2-5.2,14.5-10.3c3.4-5.3,5.1-11.6,6.1-17.8c0,0,0.1,0.5,0.1,0.5
			c-2.9-7.1-7.2-13.7-12.7-19.1c-0.2-0.2-0.7-0.7-1-0.9c0,0-0.1-0.1,0.1,0.1C282.8,270.2,283.1,270.2,283.2,270L283.2,270z
			 M282.6,268.3c0.2-0.1,0.6,0,0.8,0.1c0.3,0.2,0.2,0.2,0.3,0.2c0,0,0.2,0.1,0.2,0.1c3,2.8,5.7,6,8,9.4c2.4,3.6,4.7,7.5,6.1,11.6
			c-0.7,6.5-2.2,13.2-5.8,19c-3.8,6.2-10.2,10.6-17.3,12c-6.2,0.9-12.6-0.1-18.6-1.5c-6.4-1.5-12.6-3.6-18.7-6.1
			c-0.2-0.1-0.4-0.3-0.5-0.5c0,0-5.9-13.4-5.9-13.4c-0.2-0.5,0-1,0.5-1.3c0.3-0.1,0.6-0.1,0.8,0c10.1,4.6,22.9,5.3,32.6-0.6
			c9.5-5.7,14.6-16.8,16.8-27.3C281.9,269.4,281.9,268.6,282.6,268.3L282.6,268.3z"/>
	</g>
	<path class="st3" d="M296.7,291.9c-1.8,12.3-6.9,23-19.5,27c-0.1,0-0.2,0.1-0.3,0.1C274.3,294.1,289.6,291.7,296.7,291.9z"/>
	<path class="st1" d="M260.2,225.3c-2.4-4.3-7.2-13.7-7.5-24.5c-0.3-10.8,4.1-21.8,11.4-28.3c7.3-6.6,14.9-12.2,26.1-11.1
		c11.2,1.1,29.7,6.5,35.4,27.5c5.7,21-1.7,33.5-13.3,40.9c-11.5,7.4-25.4,13-33.3,11.9C271.1,240.6,264,232.1,260.2,225.3z"/>
	<g>
		<path class="st0" d="M235,237.7c-28.3,12.9-51,44.6-34.6,80.4c16.3,35.8,35.2,37.4,45.3,33.1c10.2-4.3,10-15.8,3.2-28.8
			c-6.8-13-20.9-31.1-5.6-44.7c15.3-13.5,29.5-19.8,43.7,3.8c14.2,23.7,16.5,43.5,43.5,36.4c15.7-4.4,17.3-34.3,4.3-53.8
			C321.8,244.8,296.1,209.9,235,237.7z"/>
		<path d="M235.5,239c-24.6,11.2-43.9,37.6-37.9,65.4c2.2,10.6,7.4,20.7,13.2,29.8c5.3,7.7,12.4,15.2,21.8,17.2
			c8.8,1.9,19.9-2.4,19.4-12.8c-0.3-8.1-4.8-15.4-8.8-22.3c-7.6-12.7-14.7-28.7-0.9-40.2c4.3-3.7,8.9-7.3,14.1-9.8
			c23.1-10.8,33.6,18.1,42.2,33.9c7.4,14.5,14.8,20.9,31.5,16.1c7.7-2.5,10.3-11.2,10.8-18.7c0.7-11.2-2.7-22.8-9-32
			c-8.8-12.7-18.5-25.8-32.9-32.3C278.6,224.1,255.2,230.2,235.5,239L235.5,239z M234.4,236.5c20.4-9.3,44.5-15,66-6.1
			c13.4,5.3,24.3,15.6,32.3,27.3c5,7,9.1,14.7,11,23.2c2.7,12,2.7,28.6-8.3,36.7c-3.8,2.5-8.4,3.1-12.8,3.5
			c-13.8,1.2-20.9-8.2-26.5-19.3c-9.9-18.4-20.1-47.2-44.9-28c-3.8,3-8,6.2-10.2,10.6c-4.4,10,3.1,20,7.6,29.1
			c2.8,5.1,5.3,10.4,6.5,16.2c1.2,5.9,1.4,12.7-2.3,17.8c-1.9,2.6-4.7,4.1-7.4,5.1c-8.3,3-17.7,0.6-24.7-4.5
			c-10.4-7.7-17.4-19-22.7-30.5C182.9,284.2,203,250.4,234.4,236.5L234.4,236.5z"/>
	</g>
	<path d="M243.5,256.7c-12.9,5-17.9,20.4-13.5,25.6c4.4,5.2,15.6,9.9,30.1,2.6c14.6-7.3,15.9-17.7,11.3-25.5
		C266.9,251.6,255,252.2,243.5,256.7z"/>
	<path class="st4" d="M278.1,283.7c1.7,2.9,4.5,8.9,1.4,11.6c-2.6,2.2-5.9,0-8-2C274.3,290.4,276.5,287,278.1,283.7z"/>
	<path class="st4" d="M262.4,299.8c0.6-0.3,1.2-0.5,1.8-0.9c3.3-1.7,6-4.1,8.3-6.7c0.9,2.1,3.5,8.8,0.3,10.7
		C269.7,304.8,265.3,302.2,262.4,299.8z"/>
	<path class="st4" d="M264,299c1.3,2.5,3.1,7.5-2.3,8.9c-4.6,1.1-9.5-2.5-12.5-5.3C253.9,302.5,259,301.6,264,299z"/>
	<g>
		<path class="st0" d="M354.7,333.2c0,0-2.2-0.5-10.4,0"/>
		<path d="M354.6,333.7c-3.4-0.2-6.9,0.2-10.3,0.5c-0.5,0.1-1-0.3-1-0.9c-0.1-0.5,0.3-1,0.9-1c2.7,0,5.3,0,8,0.1
			c0.9,0.1,1.7,0.1,2.7,0.3c0.3,0.1,0.4,0.3,0.4,0.6C355.2,333.6,354.9,333.8,354.6,333.7L354.6,333.7z"/>
	</g>
	<g>
		<path class="st0" d="M354.7,341.2c0,0-6.8-1.3-13.5,1.9"/>
		<path d="M354.7,341.7c-4.4-0.5-9.1,0.3-13.1,2.4c-1.1,0.5-1.9-1.1-0.8-1.7c3.3-1.4,7-2,10.6-1.9c1.2,0,2.3,0.1,3.5,0.4
			c0.2,0,0.4,0.3,0.4,0.5C355.1,341.5,354.9,341.7,354.7,341.7L354.7,341.7z"/>
	</g>
	<g>
		<path d="M47.3,353.6c-3.4-0.2-6.9,0.2-10.3,0.5c-0.5,0.1-1-0.3-1-0.8c-0.1-0.5,0.3-1,0.8-1c3.6,0,7.1-0.1,10.7,0.5
			c0.2,0,0.4,0.3,0.3,0.5C47.8,353.5,47.5,353.6,47.3,353.6L47.3,353.6z"/>
	</g>
	<g>
		<path d="M47.3,361.6c-4.4-0.5-9.1,0.3-13.1,2.3c-1.1,0.5-1.9-1.2-0.8-1.7c3.3-1.4,6.9-2.1,10.5-2c1.2,0,2.4,0.1,3.6,0.4
			c0.3,0.1,0.5,0.3,0.4,0.6C47.8,361.5,47.6,361.7,47.3,361.6L47.3,361.6z"/>
	</g>
	<g>
		<path d="M342.6,126.2c11.4,6.6,24.5,14,38,13.8c1.4-0.1,1.6,2.1,0.1,2.2c-10.8,0.4-20.8-4.3-30.1-9.3c-3.1-1.7-6-3.6-8.9-5.6
			C341.2,126.8,341.9,125.7,342.6,126.2L342.6,126.2z"/>
	</g>
	<g>
		<path d="M334.4,605.4c-3.5-2.6-8-3.7-12.3-4.3c-1.2-0.2-1-2,0.3-1.9c3.4,0.7,6.8,1.8,9.8,3.5c1,0.6,2,1.2,2.9,2
			c0.2,0.2,0.2,0.5,0,0.7C334.9,605.6,334.6,605.6,334.4,605.4L334.4,605.4z"/>
	</g>
	<g>
		<path d="M103,599.1c3.4-2.8,7.6-4.4,11.9-5.3c1.4-0.3,2.9-0.5,4.4-0.6c0.5,0,1,0.3,1,0.9c0,0.6-0.4,1-1,1
			c-5.5,0.1-11.2,1.5-15.8,4.7C103.1,600.1,102.6,599.5,103,599.1L103,599.1z"/>
	</g>
</g>
</svg>
