<?xml version="1.0" encoding="utf-8"?>
<!-- Generator: Adobe Illustrator 28.4.1, SVG Export Plug-In . SVG Version: 6.00 Build 0)  -->
<svg version="1.1" id="Layer_1" xmlns="http://www.w3.org/2000/svg" xmlns:xlink="http://www.w3.org/1999/xlink" x="0px" y="0px"
	 viewBox="0 0 2035.1 1133.2" style="enable-background:new 0 0 2035.1 1133.2;" xml:space="preserve">
<style type="text/css">
	.st0{fill:#4F4939;stroke:#000000;stroke-width:7;stroke-miterlimit:10;}
	.st1{fill:#635C4B;}
	.st2{fill:#545047;stroke:#000000;stroke-width:7;stroke-miterlimit:10;}
	.st3{fill:#6AFE57;stroke:#000000;stroke-width:7;stroke-miterlimit:10;}
	.st4{fill:#FFB804;stroke:#000000;stroke-width:7;stroke-miterlimit:10;}
	.st5{fill:none;stroke:#000000;stroke-width:7;stroke-miterlimit:10;}
	.st6{fill:#FFFFFF;}
	.st7{fill-rule:evenodd;clip-rule:evenodd;fill:#FFFFFF;}
</style>
<g>
	<path class="st0" d="M9.6,728.7c106.6-37.8,213.2-75.5,319.9-113.3c106.9,18.7,213.9,37.4,320.8,56.1c0.6,107.5,1.1,215,1.7,322.5
		c-106.4,42.2-212.9,84.5-319.3,126.7c-107-33.6-213.9-67.2-320.9-100.8C11,922.8,10.3,825.8,9.6,728.7L9.6,728.7z"/>
	<path class="st1" d="M308.3,1076c-20,19.1-57.9-21.9-170.5-43.4c-60.6-11.6-87.3-6.9-102.7-29.7c-16.1-23.8,4.2-42.4,5.3-111.2
		c1.1-67-17.3-102.2,1-115.4c11.5-8.3,28.7-1.5,46.1,4.7c126.6,44.5,187.9,20.2,209.1,63.1c8.6,17.4-1.1,21.9-3.2,69.9
		C289.1,1013.9,328.7,1056.5,308.3,1076L308.3,1076z"/>
	<path class="st1" d="M615.3,974.3c-15.7,20.1-35.1,18.2-81.5,31.8c-98,28.6-122.7,69.3-148.2,54c-13.5-8.1-16.2-44.7-21.2-117.5
		c-5.6-82-0.6-93,3.2-99.5c18.1-31.1,47.4-26.6,121.8-58.2c88.8-37.7,112.5-72,132.3-59.3c18.9,12.1-1,44.5,2.1,149.3
		C625.4,931,632,952.9,615.3,974.3L615.3,974.3z"/>
	<path class="st2" d="M619.5,685.3c-11,4.9-22,9.7-33,14.6c-19.1,8.4-38.2,16.8-57.3,25.2c-0.7,0.3-1.4,0.6-2.1,0.9
		c-20.3,9-40.6,17.9-60.9,26.8c-7.8,3.4-15.5,6.8-23.3,10.3c-9.7,4.3-19.4,8.6-29.1,12.8c-2.1,0.9-4.2,1.8-6.3,2.8
		c-8.8,3.9-17.5,7.7-26.3,11.6c-9.5,4.2-19,8.4-28.6,12.6c-2.9,1.3-5.9,2.6-8.8,3.9c-3.9,1.7-7.8,3.5-11.7,5.2c-3.9-1-7.9-2-11.8-3
		c-10-2.5-20-5.1-30-7.6c-7.9-2-15.7-4-23.6-6c-7.3-1.8-14.5-3.7-21.8-5.5c-10.6-2.7-21.3-5.4-31.9-8.1l-9-2.3
		c-13.6-3.5-27.3-6.9-40.9-10.4c-8.5-2.2-16.9-4.3-25.4-6.4c-3.1-0.8-6.2-1.6-9.3-2.4c-18.3-4.7-36.7-9.3-55-14
		c-10.7-2.7-21.4-5.4-32.1-8.1c10.9-4,21.7-8,32.6-12c18.7-6.9,37.3-13.7,56-20.6c2.4-0.9,4.8-1.8,7.1-2.6
		c17.4-6.4,34.8-12.8,52.2-19.2c5.6-2.1,11.3-4.2,16.9-6.2c1.8-0.7,3.6-1.3,5.4-2c1.2-0.5,2.5-0.9,3.8-1.4c24.4-9,48.9-18,73.4-27
		c0,0,0,0,0,0c2.8-1,5.5-2,8.3-3c8.1-3,16.2-6,24.4-9c1-0.4,2-0.8,3.1-1.1c1.6-0.6,3.2-1.2,4.9-1.8c15,2.7,30,5.5,45,8.2
		c3.6,0.7,7.2,1.3,10.8,2c6.9,1.3,13.8,2.5,20.7,3.8c13.3,2.4,26.6,4.9,39.9,7.3c6.4,1.2,12.7,2.3,19,3.5
		c21.1,3.9,42.3,7.7,63.5,11.6c0,0,0,0,0.1,0c19.3,3.5,38.5,7,57.8,10.5C597.4,681.2,608.4,683.3,619.5,685.3L619.5,685.3z"/>
	<path class="st3" d="M287.3,704l6.4-238.2h22.2c0.9-12.9,1.9-25.8,2.8-38.8c8.5,0.3,17,0.7,25.5,1c0.1,12.6,0.2,25.2,0.3,37.8
		c9.2-0.3,18.4-0.7,27.5-1.1c1.1,78,2.1,156,3.2,234"/>
	<path class="st3" d="M213.2,781.8l-9-2.3c-13.6-3.5-27.3-6.9-40.9-10.4c-8.5-2.2-16.9-4.3-25.4-6.4c-3.1-0.8-6.2-1.6-9.3-2.4
		c0.5-18.2,1-36.4,1.5-54.7c0.6-20.5,1.1-41.1,1.6-61.7c0.3-10.6,0.6-21.2,0.9-31.8h22.2c0.9-12.4,1.8-24.9,2.7-37.3
		c8.4-0.6,16.8-1.3,25.1-1.9c0.2,13.1,0.5,26.2,0.7,39.2c8.1-0.3,16.2-0.6,24.3-0.9c1.1,0,2.1-0.1,3.2-0.1
		c0.3,20.2,0.5,40.4,0.8,60.5c0,1.3,0,2.6,0.1,4C212.2,711,212.7,746.4,213.2,781.8L213.2,781.8z"/>
	<path class="st3" d="M290.4,801.4c-7.9-2-15.7-4-23.6-6c-7.3-1.8-14.5-3.7-21.8-5.5c-10.6-2.7-21.3-5.4-31.9-8.1l-9-2.3
		c0.7-34,1.4-67.9,2.1-101.9c0-1.9,0.1-3.7,0.1-5.6c0.4-20.3,0.9-40.5,1.3-60.8c0.5-25.7,1.1-51.5,1.6-77.2h22.2
		c0.5-15.2,0.9-30.5,1.4-45.7c8.8-1.4,17.7-2.8,26.5-4.2c0.2,16.7,0.5,33.3,0.7,50c9.2-0.5,18.4-0.9,27.5-1.4
		c0.4,38.2,0.8,76.4,1.2,114.6c0,0.4,0,0.7,0,1.1c0.1,8.4,0.2,16.8,0.3,25.1c0.1,10.1,0.2,20.2,0.3,30.4
		C289.8,736.4,290.1,768.9,290.4,801.4L290.4,801.4z"/>
	<path class="st3" d="M352.7,802.9c-2.9,1.3-5.9,2.6-8.8,3.9c-3.9,1.7-7.8,3.5-11.7,5.2c-3.9-1-7.9-2-11.8-3c-10-2.5-20-5.1-30-7.6
		c-7.9-2-15.7-4-23.6-6c1.6-40.6,3.2-81.3,4.9-121.9H294c1.1-9.8,2.1-19.5,3.2-29.3c0.4-3.2,0.7-6.5,1.1-9.8
		c7.8,0.2,15.5,0.5,23.3,0.7v0.1c0.4,12.8,0.7,25.5,1.1,38.2c0.4,0,0.7,0,1.1,0c8.8-0.2,17.6-0.5,26.5-0.7c0,2,0.1,4.1,0.1,6.1
		c0.1,7.1,0.3,14.2,0.4,21.3C351.3,734.4,352,768.7,352.7,802.9L352.7,802.9z"/>
	<path class="st3" d="M407.6,778.7c-8.8,3.9-17.5,7.7-26.3,11.6c-9.5,4.2-19,8.4-28.6,12.6c-2.9,1.3-5.9,2.6-8.8,3.9
		c-3.9,1.7-7.8,3.5-11.7,5.2c-3.9-1-7.9-2-11.8-3c0.9-35.7,1.7-71.4,2.5-107.1c0.2-9.5,0.5-18.9,0.7-28.4
		c0.3-13.1,0.6-26.2,0.9-39.3c0.6-27.1,1.3-54.1,1.9-81.2h22.2c0.9-14.2,1.8-28.3,2.7-42.5c7.1,0.4,14.1,0.8,21.2,1.1
		c0.4,0,0.8,0,1.2,0.1c1.1,13.8,2.3,27.5,3.4,41.3c9.2-0.4,18.4-0.8,27.5-1.2c0.2,20.8,0.5,41.5,0.8,62.3
		c0.1,10.8,0.3,21.5,0.4,32.3c0.1,10.7,0.3,21.3,0.4,32C406.8,711.7,407.2,745.2,407.6,778.7L407.6,778.7z"/>
	<path class="st3" d="M466.2,752.8c-7.8,3.4-15.5,6.8-23.3,10.3c-9.7,4.3-19.4,8.6-29.1,12.8c-2.1,0.9-4.2,1.8-6.3,2.8
		c-8.8,3.9-17.5,7.7-26.3,11.6c1.3-48.3,2.6-96.6,3.9-145c0-0.9,0-1.9,0.1-2.8c0.2-9.5,0.5-19,0.8-28.5h22.2
		c1.4-19.4,2.8-38.8,4.2-58.2c7.8,0.3,15.5,0.7,23.3,1.1c0.4,19.1,0.7,38.1,1.1,57.2c3.4-0.1,6.8-0.3,10.1-0.4
		c5.8-0.2,11.6-0.4,17.4-0.7c0.2,14.7,0.4,29.4,0.6,44.1C465.4,689,465.8,720.9,466.2,752.8L466.2,752.8z"/>
	<path class="st3" d="M529.2,725.1c-0.7,0.3-1.4,0.6-2.1,0.9c-20.3,9-40.6,17.9-60.9,26.8c-7.8,3.4-15.5,6.8-23.3,10.3
		c1-36.5,2-73,2.9-109.5c0.4-13.3,0.7-26.7,1.1-40c0.5-19.8,1.1-39.7,1.6-59.5h22.2c0.9-12.5,1.8-24.9,2.7-37.3
		c6.7-0.7,13.4-1.3,20-2c1.9,13.1,3.9,26.2,5.8,39.3c9.2-0.3,18.4-0.7,27.5-1c0.5,37.9,1,75.8,1.5,113.7l0,1.9
		C528.7,687.5,529,706.3,529.2,725.1L529.2,725.1z"/>
	<path class="st3" d="M586.5,699.8c-19.1,8.4-38.2,16.8-57.3,25.2c-0.7,0.3-1.4,0.6-2.1,0.9c0.4-19.1,0.8-38.2,1.3-57.4
		c0-0.6,0-1.3,0-1.9c0.3-15,0.7-30,1-45h15.9c1-16.8,2-33.6,3-50.4c5.6,0.3,11.1,0.6,16.7,0.9c0.3,16.5,0.5,33,0.8,49.4
		c6.6-0.3,13.2-0.6,19.7-0.9c0.2,19.5,0.4,38.9,0.7,58.3C586.3,686.1,586.4,693,586.5,699.8L586.5,699.8z"/>
	<path class="st3" d="M137.9,762.7c-3.1-0.8-6.2-1.6-9.3-2.4c-18.3-4.7-36.7-9.3-55-14c0.2-6.7,0.3-13.4,0.5-20.1
		c0.7-27.2,1.3-54.4,2-81.5h17.2c1.1-16.4,2.2-32.8,3.3-49.2c6,0.3,12,0.6,18,0.9c0.3,16.1,0.6,32.2,0.8,48.3
		c5.5-0.2,11-0.5,16.5-0.7c1.6-0.1,3.2-0.1,4.8-0.2c0.2,19.7,0.5,39.5,0.7,59.2C137.4,722.9,137.6,742.8,137.9,762.7L137.9,762.7z"
		/>
	<path class="st3" d="M204.2,779.5c-13.6-3.5-27.3-6.9-40.9-10.4c0.7-21.6,1.4-43.2,2.1-64.7h22.2c0.6-6.8,1.2-13.7,1.8-20.5
		c0.3-3.6,0.6-7.2,0.9-10.8c5.4-0.3,10.8-0.7,16.1-1c1.8-0.1,3.5-0.2,5.3-0.3c1.2-0.1,2.5-0.2,3.7-0.2c0,0.9,0,1.9,0.1,2.8
		c0.2,10,0.4,20.1,0.7,30.2c9.2-0.3,18.4-0.6,27.5-0.9c0.5,28.8,0.9,57.6,1.4,86.4c-10.6-2.7-21.3-5.4-31.9-8.1L204.2,779.5
		L204.2,779.5z"/>
	<path class="st3" d="M352.7,802.9c-2.9,1.3-5.9,2.6-8.8,3.9c0.9-35.5,1.8-70.9,2.8-106.3c0.2-7.2,0.4-14.3,0.5-21.5h18.5
		c0.8-10.7,1.5-21.5,2.3-32.2c2.2-0.2,4.3-0.3,6.5-0.5c3.5-0.3,7.1-0.6,10.6-0.8c1.3-0.1,2.5-0.2,3.8-0.3
		c0.2,11.3,0.4,22.6,0.6,33.9c5.6-0.2,11.2-0.4,16.8-0.7c2.1-0.1,4.1-0.2,6.2-0.2c0.4,32.7,0.9,65.3,1.3,98
		c-2.1,0.9-4.2,1.8-6.3,2.8c-8.8,3.9-17.5,7.7-26.3,11.6C371.8,794.5,362.2,798.7,352.7,802.9L352.7,802.9z"/>
</g>
<g>
	<path class="st0" d="M1379.5,730.1c106.6-37.8,213.2-75.5,319.9-113.3c106.9,18.7,213.9,37.4,320.8,56.1
		c0.6,107.5,1.1,215,1.7,322.5c-106.4,42.2-212.8,84.5-319.3,126.7c-107-33.6-213.9-67.2-320.9-100.8
		C1381,924.2,1380.3,827.1,1379.5,730.1L1379.5,730.1z"/>
	<path class="st1" d="M1678.2,1077.3c-20,19.1-57.9-21.9-170.5-43.4c-60.6-11.6-87.3-6.9-102.7-29.7c-16.1-23.8,4.2-42.4,5.3-111.2
		c1.1-67-17.3-102.2,1.1-115.4c11.5-8.3,28.7-1.5,46.1,4.7c126.6,44.5,187.9,20.2,209.1,63.1c8.6,17.4-1.1,21.9-3.2,69.9
		C1659.1,1015.3,1698.6,1057.9,1678.2,1077.3L1678.2,1077.3z"/>
	<path class="st1" d="M1985.3,975.7c-15.7,20.1-35.1,18.2-81.5,31.8c-98.1,28.6-122.7,69.3-148.2,54c-13.5-8.1-16.2-44.7-21.2-117.5
		c-5.6-82-0.6-93,3.2-99.5c18.1-31.1,47.4-26.6,121.8-58.2c88.8-37.7,112.5-72,132.3-59.3c18.9,12.1-0.9,44.5,2.1,149.3
		C1995.4,932.3,2002,954.2,1985.3,975.7L1985.3,975.7z"/>
	<path class="st2" d="M1989.5,686.6c-11,4.9-22,9.7-33.1,14.6c-19.1,8.4-38.2,16.8-57.3,25.2c-0.7,0.3-1.4,0.6-2.1,0.9
		c-20.3,9-40.6,17.9-60.9,26.8c-7.8,3.4-15.5,6.8-23.3,10.3c-9.7,4.3-19.4,8.6-29.1,12.8c-2.1,0.9-4.2,1.8-6.3,2.8
		c-8.8,3.9-17.5,7.7-26.3,11.6c-9.5,4.2-19.1,8.4-28.6,12.6c-2.9,1.3-5.9,2.6-8.8,3.9c-3.9,1.7-7.8,3.5-11.7,5.2
		c-3.9-1-7.8-2-11.8-3c-10-2.5-20-5.1-30-7.6c-7.9-2-15.7-4-23.6-6c-7.3-1.8-14.5-3.7-21.8-5.5c-10.6-2.7-21.3-5.4-31.9-8.1l-9-2.3
		c-13.6-3.5-27.3-6.9-40.9-10.4c-8.5-2.2-16.9-4.3-25.4-6.4c-3.1-0.8-6.2-1.6-9.3-2.4c-18.3-4.7-36.7-9.3-55-14
		c-10.7-2.7-21.4-5.4-32.1-8.1c10.9-4,21.7-8,32.6-12c18.7-6.9,37.3-13.7,56-20.6c2.4-0.9,4.8-1.8,7.1-2.6
		c17.4-6.4,34.8-12.8,52.2-19.2c5.7-2.1,11.3-4.2,16.9-6.2c1.8-0.7,3.6-1.3,5.4-2c1.2-0.5,2.5-0.9,3.8-1.4c24.4-9,48.9-18,73.3-27
		c0,0,0,0,0,0c2.8-1,5.5-2,8.3-3c8.1-3,16.2-6,24.3-9c1-0.4,2.1-0.8,3.1-1.1c1.6-0.6,3.2-1.2,4.9-1.8c15,2.7,30,5.5,45,8.2
		c3.6,0.7,7.2,1.3,10.8,2c6.9,1.3,13.8,2.5,20.7,3.8c13.3,2.4,26.6,4.9,39.9,7.3c6.3,1.2,12.7,2.3,19.1,3.5
		c21.2,3.9,42.3,7.7,63.4,11.6c0,0,0.1,0,0.1,0c19.3,3.5,38.5,7,57.8,10.5C1967.3,682.6,1978.4,684.6,1989.5,686.6L1989.5,686.6z"/>
	<path class="st3" d="M1657.3,705.4l6.3-238.2h22.2c0.9-12.9,1.9-25.8,2.8-38.8c8.5,0.3,17,0.7,25.5,1c0.1,12.6,0.2,25.2,0.3,37.8
		c9.2-0.3,18.3-0.7,27.5-1.1c1.1,78,2.1,156,3.2,234"/>
	<path class="st3" d="M1583.1,783.1l-9-2.3c-13.6-3.5-27.3-6.9-40.9-10.4c-8.5-2.2-16.9-4.3-25.4-6.4c-3.1-0.8-6.2-1.6-9.3-2.4
		c0.5-18.2,1-36.4,1.5-54.7c0.6-20.5,1.1-41.1,1.6-61.7c0.3-10.6,0.6-21.2,0.8-31.8h22.2c0.9-12.4,1.8-24.9,2.7-37.3
		c8.4-0.6,16.8-1.3,25.2-1.9c0.2,13.1,0.5,26.2,0.7,39.2c8.1-0.3,16.2-0.6,24.3-0.9c1.1,0,2.1-0.1,3.2-0.1
		c0.3,20.2,0.5,40.4,0.8,60.5c0,1.3,0,2.6,0.1,4C1582.2,712.4,1582.6,747.7,1583.1,783.1L1583.1,783.1z"/>
	<path class="st3" d="M1660.4,802.7c-7.9-2-15.7-4-23.6-6c-7.3-1.8-14.5-3.7-21.8-5.5c-10.6-2.7-21.3-5.4-31.9-8.1l-9-2.3
		c0.7-34,1.4-67.9,2.1-101.9c0-1.9,0.1-3.7,0.1-5.6c0.4-20.3,0.8-40.5,1.3-60.8c0.5-25.7,1.1-51.5,1.6-77.2h22.2
		c0.5-15.2,0.9-30.5,1.4-45.7c8.8-1.4,17.7-2.8,26.5-4.2c0.2,16.7,0.5,33.3,0.7,50c9.2-0.5,18.3-0.9,27.5-1.4
		c0.4,38.2,0.8,76.4,1.2,114.6c0,0.4,0,0.7,0,1.1c0.1,8.4,0.2,16.8,0.3,25.1c0.1,10.1,0.2,20.2,0.3,30.4
		C1659.7,737.7,1660.1,770.2,1660.4,802.7L1660.4,802.7z"/>
	<path class="st3" d="M1722.7,804.3c-2.9,1.3-5.9,2.6-8.8,3.9c-3.9,1.7-7.8,3.5-11.7,5.2c-3.9-1-7.8-2-11.8-3c-10-2.5-20-5.1-30-7.6
		c-7.9-2-15.7-4-23.6-6c1.6-40.6,3.2-81.3,4.8-121.9h22.2c1.1-9.8,2.1-19.5,3.2-29.3c0.4-3.2,0.7-6.5,1.1-9.8
		c7.8,0.2,15.5,0.5,23.3,0.7v0.1c0.3,12.8,0.7,25.5,1.1,38.2c0.4,0,0.7,0,1.1,0c8.8-0.2,17.6-0.5,26.4-0.7c0,2,0.1,4.1,0.1,6.1
		c0.2,7.1,0.3,14.2,0.4,21.3C1721.3,735.8,1722,770,1722.7,804.3L1722.7,804.3z"/>
	<path class="st3" d="M1777.5,780.1c-8.8,3.9-17.5,7.7-26.3,11.6c-9.5,4.2-19.1,8.4-28.6,12.6c-2.9,1.3-5.9,2.6-8.8,3.9
		c-3.9,1.7-7.8,3.5-11.7,5.2c-3.9-1-7.8-2-11.8-3c0.8-35.7,1.7-71.4,2.5-107.1c0.2-9.5,0.4-18.9,0.7-28.4
		c0.3-13.1,0.6-26.2,0.9-39.3c0.6-27.1,1.3-54.1,1.9-81.2h22.2c0.9-14.2,1.8-28.3,2.7-42.5c7.1,0.4,14.2,0.8,21.2,1.1
		c0.4,0,0.8,0,1.2,0.1c1.1,13.8,2.3,27.5,3.4,41.3c9.2-0.4,18.4-0.8,27.5-1.2c0.2,20.8,0.5,41.5,0.8,62.3
		c0.1,10.8,0.3,21.5,0.4,32.3c0.1,10.7,0.3,21.3,0.4,32C1776.7,713.1,1777.1,746.6,1777.5,780.1L1777.5,780.1z"/>
	<path class="st3" d="M1836.2,754.2c-7.8,3.4-15.5,6.8-23.3,10.3c-9.7,4.3-19.4,8.6-29.1,12.8c-2.1,0.9-4.2,1.8-6.3,2.8
		c-8.8,3.9-17.5,7.7-26.3,11.6c1.3-48.3,2.6-96.6,3.9-145c0-0.9,0.1-1.9,0.1-2.8c0.2-9.5,0.5-19,0.8-28.5h22.2
		c1.4-19.4,2.8-38.8,4.2-58.2c7.8,0.3,15.5,0.7,23.3,1.1c0.3,19.1,0.7,38.1,1.1,57.2c3.4-0.1,6.8-0.3,10.1-0.4
		c5.8-0.2,11.6-0.4,17.4-0.7c0.2,14.7,0.4,29.4,0.6,44.1C1835.3,690.4,1835.8,722.3,1836.2,754.2L1836.2,754.2z"/>
	<path class="st3" d="M1899.2,726.4c-0.7,0.3-1.4,0.6-2.1,0.9c-20.3,9-40.6,17.9-60.9,26.8c-7.8,3.4-15.5,6.8-23.3,10.3
		c1-36.5,1.9-73,2.9-109.5c0.3-13.3,0.7-26.7,1.1-40c0.5-19.8,1.1-39.7,1.6-59.5h22.2c0.9-12.5,1.8-24.9,2.7-37.3
		c6.7-0.7,13.4-1.3,20.1-2c1.9,13.1,3.9,26.2,5.8,39.3c9.2-0.3,18.4-0.7,27.5-1c0.5,37.9,1,75.8,1.5,113.7l0,1.9
		C1898.7,688.8,1898.9,707.6,1899.2,726.4L1899.2,726.4z"/>
	<path class="st3" d="M1956.5,701.2c-19.1,8.4-38.2,16.8-57.3,25.2c-0.7,0.3-1.4,0.6-2.1,0.9c0.4-19.1,0.8-38.2,1.3-57.4
		c0-0.6,0-1.3,0-1.9c0.3-15,0.7-30,1-45h15.9c1-16.8,2-33.6,3-50.4c5.6,0.3,11.1,0.6,16.7,0.9c0.3,16.5,0.5,33,0.8,49.4
		c6.6-0.3,13.2-0.6,19.7-0.9c0.2,19.5,0.4,38.9,0.7,58.3C1956.3,687.4,1956.4,694.3,1956.5,701.2z"/>
	<path class="st3" d="M1507.8,764c-3.1-0.8-6.2-1.6-9.3-2.4c-18.3-4.7-36.7-9.3-55-14c0.2-6.7,0.3-13.4,0.5-20.1
		c0.7-27.2,1.3-54.4,2-81.5h17.2c1.1-16.4,2.2-32.8,3.3-49.2c6,0.3,12,0.6,18,0.9c0.3,16.1,0.6,32.2,0.8,48.3
		c5.5-0.2,11-0.5,16.5-0.7c1.6-0.1,3.2-0.1,4.8-0.2c0.2,19.7,0.5,39.5,0.7,59.2C1507.3,724.3,1507.6,744.2,1507.8,764L1507.8,764z"
		/>
	<path class="st3" d="M1574.1,780.8c-13.6-3.5-27.3-6.9-40.9-10.4c0.7-21.6,1.4-43.2,2.1-64.7h22.2c0.6-6.8,1.2-13.7,1.8-20.5
		c0.3-3.6,0.6-7.2,0.9-10.8c5.4-0.3,10.8-0.7,16.1-1c1.8-0.1,3.5-0.2,5.3-0.3c1.2-0.1,2.5-0.2,3.7-0.2c0,0.9,0,1.9,0.1,2.8
		c0.2,10,0.4,20.1,0.7,30.2c9.2-0.3,18.3-0.6,27.5-0.9c0.5,28.8,0.9,57.6,1.4,86.4c-10.6-2.7-21.3-5.4-31.9-8.1L1574.1,780.8
		L1574.1,780.8z"/>
	<path class="st3" d="M1722.7,804.3c-2.9,1.3-5.9,2.6-8.8,3.9c0.9-35.5,1.8-70.9,2.8-106.3c0.2-7.2,0.4-14.3,0.6-21.5h18.5
		c0.8-10.7,1.5-21.5,2.3-32.2c2.2-0.2,4.3-0.3,6.5-0.5c3.6-0.3,7.1-0.6,10.6-0.8c1.3-0.1,2.6-0.2,3.8-0.3
		c0.2,11.3,0.4,22.6,0.6,33.9c5.6-0.2,11.2-0.4,16.8-0.7c2.1-0.1,4.1-0.2,6.2-0.2c0.4,32.7,0.9,65.3,1.3,98
		c-2.1,0.9-4.2,1.8-6.3,2.8c-8.8,3.9-17.5,7.7-26.3,11.6C1741.7,795.9,1732.2,800.1,1722.7,804.3L1722.7,804.3z"/>
</g>
<g>
	<path class="st4" d="M596.8,924.3c-18.9-0.9-42.6-5.2-63.5-20.5c-34-24.8-43.1-65.6-49.2-63.5c-4.6,1.6-1.6,25.3,4.1,45.1
		c10.1,35.3,29,58.7,34.8,65.6c36.6,43.3,85.2,57.1,104.5,61.5"/>
	<path class="st4" d="M598.9,619c-13.4-69.9-19.4-161.2,4.1-262.3c15-64.6,33.7-144.9,102.5-215.1c60-61.3,126.7-82.9,174.2-98.3
		c138-44.8,256.7-19.8,295.1-10.2c68.3,17,169.7,42.3,235.6,129.1c53.8,70.8,56.4,163.3,61.5,348.3c2.2,80.4-1.7,135.2-8.2,227.4
		c-13.7,193.1-34.3,244.4-49.2,274.6c-33.4,67.8-79.3,113-110.7,139.3c11.5,36.2,22.3,81.9,26.6,135.2
		c7.4,92.2-7.8,168.5-22.5,219.2c17.5,0.5,32.8,11.1,38.9,26.6c6.8,17.4,0.8,38.2-12.3,47.1c-6.2,4.2-15.8,7-43,0
		c-19.3-5-47.9-14.9-79.9-36.9c17.5-44.1,25.1-81.3,28.7-106.6c8.7-60.8,3.4-112.4-4.1-186.5c-2.9-28.1-6-51.1-8.2-66.2
		c-36.7,10.1-67.8,15.7-90.2,19c-47.2,7-135.9,15.4-243.8-4.1c-27.1-4.9-49-10.4-63.5-14.3c5.5,14.6,12.6,35.6,18.4,61.5
		c15.6,68.8,11.5,124.3,8.2,166c-2.7,33.3-8.6,77.7-22.5,129.1c6.1,3.4,16.4,10.2,24.6,22.5c4.4,6.6,15.8,23.8,10.2,36.9
		c-7.1,16.8-38.2,17.9-53.3,16.4c-41.2-4.2-66.7-38.8-73.8-49.2c6.9-14,15.7-34.2,22.5-59.4c2.5-9.3,11.1-42.7,10.2-110.7
		c-0.9-71.7-11.5-126.9-18.4-161.9c-6.4-32.3-13.2-59-18.4-77.9c-21.8-13.2-52.3-34.6-82-67.6c-56.2-62.5-74.8-128.1-84-161.9
		c-5.9-21.6-21.4-85.3-12.3-168C566.7,699.1,584.5,650.7,598.9,619L598.9,619z"/>
	<path class="st4" d="M1438,525.7c22.2,14.3,56.5,40.1,86.5,82.2c41.5,58.3,51.4,114.9,56.2,144.9c10.9,67.4,0.5,119.8-6.5,153.6
		c-9.3,45.1-25,77.7-56.2,142.8c-8.7,18.1-28.6,58.2-49.8,58.4c-1.5,0-7.2,0.1-9-3.1c-4.6-8,18.5-30.3,18.7-30.2
		c0.1,0.1-10.9,15.2-28.2,23.1c-5.4,2.5-6.8,2.1-7.5,1.5c-4.9-4.6,21-39.7,19.8-40.6c-1.2-0.9-26.6,36.1-31.8,33.2
		c-1-0.6-1-2.6-0.7-5.1c2.3-19.2,17.6-36.5,18.1-36.1c0.6,0.4-17.3,29.9-35.2,31.6c-1.6,0.2-7.4,0.7-8.8-2c-1.3-2.4,1.7-6.4,2.9-7.9
		c30.7-39.8,46.1-59.7,50.6-64.3c15.8-16.3,23-33.8,37.2-68.9c31.7-77.9,20.8-151.5,19.5-160.1c-14.1-88.8-66.5-145-86.5-164.4"/>
	<path class="st4" d="M658.3,598.5c0.5,140.4,16.2,248.4,30.7,321.6c10.3,51.7,22,95.9,57.4,110.6c32.9,13.7,71.9-8.8,110.6-30.7
		c42.3-24,77.9-56.6,116.8-92.2c33.1-30.3,36.6-37,53.3-43c30.3-10.9,59.9-3.5,83.3-26c2.7-2.6,8.9-8.7,7.3-12.3
		c-4.3-9.5-59.3,5.1-59.2,5.3s55.1-5.5,57-20.7c0.5-4.3-3.3-7.9-4.1-8.7c-16.2-15.3-64.7,8.8-64.6,9.1c0.1,0.3,59.6-13.8,60.1-32.8
		c0.1-4.6-3.4-8-3.8-8.4c-15.5-14.5-68.6,16.6-69,15.7c-0.4-0.8,41.1-14.4,42.8-35.5c0.1-1.1,0.6-7.6-3.2-10.5
		c-8.9-6.8-33.9,12-58.7,31.4c-43.6,34.2-74.5,61.3-83.8,69.2c-37.7,32.3-104.7,89.7-136.6,72.8c-20.1-10.6-16.1-45.3-19.1-117.5
		c-3.1-74.8-11.5-135.4-18.2-175.7"/>
	<path class="st5" d="M642.3,414.5c-3,9.8-7.7,30.9,1.4,52.7c3.3,8,8.4,20.2,20.5,24.6c12.5,4.5,24.9-2.1,27.4-3.4
		c19.4-10.4,28.6-39.2,24.7-72.6"/>
	<g>
		
			<ellipse transform="matrix(0.9969 -7.863309e-02 7.863309e-02 0.9969 -22.574 102.6754)" cx="1292.4" cy="338" rx="127.9" ry="123.3"/>
		
			<ellipse transform="matrix(0.9969 -7.863309e-02 7.863309e-02 0.9969 -22.6913 73.569)" cx="922.8" cy="324.9" rx="118" ry="104"/>
		
			<ellipse transform="matrix(0.9969 -7.863309e-02 7.863309e-02 0.9969 -21.8624 72.5119)" class="st6" cx="909.8" cy="313.9" rx="75.9" ry="69.2"/>
		
			<ellipse transform="matrix(0.9969 -7.863309e-02 7.863309e-02 0.9969 -21.8426 100.747)" class="st6" cx="1268.3" cy="327.7" rx="75.9" ry="69.2"/>
	</g>
	<g>
		<path class="st5" d="M1024.8,513.7c5.5,4.8,33.2,27.8,74.4,25.6c41.8-2.2,67-28.7,71.8-34"/>
		<path class="st4" d="M1054.2,499.8c-14.5,21.4,4.8,37.6-8.4,79.4c-1.7,5.5-10.1,27.3-31,45.5c-17.5,15.3-54.9,37.4-84.4,23.7
			c-22-10.3-29.2-35.7-35.1-56.3c-21.4-75.4,11.3-143.6,20.1-161.4c10.2-20.5,29.1-57.5,71-86.1c8.5-5.8,35.9-23.5,76.3-31.2
			c41.4-7.9,76.5-1.4,98,4.9c15.3,4.5,44.3,13.2,72.2,37.3c34,29.4,45.9,63.7,59.6,103.4c15.2,43.9,27.2,78.8,13.5,117.6
			c-4.4,12.4-14.2,39.9-42.1,51.6c-32.1,13.4-63.1-4.2-66.6-6.3c-24.1-14.3-40.4-42.6-43.2-69c-2.2-19.9,3.3-38.6-9.9-59
			c-2.5-3.8-4.9-7.5-9.2-10.8C1113.9,467.2,1070.3,475.8,1054.2,499.8L1054.2,499.8z"/>
		
			<ellipse transform="matrix(0.9969 -7.863329e-02 7.863329e-02 0.9969 -32.3829 87.1093)" cx="1089.9" cy="454.7" rx="72.7" ry="43.4"/>
	</g>
</g>
<g>
	<path class="st7" d="M1741.9,57.4c161.8,6.1,279.6,55.4,282.8,199c3,133-113.1,157.9-274.8,151.8c-9.3-0.4-18.5-0.8-27.5-1.2
		c-14.3,12.9-30.6,25.1-43.7,35.1c-1.1,0.8-2.3,1.7-3.4,2.5c-21.1,16-55.6,18.1-92.8,16.8c-38.5-1.3-100.2-19.3-97.5-25.1
		c0.5-1.1,6.7-0.4,16.2,0.8c19.1,2.3,51.5,6.4,73.9-0.5c20-6.3,31.6-10.7,47.9-25.2c4.4-3.9,8.4-8.7,12.1-14.2
		c-101.3-17.8-169-60.7-171.4-162C1460.7,99.5,1580.3,51.3,1741.9,57.4z"/>
	<path d="M1722.4,407l0.1-4.5l-1.4-0.2l-1,1L1722.4,407z M1675.3,444.8l-2.3-3.9l0,0L1675.3,444.8z M1635.2,397.6l3.2,3.1l4.4-6.4
		l-7.2-1.2L1635.2,397.6z M2028.6,256.6c-0.9-36.8-8.9-67.7-23.5-93.4c-14.5-25.9-35.2-46.1-60.7-61.9
		c-51-31.7-121.5-45.3-202.6-48.4l0.3,9.2c80.6,3,149.7,16.9,198.9,47.2c24.6,15.2,44,34.6,57.6,58.5c13.6,24,21.3,53.1,22.1,88.3
		L2028.6,256.6z M1749.8,413c81,3.1,151.1-1.7,200.7-24.1c24.9-11.3,44.8-27.1,58.3-48.9c13.5-21.8,20.5-49.3,19.7-83.4l-7.9-0.2
		c0.8,32.5-5.8,57.8-18.2,78c-12.5,20-31.1,35.1-55,45.8c-48.2,21.7-116.9,26.5-197.7,23.5L1749.8,413z M1722.5,411.6
		c9,0.4,18.2,1,27.5,1.2l-0.3-9.2c-9.3-0.4-18.3-0.8-27.3-1.3L1722.5,411.6z M1681,446.3c13.2-10,29.5-22.5,44-35.4l-5-7.6
		c-14.1,12.7-30.3,25.1-43.5,35.1L1681,446.3z M1677.6,448.8c1.1-0.8,2.2-1.6,3.4-2.5l-4.6-7.8c-1.1,0.8-2.3,1.7-3.4,2.5
		L1677.6,448.8z M1582.7,466.1c18.6,0.6,36.8,0.4,53-1.9s30.7-7,42-15.4l-4.6-7.8c-9.8,7.6-23.2,11.8-38.7,14.2
		c-15.7,2.2-33.3,2.5-51.8,1.9L1582.7,466.1z M1481.5,434.3c-1.1,2.7,0.1,5.1,0.8,6.5c0.7,1.1,1.9,1.9,2.7,2.6
		c1.8,1.3,4.5,2.7,7.5,3.8c6.2,2.6,15.2,5.5,25.1,8.3c20,5.5,45.4,10.4,64.9,11l-0.3-9.2c-19-0.7-43.6-5.3-63.5-10.8
		c-9.9-2.7-18.3-5.4-24.1-7.8c-3-1.3-4.9-2.2-6.1-3c-0.6-0.5-0.6-0.5-0.6-0.3c0.2,0.2,1.2,1.8,0.3,3.9L1481.5,434.3z M1501.5,432.7
		c-4.7-0.6-8.8-1.1-11.6-1.2c-1.4-0.2-2.8-0.1-3.9-0.1c-0.5,0.1-1.2,0.2-1.9,0.3c-0.5,0.1-2,0.8-2.7,2.5l7.1,4.5
		c-0.4,0.9-0.8,1.4-1.1,1.4c-0.3,0.3-0.5,0.3-0.6,0.3s-0.2,0,0.2,0c0.5-0.1,1.4,0,2.8,0.1c2.6,0.1,6.6,0.7,11.2,1.3L1501.5,432.7z
		 M1573.9,432.2c-21.7,6.8-53,3-72.5,0.5l-0.4,9.2c19,2.4,52,6.5,75.4-0.8L1573.9,432.2z M1620.4,407.9
		c-15.7,14-26.8,18.3-46.6,24.5l2.5,9c20.2-6.3,32.4-11,49.2-25.8L1620.4,407.9z M1632,394.5c-3.6,5.2-7.5,9.8-11.6,13.4l5,7.6
		c4.5-4.1,8.8-9.2,12.7-14.7L1632,394.5z M1459.8,235.3c1.2,52,19.3,89.6,50.4,116.2c30.8,26.4,73.8,41.8,124.7,50.5l0.8-9.2
		c-50.4-8.9-91.9-23.8-120.9-48.7c-28.8-24.7-45.7-59.2-46.9-108.6L1459.8,235.3z M1741.8,52.9c-81.2-3.1-152.2,7.5-202.7,36.2
		c-50.7,28.8-81,76.3-79.4,146.2l7.9,0.2c-1.4-66,26.5-110.7,75.2-138.2c48.8-27.8,118.4-38.3,199-35.3L1741.8,52.9z"/>
</g>
<g>
	<path d="M1584.5,311.9c-11.3,0.2-22.3-1.3-32.1-7c-8.3-5-11-12.3-7-19.5c3.8-7,11.3-9,19.8-4.3c8.8,4.5,18,4.5,27.3,3.5
		c4.8-0.5,7.3-7,5.3-13.3c-2-6.3-6.8-10-11.8-13.5c-12-8.8-23-18.3-29.1-32.1c-6.8-15.5-7.3-31.3,4.5-44.1
		c12.3-13.5,28.3-20.8,47.3-16.5c10.5,2.3,16,11.5,12.5,20c-2.8,6.3-9.5,9.5-16.3,7.5c-8-2.5-19,0.8-23.5,7c-3.5,4.8-2,14,4,21.3
		c5.8,7.3,13.8,12.3,20.8,18.3c14,11.5,22.3,25.3,18.5,44.6c-3.8,18-13,26.6-31.6,28.1C1590.5,312.1,1587.5,311.9,1584.5,311.9z"/>
	<path d="M1744.8,301.9c0,8.8-4.5,14.5-11.8,15.3c-7.8,1-14.3-3.8-15.8-12c-1.5-9.3-1.3-13.8-3.8-26.3c-0.5-2.5-1-4.5-1.3-6
		c-5.3,0.5-9.5,0.8-13,0.8c-4.3,0.2-11.3,0.5-20,0c-3.8,0-6.8-0.2-8.8-0.5c-0.8,1.8-1.8,4.5-2.5,7.8c-3.3,11.3-3.5,14-5.5,21.3
		c-2.3,9.5-8.5,14.5-16.3,13.3c-8.5-1.5-13-8.8-10.5-18.8c10-40.1,21.5-79.9,40.8-116.7c6.3-11.8,13.5-23.3,29.6-20.8
		c15.5,2.3,19.5,14.8,22.5,27.6c6.3,25,7.8,50.8,11.3,76.1C1741.5,276.1,1743,289.1,1744.8,301.9z M1701.4,191.9
		c-5.5,10.8-11,22.8-16,36.1c-2.5,6.3-4.5,12.3-6.3,18c1.8,0.5,4.5,1,7.8,1.3c4.5,0.2,7.8,0.2,12.3,0c2.8-0.3,6.3-0.5,10.5-1
		c-0.3-2.5-0.5-5-0.8-7.5C1707,222.7,1704.4,207.2,1701.4,191.9z"/>
	<path d="M1799.1,157.3c6.3,0,12.8-0.3,19,0.2c9.3,0.2,15.3,6.5,14.8,14.5c-0.3,7.8-6.3,12.5-15.5,12.5c-9.8,0-19.8,0-29.6,0
		c-0.8,0-4.3-0.3-5.3,1.3c-0.3,0.5-0.3,1.3-0.5,3c0,0.8-0.3,1.3-0.3,2c0,2,0,3.5,0,5c-0.2,2.8-0.2,3.5-0.2,4c0.2,1,0.2,3.8,0.5,11.3
		c6.5-0.5,13-1,19.5-1.8c1.3,0,5,0,8.3,3c3.5,2.8,4.3,6.5,4.5,8c0.3,1.5,1,4.5-0.8,8c-2.3,5.3-8,6.5-8.8,6.8
		c-6.8,0.8-13.8,1.8-20.5,2.5c0,4.5,0.2,8,0.2,10.3c1.5,50.6,0.5,43.6,0.5,48.1c0,2.3,0.3,4.8,0,7c-1,7-5.3,11.3-12,12
		c-6.8,0.8-11.8-2.8-14-9.5c-1.3-3.5-1-7.3-1.3-11c0-36.8,0-73.4-3.3-110.2c0-2-0.2-4.3-0.8-6.3c-1.8-9.3,1.5-14.8,10.5-17.8
		C1775.6,156.8,1787.3,157.3,1799.1,157.3z"/>
	<path d="M1842.9,225c-0.3-16.5-1-33.1,3.3-49.3c2.8-10.5,11.8-15,19.8-10c6.3,3.5,7.8,9.3,6.5,16.3c-4.3,26.8-3.8,53.6-1,80.4
		c0,0,1.5,12.5,8.8,18.3c0.8,0.5,2.3,1.8,4.5,1.8c1.5,0,3-0.8,4.5-2c9.3-8.8,13-21,13-21c3.3-10.8,5.3-17.8,6.3-29.8
		c1-14.3,1.3-29.3,1.5-49.3c0-10.3,4.8-16.5,13-16.8c8.3-0.3,13.8,6.3,14,16.8c0.5,25.8,0.8,51.6-6.5,76.6
		c-8,27.6-15.5,35.6-19.5,39.8c-5,4.8-13.5,13.3-26.3,13.5c-13.5,0-23-9.8-26.3-13c-12-12.5-14.5-28.8-15.5-44.3
		C1842.4,243.5,1842.9,234.2,1842.9,225z"/>
</g>
</svg>
