<?xml version="1.0" encoding="utf-8"?>
<!-- Generator: Adobe Illustrator 28.4.1, SVG Export Plug-In . SVG Version: 6.00 Build 0)  -->
<svg version="1.1" id="Layer_1" xmlns="http://www.w3.org/2000/svg" xmlns:xlink="http://www.w3.org/1999/xlink" x="0px" y="0px"
	 viewBox="0 0 629 516" style="enable-background:new 0 0 629 516;" xml:space="preserve">
<style type="text/css">
	.st0{fill:#FFB804;stroke:#000000;stroke-width:4;stroke-miterlimit:10;}
	.st1{fill:#FFFFFF;}
	.st2{fill:none;stroke:#000000;stroke-width:4;stroke-miterlimit:10;}
</style>
<g>
	<g>
		<path class="st0" d="M511.1,276.7c0.3,45,0.7,90,1,135.1c-1.3-0.2-9.1-1.3-15.7,4.1c-4.7,3.8-8.6,10.6-7.1,17.3
			c2.1,9.4,13.8,12.9,16.8,13.7c19.8,5.8,38.8-11.5,41.1-13.7c0.2-65,0.3-130,0.5-195"/>
		<path class="st0" d="M378.5,263.4c0.3,45,0.7,90,1,135.1c-1.3-0.2-9.1-1.3-15.7,4.1c-4.7,3.8-8.6,10.6-7.1,17.3
			c2.1,9.4,13.8,12.9,16.8,13.7c19.8,5.8,38.8-11.5,41.1-13.7c0.2-65,0.3-130,0.5-195"/>
		<path class="st0" d="M287.1,337.1c0.3,45,0.7,90,1,135.1c-1.3-0.2-9.1-1.3-15.7,4.1c-4.7,3.8-8.6,10.6-7.1,17.3
			c2.1,9.4,13.8,12.9,16.8,13.7c19.8,5.8,38.8-11.5,41.1-13.7c0.2-65,0.3-130,0.5-195"/>
		<path class="st0" d="M132.2,316.2c0.3,45,0.7,90,1,135.1c-1.3-0.2-9.1-1.3-15.7,4.1c-4.7,3.8-8.6,10.6-7.1,17.3
			c2.1,9.4,13.8,12.9,16.8,13.7c19.8,5.8,38.8-11.5,41.1-13.7c0.2-65,0.3-130,0.5-195"/>
	</g>
	<path class="st0" d="M468.5,84.7c14.9-1.7,24.7-7.1,30-10.7c8.2-5.6,9.3-9.4,9.6-10.7c1.5-6.1-3.3-8.7-6.6-19.3
		c-1-3.1-5.4-17.1,1-27.9c2.8-4.7,7.5-8.5,9.1-7.6c2,1.1-2.2,7.6-1,16.2c1.1,8,5.8,10.6,11.7,19.8c1.6,2.5,9.6,15,10.2,26.4
		c0.9,17.2-14.9,30.9-20.8,35.5"/>
	<path class="st0" d="M97.8,215.7c-2.4,12.1-6.3,40.4,7.1,71.1c17.8,40.8,53.9,57.4,66,63c8.7,4,26.6,11.2,76.2,13.2
		c72.2,3,128.2-8.4,153.4-14.2c38.8-9,69.2-16.4,103.6-38.6c18.4-11.9,38.8-25.3,52.8-51.8c16.5-31,14.2-60.9,13.2-72.1
		c-1.1-12.3-3.9-39.6-23.4-65c-15.9-20.7-34.4-29.1-59.9-40.6c-17.5-7.9-58.9-24-111.7-20.3c-7.6,0.5-13.9,1.4-18.3,2
		c-8.9-7.1-22.5-16.5-40.6-24.4c-48.5-21-93-14.7-110.7-11.2C192.1,29.5,162,37,131.3,59.3c-14.7,10.6-35,25.4-48.7,52.8
		c0,0-24,47.8-3,97.5c0.7,1.7,2.5,5.9,6.6,7.6C90.7,219.2,95.8,216.8,97.8,215.7z"/>
	<g>
		<ellipse cx="300.5" cy="157.6" rx="62.1" ry="59.8"/>
		<ellipse cx="122.2" cy="137.2" rx="57.2" ry="50.5"/>
		<ellipse class="st1" cx="116.3" cy="131.4" rx="36.8" ry="33.6"/>
		<ellipse class="st1" cx="289.2" cy="151.8" rx="36.8" ry="33.6"/>
	</g>
	<g>
		<path class="st2" d="M164.3,232.5c2.5,2.5,15,14.7,35,15.2c20.3,0.5,33.5-11.3,36.1-13.7"/>
		<path class="st0" d="M179,226.9c-7.8,9.8,0.9,18.4-7.1,38.1c-2.7,6.7-6.7,16.5-16.8,20.8c-8.2,3.5-18.6,2.7-25.9-2.5
			c-4.8-3.5-8.8-9.4-11.7-32c-3.4-27.1-5.1-40.6,0-56.4c2.1-6.4,10.3-30.4,34.5-45.7c15.1-9.5,29.5-11.2,38.1-12.2
			c20.3-2.2,37.1,2.2,47.2,6.1c7.2,2.7,20.9,8.1,33.5,20.8c15.3,15.5,19.8,32.6,24.9,52.3c5.7,21.8,10.2,39.2,2,57.4
			c-2.6,5.8-8.4,18.8-22.3,23.4c-16,5.3-30.4-4.4-32-5.6c-11.1-7.8-17.9-22.2-18.3-35c-0.3-9.7,3.1-18.6-2.5-28.9
			c-1.1-2-2.1-3.8-4.1-5.6C209.2,213.4,187.8,215.9,179,226.9z"/>
		<ellipse cx="198" cy="206.4" rx="35.3" ry="21.1"/>
	</g>
</g>
</svg>
