<?xml version="1.0" encoding="utf-8"?>
<!-- Generator: Adobe Illustrator 28.4.1, SVG Export Plug-In . SVG Version: 6.00 Build 0)  -->
<svg version="1.1" id="Layer_1" xmlns="http://www.w3.org/2000/svg" xmlns:xlink="http://www.w3.org/1999/xlink" x="0px" y="0px"
	 viewBox="0 0 1920 381" style="enable-background:new 0 0 1920 381;" xml:space="preserve">
<style type="text/css">
	.st0{clip-path:url(#SVGID_00000103245851964251832280000003652084821045637505_);}
	.st1{fill:#28A543;stroke:#000000;stroke-width:5;}
</style>
<g>
	<defs>
		<rect id="SVGID_1_" width="1920" height="381"/>
	</defs>
	<clipPath id="SVGID_00000063608474068646383360000002282009589894538409_">
		<use xlink:href="#SVGID_1_"  style="overflow:visible;"/>
	</clipPath>
	<g style="clip-path:url(#SVGID_00000063608474068646383360000002282009589894538409_);">
		<path class="st1" d="M632.6,67.7c-5.9,6.2-10.7,11.2-18.3,15.6l-0.3,0l-7.2-9.2c0,0-8.6,12.3-14,7.2c-3.3-3.1-4.6-12.3-4.6-12.3
			s-5,24.3-12.9,16.2c-5.1-5.2-4.2-10.8-3.1-17.5c0.5-3.1,1.1-6.5,1.1-10.3c0-4.2-0.4-9.5-0.9-14.2c-0.2-1.7-2.7-1.8-3,0
			c-2.4,14.9-7.4,40.3-14.7,44.4c-2.3-0.4-4.3-0.8-5.6-1.1c-0.4-0.4-0.9-0.9-1.3-1.4c-3.6-4.7-7.1-14.3-7.1-14.3s-4.1,14.7-10.6,16
			c-5,1-7.2-6.9-8.2-15.9c-0.1-0.6-4-0.9-4.1-0.3c-3.3,14.3-9,29.2-17.6,22.8c-5-3.7-10.3-13.9-10.3-13.9s-7.5,26.1-15.8,19.7
			c-4.4-3.4-7.2-14.6-7.2-14.6s-7.8,4.7-13.1,2.9c-8.5-2.9-14.8-23.7-14.8-23.7s-3.8,27.5-12.8,23.8c-1.5-0.6-2.5-1.7-3.5-2.8
			c-0.9-1-1.8-2-3.1-2.7c-10.4-5.7-23.8,14.2-23.8,14.2s0.8-25.3-5.9-23.5c-3.1,0.8-3.2,4.5-3.3,8.5c-0.1,2.9-0.2,6-1.4,8.4
			c-3.6,7.2-12.9,14-12.9,14s-7.8-12.8-14-12.8c-3.5,0-4.6,4.6-5.7,9c-1.1,4.6-2.1,9-5.8,8.1c-0.6-0.2-1.2-0.4-1.7-0.8l-2-4.1
			c-0.4-0.2-0.8-0.4-1.2-0.7c-0.2-0.4-0.3-0.8-0.5-1.2c-1.2-2.9-2.5-5.9-5.1-7.1c-2.3-1.1-4-0.2-5.3,1.7c-2.3-0.8-4.3-0.6-5.6,1.8
			c-1.3,2.5-0.5,5.6,0.3,8.7c0.2,0.6,0.3,1.2,0.5,1.8c-0.2,0.4-0.3,0.8-0.5,1.2l0.9,3.9c-0.2,0.6-0.4,1.2-0.9,1.8
			c-2.3,3-5.9,0.2-9.6-2.8c-3.6-2.8-7.3-5.8-10.1-3.6c-4.9,3.8-3.1,18.7-3.1,18.7s-11.5,0.5-18.8-3c-2.4-1.2-4.4-3.5-6.3-5.8
			c-2.6-3.1-4.9-5.9-7.8-4.7c-6.4,2.7,9.8,22.1,9.8,22.1s-22.8-7.3-27.5,3.5c-0.6,1.4-0.7,2.7-0.8,4c-0.1,1.5-0.2,3-1,4.4
			c-4.8,8.6-24.8-10.8-24.8-10.8s7.9,20.3,3,27.8c-3.1,4.7-12.1,5.8-12.1,5.8s4.7,10.5,3.4,15.9c-2.6,10.2-24.6-5.7-24.6-5.7
			s2.1,11.4,0.5,17.3c-2.8,10.3-16.5,2.1-27.9-7.1c-0.5-0.4-3.4,2.2-3.1,2.8c4.8,7.6,8,15.2,3.4,17.5c-5.9,3-18.2-6-18.2-6
			s3.2,9.7,3.2,15.6c0.1,17.9-28.4-6.3-42.7-19.5c-1.3-1.2-3.2,0.4-2.3,1.9c2.5,4,5.4,8.4,8,11.7c2.3,2.9,4.8,5.3,7.2,7.4
			c5,4.6,9.2,8.4,8.4,15.7c-1.2,11.2-20.1-4.8-20.1-4.8s4.7,8,4,12.5c-1.1,7.2-15.4,2.9-15.4,2.9l0.1,11.7l-16.1,9.4l0.5,1l-4.9,3.2
			l-10.4-5.2c0,0-2.5,14.8-9.5,12.5c-4.4-1.4-9.5-9.1-9.5-9.1s6,24.1-4.6,20.2c-6.8-2.5-8.4-8-10.3-14.5c-0.9-3.1-1.9-6.4-3.5-9.7
			c-1.8-3.8-4.5-8.4-7-12.4c-0.9-1.5-3.2-0.4-2.7,1.3c5.5,18.7,14.6,55-1.4,47c-5.3-2.7-12.6-9.8-12.6-9.8s2.6,15.1-2.7,19
			c-4.1,3.1-9.5-3.1-14.2-10.8c-0.3-0.6-4,0.9-3.9,1.5c3.2,14.4,4.5,30.2-6,28.2c-6-1.2-15.3-8.1-15.3-8.1s4.5,26.8-5.8,24.6
			c-5.5-1.2-12.8-10.1-12.8-10.1s-5,7.6-10.5,8.3c-8.9,1.1-23.6-15-23.6-15s8.5,26.5-1.3,27c-1.6,0.1-3-0.5-4.4-1
			c-1.2-0.5-2.5-1-4-1.1c-11.8-0.6-15.3,23.1-15.3,23.1s-10.2-23.1-15.5-18.6c-2.4,2.1-0.9,5.4,0.7,9.1c1.2,2.6,2.4,5.5,2.4,8.2
			c-0.1,8.1-5.6,18.2-5.6,18.2s-12.5-8.1-18.1-5.5c-3.2,1.5-2.2,6.1-1.2,10.6c1,4.6,2,9.1-1.8,9.8c-2.8,0.6-5.3-1.6-7.8-3.8
			c-2.4-2.1-4.8-4.2-7.6-4.2c-5.2,0.1-4.4,6-3.6,12.2c0.3,2.1,0.6,4.2,0.6,6.1l72.8,150h2185.4l77.1-150c0.1-1.9,0.3-4,0.6-6.1
			c0.8-6.1,1.6-12.1-3.6-12.2c-2.8-0.1-5.3,2.1-7.6,4.2c-2.5,2.2-5,4.4-7.8,3.8c-3.7-0.8-2.8-5.2-1.8-9.8c1-4.5,2-9.1-1.2-10.6
			c-5.6-2.7-18.1,5.5-18.1,5.5s-5.5-10.1-5.6-18.2c0-2.7,1.2-5.5,2.4-8.2c1.7-3.7,3.1-7,0.7-9.1c-5.2-4.5-15.4,18.6-15.4,18.6
			s-3.5-23.7-15.3-23.1c-1.5,0.1-2.7,0.6-4,1.1c-1.4,0.6-2.7,1.1-4.3,1c-9.8-0.5-1.3-27-1.3-27s-14.7,16.1-23.6,15
			c-5.5-0.7-10.5-8.3-10.5-8.3s-7.3,8.9-12.8,10.1c-10.2,2.2-5.8-24.6-5.8-24.6s-9.2,6.9-15.3,8.1c-10.5,2-9.2-13.8-6-28.2
			c0.2-0.6-3.5-2.1-3.8-1.5c-4.7,7.7-10.1,13.9-14.2,10.8c-5.3-4-2.7-19-2.7-19s-7.3,7.2-12.6,9.8c-16,8-7-28.3-1.4-47
			c0.5-1.7-1.8-2.7-2.7-1.3c-2.5,4-5.2,8.6-7,12.4c-1.6,3.4-2.6,6.7-3.5,9.7c-1.9,6.5-3.5,12-10.3,14.5c-10.6,3.9-4.6-20.2-4.6-20.2
			s-5.1,7.7-9.5,9.1c-7,2.2-9.5-12.5-9.5-12.5l-10.4,5.2l-4.9-3.2l0.5-1l-16.1-9.4l0-11.7c0,0-14.3,4.3-15.4-2.9
			c-0.7-4.5,4-12.5,4-12.5s-19,16-20.1,4.8c-0.8-7.2,3.4-11.1,8.4-15.7c2.3-2.2,4.9-4.5,7.2-7.4c2.6-3.3,5.5-7.8,8-11.7
			c0.9-1.5-1-3-2.3-1.9c-14.3,13.3-42.8,37.4-42.7,19.5c0-5.9,3.2-15.6,3.2-15.6s-12.3,9-18.2,6c-4.6-2.3-1.4-9.9,3.4-17.5
			c0.3-0.6-2.6-3.2-3.1-2.8c-11.4,9.2-25.1,17.4-27.9,7.1c-1.6-5.9,0.5-17.3,0.5-17.3s-22.1,15.9-24.6,5.7
			c-1.4-5.4,3.3-15.9,3.3-15.9s-9-1.1-12.1-5.8c-4.9-7.5,3-27.8,3-27.8s-20,19.4-24.8,10.8c-0.8-1.4-0.9-2.9-1-4.4
			c-0.1-1.3-0.2-2.7-0.8-4c-4.7-10.9-27.5-3.5-27.5-3.5s16.2-19.4,9.8-22.1c-2.9-1.2-5.2,1.6-7.8,4.7c-1.8,2.2-3.8,4.6-6.3,5.8
			c-7.3,3.5-18.8,3-18.8,3s1.8-14.8-3.1-18.7c-2.8-2.2-6.5,0.7-10.1,3.6c-3.7,2.9-7.3,5.8-9.6,2.8c-0.4-0.5-0.7-1.1-0.8-1.8l0.9-3.9
			c-0.2-0.4-0.4-0.8-0.5-1.2c0.1-0.6,0.3-1.2,0.5-1.8c0.8-3.1,1.6-6.2,0.3-8.7c-1.2-2.4-3.2-2.6-5.6-1.8c-1.3-1.9-2.9-2.8-5.3-1.7
			c-2.6,1.2-3.8,4.1-5.1,7.1c-0.2,0.4-0.3,0.8-0.5,1.2c-0.4,0.2-0.8,0.5-1.2,0.7l-2,4.1c-0.5,0.4-1,0.6-1.7,0.8
			c-3.7,0.9-4.7-3.5-5.8-8.1c-1.1-4.5-2.2-9-5.7-9c-6.2,0-14,12.8-14,12.8s-9.3-6.7-12.9-14c-1.2-2.4-1.3-5.5-1.4-8.4
			c-0.1-4-0.2-7.6-3.2-8.5c-6.7-1.8-5.9,23.5-5.9,23.5s-13.4-19.8-23.8-14.2c-1.3,0.7-2.2,1.7-3.1,2.7c-1,1.1-2,2.2-3.5,2.8
			c-9.1,3.7-12.8-23.8-12.8-23.8s-6.3,20.8-14.8,23.7c-5.3,1.8-13.1-2.9-13.1-2.9s-2.8,11.2-7.2,14.6c-8.3,6.4-15.8-19.7-15.8-19.7
			s-5.3,10.2-10.3,13.9c-8.6,6.4-14.3-8.5-17.6-22.8c-0.2-0.6-4.1-0.3-4.1,0.3c-0.9,8.9-3.1,16.9-8.2,15.9c-6.5-1.3-10.6-16-10.6-16
			s-3.5,9.6-7.1,14.3c-11,14.1-18.5-22.5-21.6-41.8c-0.3-1.7-2.8-1.7-3,0c-0.5,4.6-0.9,9.9-0.9,14.2c0,3.7,0.6,7.1,1.1,10.3
			c1.1,6.7,2,12.3-3.1,17.5c-7.9,8.1-12.9-16.2-12.9-16.2s-1.3,9.2-4.6,12.3c-5.3,5-14-7.2-14-7.2l-7.2,9.2l-18.5-2.5l-0.9,4.3
			l-11.2-0.7l-6.8-10.5c0,0-15.1,10-20.7,4c-3.5-3.8-2.5-13-2.5-13s-13.9,22.5-21.9,13c-5.2-6.2-2.3-11.4,1.1-17.7
			c1.6-2.9,3.3-6.1,4.4-9.7c1.5-4.9,2.6-11.5,3.3-16.6c0.2-1.7-2-2.4-2.8-0.9c-9,17-31.6,55.8-42.5,38.8c-3.4-5.3-5.2-15.4-5.2-15.4
			s-9.8,13.4-18.8,13.3c-8.3-0.1-7.6-11.7-5.2-22.2c0.1-0.6-2.8-1.9-3.2-1.3c-8.7,14.5-22.5,32.6-33.3,23.5
			c-5.5-4.6-9.6-15.7-9.6-15.7s-17.7,23.7-26.9,15.7c-4.9-4.3-5.2-15.7-5.2-15.7s-11.7,2.9-18.2,0c-10.4-4.6-12.7-26.2-12.7-26.2
			S1114,53.6,1103,48c-1.8-0.9-2.8-2.2-3.8-3.5c-0.9-1.2-1.8-2.3-3.3-3.3c-12.1-7.8-35.8,8.6-35.8,8.6s8.5-24.4-0.9-24.1
			c-4.3,0.2-5.5,3.7-6.8,7.5c-0.9,2.8-2,5.8-4.3,7.9c-6.9,6.3-21.3,10.8-21.3,10.8s-6.6-14.1-14.8-15.4c-4.7-0.8-7.5,3.5-10.2,7.6
			c-2.8,4.2-5.5,8.3-10.2,6.6c-3.5-1.3-4.3-4.5-5.2-7.8c-0.8-3.1-1.6-6.2-4.7-7.9c-5.6-3.1-9.8,2-14,7.3c-4.2,5.2-8.5,10.5-14.4,8.4
			c-4.5-1.6-5.9-5.5-7.3-9.5c-1.4-3.8-2.8-7.7-6.9-9.6c-6.1-2.8-14.3,3.7-20.8,8.9c-6.4,5.1-11.3,8.9-11.3,1.9V6.1
			c0-5.8-2.1-1.9-5.5,4.5c-5,9.3-12.7,23.7-20.7,21.1c-4.1-1.4-5.6-4.8-7.1-8.3c-1.5-3.4-2.9-6.8-6.8-8.4
			c-7.5-3.1-12.1,5.7-16.6,14.1c-4.5,8.4-8.8,16.6-15.5,12.1c-1.9-1.2-2.7-3-3.6-4.7c-1-2.1-1.9-4-4.5-4.8c-3.9-1.2-5.6,3.2-7.3,7.6
			c-1.7,4.4-3.4,8.8-7.2,7.5c-4.2-1.4-2.3-5.5-0.3-10c2-4.4,4.1-9.1,1.2-12.2c-2-2.1-4.9,3.3-8.7,10.4
			c-6.1,11.5-14.5,27.5-25.9,24.4c-3.4-1-5.5-3.6-7.4-6.2c-2.3-3-4.5-5.8-8.6-5.5c-3.4,0.2-5.3,3.7-7,6.9c-1.9,3.5-3.6,6.6-6.8,4.8
			c-5-2.8-4.8-7.4-3.1-14.2c2.8-11.5,4.5-33.3,0-30.2c-1.7,1.1-3.7,5.4-6.3,10.9c-3.8,8.1-8.9,18.9-16,26.1
			c-2.1,2.1-3.9,4.4-5.6,6.6c-5,6.3-9.5,11.9-17.9,10.7c-3.5-0.5-5.5-2.7-7.4-4.9c-2-2.2-4-4.4-7.4-4.9c-4.5-0.7-7.6,2.3-10.7,5.3
			c-3.3,3.1-6.4,6.2-10.9,4.6c-6.5-2.2-6.6-12.1-6.6-19.2c0-4.2-0.1-7.4-1.4-7.6c-2.1-0.3-5.1,3.9-8.6,8.9
			c-2.5,3.6-5.4,7.5-8.3,10.5C636.2,64,634.3,65.9,632.6,67.7z"/>
	</g>
</g>
</svg>
