<?xml version="1.0" encoding="utf-8"?>
<!-- Generator: Adobe Illustrator 28.4.1, SVG Export Plug-In . SVG Version: 6.00 Build 0)  -->
<svg version="1.1" id="Layer_1" xmlns="http://www.w3.org/2000/svg" xmlns:xlink="http://www.w3.org/1999/xlink" x="0px" y="0px"
	 viewBox="0 0 646 497" style="enable-background:new 0 0 646 497;" xml:space="preserve">
<style type="text/css">
	.st0{clip-path:url(#SVGID_00000044881466561021427650000013007478806828108950_);}
	.st1{fill-rule:evenodd;clip-rule:evenodd;fill:#FFFFFF;}
	.st2{fill:#FCB725;}
	.st3{fill:#090805;}
	.st4{fill:#FCB625;}
	.st5{fill:#FDFDFD;}
	.st6{fill:#FAB524;}
	.st7{fill:#F9B424;}
	.st8{fill:#F8B324;}
	.st9{fill:#0D0902;}
	.st10{fill:#0F0B02;}
</style>
<g>
	<defs>
		<rect id="SVGID_1_" width="646" height="497"/>
	</defs>
	<clipPath id="SVGID_00000128475239411699299650000012572219169784519569_">
		<use xlink:href="#SVGID_1_"  style="overflow:visible;"/>
	</clipPath>
	<g style="clip-path:url(#SVGID_00000128475239411699299650000012572219169784519569_);">
		<path class="st1" d="M500.1,11.3C592,28.4,654.3,62.6,641.3,132.5c-12,64.7-81,66.6-172.9,49.5c-5.3-1-10.5-2-15.6-3
			c-9.5,5-20.1,9.5-28.6,13.2c-0.7,0.3-1.5,0.6-2.2,0.9c-13.7,5.9-33.7,3.9-54.8,0c-21.9-4-55.3-18.1-53.2-20.7
			c0.4-0.5,3.9,0.4,9.2,1.8c10.7,2.8,28.8,7.6,42.3,6.2c12.1-1.3,19.2-2.4,30-8c2.9-1.5,5.7-3.5,8.4-5.8
			c-56.1-17.5-90.4-44.2-81.3-93.5C334.9,7.1,408.3-5.8,500.1,11.3z"/>
		<path d="M452.8,179l0.5-2.2l-0.8-0.2l-0.7,0.4L452.8,179z M422,193.2l-0.9-2.1h0L422,193.2z M403.9,166.8l1.5,1.8l3.2-2.7l-4-1.2
			L403.9,166.8z M643.5,132.9c3.3-17.9,1.9-33.6-3.8-47.3c-5.6-13.8-15.4-25.4-28.3-35.3c-25.9-19.8-64.8-32.6-110.9-41.2l-0.8,4.5
			c45.8,8.5,83.9,21.3,108.9,40.3c12.5,9.5,21.6,20.6,26.9,33.4c5.3,12.8,6.7,27.6,3.5,44.7L643.5,132.9z M467.9,184.3
			c46,8.6,86.6,12.4,117.3,5.9c15.4-3.3,28.4-9.2,38.4-18.6c10-9.4,16.8-22.1,19.9-38.7l-4.5-0.8c-2.9,15.8-9.3,27.5-18.5,36.2
			c-9.2,8.6-21.4,14.3-36.2,17.4c-29.8,6.3-69.6,2.6-115.5-5.9L467.9,184.3z M452.4,181.2c5.1,1,10.3,2.1,15.6,3l0.8-4.5
			c-5.3-1-10.4-2-15.5-3L452.4,181.2z M425.1,194.4c8.6-3.7,19.2-8.3,28.8-13.3l-2.1-4.1c-9.4,4.9-19.9,9.5-28.5,13.2L425.1,194.4z
			 M422.9,195.3c0.7-0.3,1.4-0.6,2.2-0.9l-1.8-4.2c-0.7,0.3-1.5,0.6-2.2,0.9L422.9,195.3z M366.8,195.4c10.6,1.9,21,3.4,30.5,3.7
			c9.5,0.3,18.3-0.7,25.6-3.8l-1.8-4.2c-6.4,2.8-14.5,3.7-23.6,3.5c-9.2-0.3-19.3-1.7-29.8-3.6L366.8,195.4z M312.2,171.1
			c-0.9,1.2-0.5,2.5-0.2,3.2c0.3,0.6,0.9,1.1,1.3,1.5c0.9,0.8,2.3,1.7,3.9,2.5c3.3,1.8,8.1,4,13.5,6.2c10.9,4.4,24.9,9,36,11
			l0.8-4.5c-10.8-2-24.4-6.4-35.2-10.8c-5.4-2.2-9.9-4.2-13-5.9c-1.6-0.9-2.6-1.5-3.2-2c-0.3-0.3-0.3-0.3-0.3-0.2
			c0.1,0.1,0.5,1-0.2,1.9L312.2,171.1z M323.8,172.1c-2.6-0.7-4.9-1.3-6.5-1.6c-0.8-0.2-1.6-0.3-2.2-0.4c-0.3,0-0.7,0-1.1,0
			c-0.3,0-1.2,0.2-1.8,1l3.6,2.8c-0.3,0.4-0.6,0.6-0.8,0.6c-0.2,0.1-0.3,0.1-0.4,0.1c-0.1,0-0.1,0,0.1,0c0.3,0,0.8,0.1,1.6,0.3
			c1.5,0.3,3.7,0.9,6.3,1.6L323.8,172.1z M365.3,178.2c-13.1,1.4-30.6-3.2-41.5-6.1l-1.2,4.4c10.6,2.8,29.1,7.7,43.2,6.2
			L365.3,178.2z M394.4,170.5c-10.4,5.4-17.2,6.5-29.2,7.8l0.5,4.6c12.2-1.3,19.7-2.5,30.8-8.2L394.4,170.5z M402.4,165
			c-2.6,2.2-5.3,4.1-8,5.5l2.1,4.1c3-1.6,6-3.7,8.8-6L402.4,165z M320.4,72.8c-4.7,25.3,1.8,45.1,16.8,60.7
			c14.9,15.5,37.9,26.7,66.1,35.4l1.4-4.4c-27.9-8.7-50.1-19.6-64.1-34.2c-13.9-14.5-20-32.7-15.6-56.7L320.4,72.8z M500.5,9.1
			c-46.1-8.6-87.8-9.7-119.7-0.2c-32,9.5-54.2,29.9-60.5,63.9l4.5,0.8c6-32.1,26.6-51.3,57.3-60.4c30.8-9.2,71.7-8.2,117.5,0.3
			L500.5,9.1z"/>
	</g>
</g>
<g>
	<g>
		<path class="st2" d="M318.9,242.4c-5.3-22.2-14.7-42.7-27.4-61.6c-0.4-0.7-0.8-1.5-0.8-2.3c-0.1-5.6-0.1-11.1-0.2-16.7
			c0-1.4,0.4-2,1.6-2.7c8.2-4.3,14-10.8,17.3-19.5c2.9-7.4,3.6-15.1,2.7-23c-1.3-11.3-6.2-20.7-15.6-27.4c-4.5-3.2-9.7-4.8-15-5.9
			c-1.5-0.3-2.3-1-3.1-2.2c-3.6-5.3-6.8-11-11.2-15.5c-10.8-11.2-23.6-19.8-38.3-25.4c-19.4-7.4-39.8-9.6-60.3-10.9
			c-17.5-1.1-34.5,2.7-51,8.2C86.3,48.2,64,68.5,51.8,99.3c-6,15.1-8.1,31.2-9.1,47.2c-1,16.8-0.4,33.7-0.6,50.6
			c0,1.4-0.3,2.8-0.6,4.2c-2.6,10-5.5,20-7.8,30.1c-3.5,15-3.9,30.2-0.2,45.3c0.2,1,0.4,2.1,0.7,3.2c-3.8-0.7-5.8-3.2-7.8-5.9
			c-3.6-5.2-8.3-8.8-14.8-9.8c-0.6-0.1-1.3,0.2-2,0.3c0.2,0.6,0.3,1.2,0.6,1.7c2.5,3.5,4.4,7.2,5.6,11.4c1,3.2,2.1,6.3,3.4,9.4
			c4.4,10.9,12.1,18.1,23.8,20.7c0.6,0.1,1.3,0.8,1.7,1.4c5,9.6,11.5,18.1,19.4,25.4c5.4,5.1,11.2,9.9,16.7,14.8
			c0.6,0.5,1.3,1.2,1.6,1.9c6,15,11.2,30.1,11.8,46.5c0.5,15.2,0.3,30.3-3,45.3c-1.2,5.5-3,10.6-5.3,15.7c-2.8,6.1-1.5,10,4.2,13.7
			c4.9,3.2,10.1,5.5,15.9,6.4c4.5,0.7,8.7,0.7,12.6-2.1c4.4-3.1,5.3-8.6,1.8-12.6c-1.6-1.8-3.7-3.3-5.7-4.7
			c-1.3-0.9-2.8-1.6-4.2-2.3c9.7-32.7,12.3-65.4,1.8-98.5c0.5,0.1,0.7,0.1,0.9,0.1c15.4,5.6,31.4,7.6,47.8,7.8
			c15.4,0.2,30.6-0.8,45.4-5.3c5-1.5,9.8-3.6,14.8-5.5c0.2,0.4,0.4,0.9,0.5,1.3c2.9,7.5,4,15.2,4.5,23.2c1.5,25.2-0.6,49.9-8.1,74
			c-1.1,3.7,0.2,6.6,3.7,8.5c7.3,3.9,15.3,5.7,23.5,5.8c3.5,0,6.5-1.5,8.8-4.1c2.9-3.3,2.7-8-0.7-10.8c-1.4-1.1-3.1-1.9-4.7-2.7
			c-2.3-1-4.7-1.9-7.1-2.9c0.2-0.8,0.3-1.3,0.5-1.9c4.8-15.8,6.8-32,7-48.5c0.2-16.5-2.1-32.7-6-48.7c-0.3-1.4,0-2.1,1.1-2.8
			c8.5-5.4,15-12.8,20.5-21.2c7-10.7,11-22.5,13.7-34.8c0.9-4.1,1.8-8.1,2.7-12.3c0.3,0.2,0.6,0.2,0.8,0.4c4.6,3.3,9.9,4.9,15.4,5.9
			c12.2,2.1,22.5-5.9,23.5-18.2C321.4,258,320.8,250.2,318.9,242.4z M285.7,254.8c-0.3-0.2-0.4-0.9-0.3-1.4
			c1.2-11.3,2.4-22.6,3.6-33.9c0,0,0.1,0,0.2-0.1c0.1,0,0.2,0,0.2,0c5.1,10.2,10.2,20.4,11.6,32c0.2,1.5,0.1,3.1-0.1,4.7
			c-0.4,2.9-2.2,4.3-5,3.8C291.9,259.3,288.8,257.1,285.7,254.8z"/>
		<path class="st3" d="M318.9,242.4c-5.3-22.2-14.7-42.7-27.4-61.6c-0.4-0.7-0.8-1.5-0.8-2.3c-0.1-5.6-0.1-11.1-0.2-16.7
			c0-1.4,0.4-2,1.6-2.7c8.2-4.3,14-10.8,17.3-19.5c2.9-7.4,3.6-15.1,2.7-23c-1.3-11.3-6.2-20.7-15.6-27.4c-4.5-3.2-9.7-4.8-15-5.9
			c-1.5-0.3-2.3-1-3.1-2.2c-3.6-5.3-6.8-11-11.2-15.5c-10.8-11.2-23.6-19.8-38.3-25.4c-19.4-7.4-39.8-9.6-60.3-10.9
			c-17.5-1.1-34.5,2.7-51,8.2C86.3,48.2,64,68.5,51.8,99.3c-6,15.1-8.1,31.2-9.1,47.2c-1,16.8-0.4,33.7-0.6,50.6
			c0,1.4-0.3,2.8-0.6,4.2c-2.6,10-5.5,20-7.8,30.1c-3.5,15-3.9,30.2-0.2,45.3c0.2,1,0.4,2.1,0.7,3.2c-3.8-0.7-5.8-3.2-7.8-5.9
			c-3.6-5.2-8.3-8.8-14.8-9.8c-0.6-0.1-1.3,0.2-2,0.3c0.2,0.6,0.3,1.2,0.6,1.7c2.5,3.5,4.4,7.2,5.6,11.4c1,3.2,2.1,6.3,3.4,9.4
			c4.4,10.9,12.1,18.1,23.8,20.7c0.6,0.1,1.3,0.8,1.7,1.4c5,9.6,11.5,18.1,19.4,25.4c5.4,5.1,11.2,9.9,16.7,14.8
			c0.6,0.5,1.3,1.2,1.6,1.9c6,15,11.2,30.1,11.8,46.5c0.5,15.2,0.3,30.3-3,45.3c-1.2,5.5-3,10.6-5.3,15.7c-2.8,6.1-1.5,10,4.2,13.7
			c4.9,3.2,10.1,5.5,15.9,6.4c4.5,0.7,8.7,0.7,12.6-2.1c4.4-3.1,5.3-8.6,1.8-12.6c-1.6-1.8-3.7-3.3-5.7-4.7
			c-1.3-0.9-2.8-1.6-4.2-2.3c9.7-32.7,12.3-65.4,1.8-98.5c0.5,0.1,0.7,0.1,0.9,0.1c15.4,5.6,31.4,7.6,47.8,7.8
			c15.4,0.2,30.6-0.8,45.4-5.3c5-1.5,9.8-3.6,14.8-5.5c0.2,0.4,0.4,0.9,0.5,1.3c2.9,7.5,4,15.2,4.5,23.2c1.5,25.2-0.6,49.9-8.1,74
			c-1.1,3.7,0.2,6.6,3.7,8.5c7.3,3.9,15.3,5.7,23.5,5.8c3.5,0,6.5-1.5,8.8-4.1c2.9-3.3,2.7-8-0.7-10.8c-1.4-1.1-3.1-1.9-4.7-2.7
			c-2.3-1-4.7-1.9-7.1-2.9c0.2-0.8,0.3-1.3,0.5-1.9c4.8-15.8,6.8-32,7-48.5c0.2-16.5-2.1-32.7-6-48.7c-0.3-1.4,0-2.1,1.1-2.8
			c8.5-5.4,15-12.8,20.5-21.2c7-10.7,11-22.5,13.7-34.8c0.9-4.1,1.8-8.1,2.7-12.3c0.3,0.2,0.6,0.2,0.8,0.4c4.6,3.3,9.9,4.9,15.4,5.9
			c12.2,2.1,22.5-5.9,23.5-18.2C321.4,258,320.8,250.2,318.9,242.4z M304.3,101.9c3.5,6.4,5.5,13.1,5.2,18.1
			c-0.1,13.1-2.8,22.8-10.6,30.5c-0.8,0.8-1.9,1.5-2.9,1.8c-7.3,1.9-14.7,3.4-22.2,1c-1.8-0.6-3.7-1.4-5.4-2.4c-3-1.8-4.8-4-5.1-7.9
			c-0.9-11.2-5.9-20.7-13.1-29.2c-0.5-0.5-0.7-1.5-0.6-2.2c2.2-13.9,15.4-22.4,26.6-24.4C288.5,85.1,299.9,94,304.3,101.9z
			 M289.3,219.5c5.1,10.2,10.2,20.4,11.6,32c0.2,1.5,0.1,3.1-0.1,4.7c-0.4,2.9-2.2,4.3-5,3.8c-3.8-0.7-7-2.8-10-5.1
			c-0.3-0.2-0.4-0.9-0.3-1.4c1.2-11.3,2.4-22.6,3.6-33.9c0,0,0.1,0,0.2-0.1C289.2,219.5,289.3,219.5,289.3,219.5z M228.5,130
			c-1.7-1.1-3.6-2-5.5-2.4c-6.6-1.4-13.2-1.5-19.8,0.6c-1.2,0.4-2.3,0.9-3.4,1.5c-7.2,3.9-7.9,12.2-1.3,17.2
			c1.2,0.9,1.5,1.7,1.5,3.1c-0.2,6.5-0.3,12.9-2,19.3c-2.3,8.8-7.3,13.4-16,14.7c-7.9,1.2-15.8-2.7-19.9-9.8
			c-3.6-6.3-4.5-13.2-4.1-20.3c0.4-7.8,2.3-15.4,5.2-22.6c6.3-15.3,18.3-23.9,34.2-27.2c4.6-1,9.3-1.2,14.7-1.8
			c4.9,0.7,10.5,1,15.9,2.3c17.8,4.6,27.7,17,31.7,34.3c2.1,9.2,2.4,18.5-0.3,27.7c-1,3.4-2.6,6.5-5,9.2c-5.4,6.2-18.1,6.9-23-3
			c-2.9-5.9-3.7-12.2-4.5-18.5c-0.1-1-0.2-2-0.3-2.9c-0.3-2.4-0.2-4.1,2.4-5.8C234.1,142.4,233.6,133.5,228.5,130z M225.1,163
			c-7.5,3-15.1,3.1-22.9,0.5c0.2-4.8,0.5-9.6,0.7-13.8c3.5,0,6.9,0.2,10.2,0c3.4-0.2,6.7-0.8,10.2-1.2
			C224,153.2,224.5,158,225.1,163z M155.1,153.6c-0.1,0.9-0.7,2-1.3,2.5c-6.3,5.3-13.8,6-21.6,5.2c-17.2-1.7-29-16.9-29.5-33.8
			c0-0.9,0-1.8,0-2.8c-0.3-16.4,10.1-33.4,31.6-35.8c4.4-0.5,9,0,13.5,0.3c1.4,0.1,2.9,0.8,4.2,1.5c9.4,5.1,15,13.2,18.3,23
			c0.2,0.5-0.1,1.3-0.4,1.7C159.8,126.3,156.7,139.7,155.1,153.6z M42.3,304.6c-1.4-0.5-2.8-0.8-4.1-1.4c-7.5-3.6-13.1-9-16-16.9
			c-1-2.6-1.7-5.2-2.9-7.7c-1.9-4-4.1-7.9-6.1-11.9c0,0-0.1,0-0.1,0c0,0,0,0,0-0.1c0,0-0.1,0-0.1-0.1c0,0,0-0.1,0-0.1
			c0,0.1,0,0.1,0.1,0.2c0,0,0,0,0.1,0c0,0,0,0,0,0c1.2,0.5,2.7,0.7,3.6,1.5c2.6,2.4,5.3,4.7,7.3,7.5c2.6,3.5,5.6,6.1,9.9,7.3
			c0.6,0.2,1.3,0.7,1.5,1.3c2.3,6.5,4.6,13,6.9,19.6C42.3,304,42.3,304.1,42.3,304.6z M277.5,280.4c-1.9,6.9-3.2,14-5.2,20.9
			c-3.5,12.4-9.9,23.4-18.5,32.9c-3.7,4.1-8.4,7.2-12.9,10.5c-1.4,1-1.7,1.8-1.3,3.4c4.6,18.9,7.1,38,6,57.5
			c-0.8,13.6-2.6,27-6.7,40.1c-1.1,3.4-0.5,4.5,2.8,5.9c2.5,1,5,1.9,7.4,3c4.6,2.2,5,6.7,0.7,9.4c-1.5,0.9-3.4,1.6-5.1,1.6
			c-7.6,0.1-14.9-1.7-21.7-5.2c-2.7-1.4-3.3-2.9-2.5-5.8c6.9-22.6,9.4-45.8,8.3-69.4c-0.5-10.3-1.2-20.5-5.1-30.2
			c-0.2-0.4,0.3-1.4,0.8-1.8c1.5-1.1,3.1-2.1,4.6-3.1c-0.1-0.2-0.2-0.4-0.3-0.6c-0.7,0.3-1.5,0.5-2.2,0.8
			c-11.6,5.4-23.7,9.4-36.4,11.3c-13.5,2.1-27.1,2-40.7,1.3c-13.3-0.7-26.1-3.8-38.6-8.1c-0.7-0.2-1.9-0.3-2.3,0.1
			c-0.4,0.4-0.3,1.6-0.1,2.3c1.9,8.1,4.7,16.1,5.8,24.4c2.7,19.5,1.7,39-2.8,58.2c-1.2,5.3-2.8,10.6-4.3,15.9
			c-0.5,1.8-0.2,2.8,1.5,3.8c2.8,1.6,5.8,3.1,8.2,5.3c3.8,3.4,2.9,7.8-1.6,10.2c-3.5,1.9-7.1,1.1-10.7,0.4c-4.8-0.9-9-3-13.1-5.6
			c-4.5-2.9-5.2-5.3-3.2-10.3c1.3-3.1,2.9-6.2,3.8-9.4c4.6-16.1,5.2-32.7,4.9-49.4c-0.3-18.1-5.5-34.9-12.3-51.3
			c-0.4-0.8-1.1-1.6-1.8-2.2c-3.6-3.1-7.2-6.3-10.9-9.3c-17.9-14.7-28.6-33.7-34.5-55.9c-4.6-17.3-5-34.5-0.9-51.8
			c2.3-9.5,5-18.9,7.5-28.4c0.4-1.7,0.7-3.4,0.7-5.2c0.1-16.1-0.5-32.2,0.4-48.2c0.9-16.4,3-32.8,9-48.2
			c11.8-29.9,33.5-49.7,63.9-60c14.8-5,30-8.8,45.7-8.2c22,0.8,44,3.2,64.8,11.3c13.9,5.4,25.8,13.8,36.3,24.2
			c4.3,4.2,7.4,9.4,10.7,15c-17.6-0.8-30,6.4-36.5,22.9c-10.8-5.5-22.3-6.4-34.1-5.7c-12.1,0.7-22.8,4.9-32.3,12.6
			c-0.3-0.6-0.6-1.1-0.8-1.7c-8.8-23.6-31.7-31.9-54-26c-19.3,5.2-29.4,20.6-30.5,38.1c-0.7,10.3,1.5,20.1,7.5,28.9
			c6.8,10,16.5,15.1,28.2,17c7.6,1.3,15.3,1.3,22.7-1.2c3.2-1.1,6.3-2.8,9.5-4.3c0.2,1,0.5,2.3,0.8,3.6c2.5,11,9.5,17.9,19.8,19.7
			c10.7,1.9,21.2-4.6,24.2-15.1c0.6-2,1-4,1.6-6.4c7.9,3.9,15.8,3.8,23.2-0.5c1.4,3.4,2.7,6.6,4.2,9.7c5.5,11.3,20.1,10.7,26.7,4
			c4.3-4.4,6.2-9.9,7.5-15.7c0.1-0.6,0.2-1.1,0.3-1.7c0-0.1,0.1-0.2,0-0.1c4,0.7,8,1.9,11.9,2c3.9,0.1,7.9-0.8,12-1.2
			c0.3,30.1-0.9,60.3-5.2,90.7c-0.8-0.5-1.4-0.9-1.9-1.3c-5.9-4.4-11.8-8.6-17.5-13.2c-5.2-4.1-11.1-6-17.5-5.9
			c-7.1,0.1-12.5,3.6-16.5,9.4c-1.4,2.1-1.2,4.1,0.3,6.2c0.5,0.7,0.7,1.6,0.8,2.5c0.2,2.1,0.9,3.6,2.9,4.5c0.6,0.2,1.1,0.9,1.3,1.5
			c1.1,2.6,2.7,3.5,5.3,2.4c1.8-0.8,3.5-2,5.2-3.2c4.6-3.1,5.5-3.1,9.7,0.5c6.8,5.8,13.3,11.8,20.4,17.2
			C277.7,275.2,278.5,277,277.5,280.4z M317.8,265.6c-1,11.5-10.1,17.8-21.6,15.5c-7.9-1.5-14.2-5.8-20.2-10.7
			c-6.5-5.3-12.7-10.9-19.1-16.3c-0.9-0.8-1.8-1.5-2.7-2.2c-2.9-2.2-5.8-2.3-8.9-0.4c-1.9,1.2-3.7,2.5-5.6,3.7
			c-0.6,0.4-1.5,0.3-2.3,0.5c0-0.9-0.3-2.1,0.2-2.7c1.3-1.7,3-3.2,4.5-4.8c0.5-0.5,1.1-0.9,1.7-1.4c-0.1-0.2-0.2-0.4-0.3-0.6
			c-0.6,0.1-1.3,0.1-1.7,0.5c-2.1,1.5-4.1,3-6.1,4.5c-0.5,0.3-1.2,0.7-1.6,0.6c-0.5-0.2-1-1-0.9-1.5c0.2-1.1,0.4-2.4,1.1-3.2
			c1.7-1.7,3.7-3.1,5.5-4.7c0.5-0.4,0.9-0.9,1.2-1.6c-2-0.3-3.3,1.2-4.7,2c-1.6,0.9-3,2-4.5,3.1c-1.3-1.1-0.8-2.3-0.1-3.2
			c4-5.1,9-8.1,15.8-7.6c5.4,0.5,10,2.4,14.3,5.7c8,6.1,16.1,12.1,24.3,17.9c2.2,1.6,4.9,2.9,7.5,3.8c5.6,1.9,9.9-1.1,10.2-7
			c0.4-7.7-1.8-14.9-4.8-21.8c-2.8-6.7-6.2-13.3-9.2-19.9c-0.2-0.4-0.4-0.8-0.3-1.3c0.4-9,0.8-18,1.1-27c0.2-0.2,0.3-0.3,0.5-0.5
			c0,0.3,0,0.6,0.1,0.8c12.3,18.9,21.1,39.3,25.7,61.5C318.2,253.3,318.4,259.4,317.8,265.6z"/>
		<path class="st4" d="M212.2,102.2c4.9,0.7,10.5,0.9,15.9,2.3c17.8,4.6,27.7,17,31.7,34.3c2.1,9.2,2.4,18.5-0.3,27.7
			c-1,3.4-2.6,6.5-5,9.2c-5.4,6.2-18.1,6.9-23-3c-2.9-5.9-3.6-12.2-4.5-18.5c-0.1-1-0.2-2-0.3-2.9c-0.3-2.4-0.2-4.1,2.4-5.7
			c5-3.2,4.6-12.2-0.5-15.6c-1.6-1.1-3.6-2-5.5-2.4c-6.6-1.4-13.2-1.5-19.8,0.6c-1.2,0.4-2.3,0.9-3.4,1.5
			c-7.2,3.9-7.9,12.2-1.3,17.2c1.1,0.9,1.5,1.7,1.5,3.1c-0.2,6.5-0.3,12.9-2,19.3c-2.3,8.8-7.3,13.4-16,14.7
			c-7.9,1.1-15.8-2.7-19.9-9.8c-3.6-6.3-4.5-13.2-4.1-20.3c0.4-7.8,2.3-15.4,5.3-22.6c6.3-15.3,18.3-23.9,34.2-27.2
			C202.1,103,206.8,102.8,212.2,102.2z"/>
		<path class="st5" d="M102.6,124.9c-0.3-16.4,10.1-33.4,31.6-35.8c4.4-0.5,9,0,13.4,0.3c1.4,0.1,2.9,0.8,4.2,1.5
			c9.3,5.1,15,13.2,18.3,23c0.2,0.5-0.1,1.3-0.4,1.7c-9.9,10.7-13.1,24.1-14.7,38.1c-0.1,0.9-0.6,2-1.3,2.5
			c-6.3,5.3-13.8,6-21.6,5.2c-17.2-1.7-29-16.9-29.5-33.8C102.6,126.7,102.6,125.8,102.6,124.9z"/>
		<path class="st5" d="M309.5,120c-0.1,13.1-2.8,22.8-10.6,30.6c-0.8,0.8-1.9,1.5-2.9,1.8c-7.3,2-14.7,3.4-22.2,1
			c-1.8-0.6-3.7-1.4-5.4-2.4c-3-1.7-4.8-4.1-5.1-7.9c-0.9-11.2-5.9-20.7-13.2-29.2c-0.5-0.5-0.7-1.5-0.6-2.2
			c2.2-13.9,15.4-22.4,26.5-24.4c12.4-2.2,23.8,6.7,28.2,14.6C307.8,108.3,309.8,115,309.5,120z"/>
		<path class="st6" d="M243.5,246.1c-0.6,0.1-1.3,0.1-1.7,0.5c-2.1,1.5-4.1,3-6.1,4.5c-0.5,0.3-1.2,0.7-1.6,0.6
			c-0.5-0.2-1-1-0.9-1.5c0.2-1.1,0.4-2.4,1.1-3.2c1.7-1.7,3.6-3.1,5.5-4.7c0.5-0.4,0.9-0.9,1.2-1.6c-2-0.3-3.3,1.2-4.7,2
			c-1.6,0.9-3,2-4.5,3.1c-1.3-1.1-0.8-2.3-0.1-3.2c4-5.1,9-8.2,15.9-7.6c5.4,0.5,10,2.4,14.3,5.7c8,6.1,16.1,12.1,24.3,17.9
			c2.2,1.6,4.9,2.9,7.5,3.8c5.6,1.9,9.9-1.1,10.1-7c0.4-7.7-1.8-14.9-4.8-21.8c-2.8-6.7-6.2-13.3-9.2-19.9c-0.2-0.4-0.4-0.9-0.3-1.3
			c0.4-9,0.7-18,1.1-27c0.2-0.2,0.3-0.3,0.5-0.5c0,0.3,0,0.6,0.1,0.8c12.3,18.9,21.1,39.3,25.7,61.5c1.3,6.1,1.4,12.2,0.9,18.3
			c-1,11.5-10.1,17.8-21.6,15.5c-7.9-1.5-14.2-5.8-20.2-10.7c-6.5-5.3-12.7-10.9-19.1-16.3c-0.9-0.8-1.8-1.5-2.7-2.2
			c-2.9-2.2-5.8-2.3-8.9-0.4c-1.9,1.2-3.6,2.5-5.5,3.7c-0.6,0.4-1.5,0.3-2.3,0.5c0-0.9-0.3-2.1,0.2-2.7c1.3-1.7,3-3.3,4.5-4.8
			c0.5-0.5,1.1-0.9,1.7-1.4C243.7,246.5,243.6,246.3,243.5,246.1z"/>
		<path class="st7" d="M203,149.7c3.5,0,6.9,0.2,10.2,0c3.4-0.2,6.7-0.8,10.2-1.2c0.6,4.8,1.2,9.6,1.8,14.6
			c-7.5,3-15.1,3.1-22.9,0.5C202.5,158.7,202.8,153.9,203,149.7z"/>
		<path class="st8" d="M13.1,266.7c1.2,0.5,2.7,0.7,3.6,1.5c2.6,2.4,5.3,4.7,7.3,7.5c2.6,3.5,5.6,6.1,9.8,7.3
			c0.6,0.2,1.3,0.7,1.5,1.3c2.3,6.5,4.6,13,6.9,19.6c0,0.1,0,0.3,0,0.7c-1.4-0.5-2.8-0.8-4.1-1.4c-7.5-3.6-13.1-9-16-16.9
			c-1-2.6-1.7-5.2-2.9-7.7C17.4,274.6,15.2,270.7,13.1,266.7L13.1,266.7z"/>
		<path class="st8" d="M13.1,266.7c0,0-0.1-0.1-0.1-0.1c0,0,0-0.1,0-0.1C13,266.6,13.1,266.6,13.1,266.7L13.1,266.7z"/>
		<path class="st9" d="M72.4,196.7c0.1,1,0.3,2,0.4,3c1.8,21,3.2,42.1,7.1,62.9c0.9,4.7,2.2,9.3,3.4,13.9
			c2.7,10.8,11.5,12.3,19.1,10.7c4-0.8,7.5-2.7,10.7-5.2c9.5-7.5,18.8-15.2,28.2-22.8c2.3-1.9,4.6-3.9,6.9-5.8
			c2.1-1.7,3.5-1.5,5.2,0.5c1,1.1,2,2.1,2.9,3.2c1,1.2,2,0.8,2.3-0.4c0.3-1.1,0.2-2.4-0.1-3.6c-0.3-1.2-1.1-2.2-1.7-3.3
			c-0.3-0.5-0.4-1.1-0.6-1.6c0.2-0.1,0.4-0.3,0.6-0.4c0.9,1.1,1.8,2.3,2.6,3.4c0.4,0.6,0.6,1.3,1.2,1.8c0.5,0.5,1.3,0.9,1.9,0.9
			c0.4,0,1-0.7,1.2-1.2c0.7-2,0.5-3.8-0.9-5.5c-0.8-0.9-1.5-2-2.3-3c0.1-0.1,0.2-0.2,0.3-0.4c0.4,0.1,0.8,0.2,1.1,0.4
			c1.2,1.2,2.3,2.5,3.6,3.6c0.4,0.4,1.1,0.5,1.6,0.7c0.2-0.5,0.7-1.1,0.5-1.5c-0.9-2.1-1.6-4.3-2.9-6.1c-1.4-1.9-3.4-3.4-5.3-4.9
			c-1.8-1.5-3.9-1.8-6-0.6c-4.2,2.5-8.5,4.9-12.6,7.6c-11.5,7.5-22.9,15.2-34.3,22.7c-1,0.7-2.1,1.3-3.3,1.8c-3.5,1.3-6,0-6.6-3.7
			c-1-6.5-2-12.9-2.6-19.4c-1.1-13.2-1.9-26.3-2.9-39.5c0-0.6-0.1-1.2,0-1.8c0-0.3,0.4-0.6,0.6-0.8c0.2,0.3,0.6,0.5,0.7,0.8
			c0.2,0.6,0.2,1.2,0.2,1.7c2.1,18.6,4.2,37.3,6.4,55.9c0.6,5.1,1.4,5.5,5.7,2.7c11.8-7.8,23.5-15.6,35.3-23.4
			c3.8-2.5,7.7-4.7,11.6-7c3.5-2.1,6.9-1.6,10,1c1.7,1.5,3.5,3,5.1,4.6c2.1,2.2,3.5,4.9,3.8,8c0.3,3-0.5,4.2-3.6,4.9
			c-0.2,0.8-0.4,1.7-0.7,2.5c-0.6,1.6-1.6,2.6-3.4,2.8c-0.6,0.1-1.3,0.6-1.6,1.1c-1.7,3.2-4.5,3.7-7.1,1.1c-1.2-1.2-2.3-2.4-3.7-3.8
			c-1.4,1.2-2.8,2.3-4.2,3.5c-10.2,8.3-20.4,16.8-30.7,25c-4.2,3.3-8.9,5.8-14.3,6.6c-3.9,0.6-7.7,0.3-11.4-1.2
			c-4.4-1.7-7.4-4.9-8.6-9.3c-1.9-6.7-3.7-13.5-5-20.3c-3.2-16.7-3.4-33.7-4.4-50.6c-0.2-3.5-0.3-7.1-0.5-10.6
			c0-0.6,0.1-1.2,0.1-1.7C71.9,196.7,72.1,196.7,72.4,196.7z"/>
		<path class="st10" d="M57.1,141c0.1,0.7,0.3,1.4,0.3,2c0.5,4.1,0.7,8.3,1.7,12.4c1.2,4.8,4.3,6.6,9.5,6.1c3.5-0.3,6.3-3.3,6.9-7.5
			c0.5-3.9,0.7-7.8,1.1-11.7c0.1-0.6,0.5-1.2,0.8-1.8c0.3,0.6,0.8,1.3,0.8,1.9c0,4.1,0.2,8.3-0.2,12.3c-0.9,8.5-9.8,12.8-17,8
			c-1.5-1-2.7-2.7-3.5-4.3c-2.3-5.4-1.7-11.1-1.3-16.8c0-0.2,0.2-0.4,0.4-0.6C56.7,141.1,56.9,141.1,57.1,141z"/>
	</g>
</g>
<g>
	<path d="M354.1,43.6c0.1-0.3,0.2-0.8,0.3-1.6c0.3-1.6,0.7-3.2,1.1-4.8c0.1-0.6,0.3-1.2,0.8-1.7c0.3-0.2,0.6-0.4,0.9-0.5
		c0.9-0.2,1.5,0.1,2.1,0.6c0.7,0.6,0.6,1.5,0.5,2.3c-0.7,4.5-1.8,8.9-2.9,13.3c-0.5,2.2-1,4.5-1.6,6.7c-0.4,1.4-1.5,2-2.7,1.8
		c-1.2-0.3-1.8-1.4-1.6-2.8c0-0.2,0-0.3,0.3-1.4c0.2-0.9,0.4-1.6,0.5-2.1c0.2-0.6,0.9-4,1.6-6.8C353.7,45.2,353.9,44.5,354.1,43.6z"
		/>
	<path d="M374.3,61.1c-0.1,0-0.1,0.1-0.3,0.2c0,0-0.1,0.1-0.5,0.3c-2.5,1.2-4.3,0.5-4.3,0.5c-1.2-0.5-2.1-1.7-2.5-3.4
		c-0.8-3.7,0.7-6.8,3-9.6c0.9-1,1.9-1.8,3.1-2.4c2.7-1.5,6.2-0.6,7.8,2c0.5,0.9,0.3,1.8,0.1,2.7c-0.7,3.6-1.4,7.2-2.1,10.8
		c-0.4,1.8-1.3,2.7-2.6,2.5c-0.2,0-0.7-0.1-1-0.5c-0.7-0.5-0.8-1.4-0.8-2.1C374.3,61.6,374.5,61.2,374.3,61.1z M371.3,57.6
		c0.2,0.1,0.7,0.3,1.3,0.1c0.6-0.1,0.9-0.5,1.2-0.8c0.3-0.3,0.5-0.7,0.9-1.6c0.3-0.8,0.6-1.6,0.9-2.8c0.4-1.7,0.4-1.9,0.2-2.1
		c0,0-0.3-0.2-1.3,0.2c-1.6,0.7-2.6,1.9-2.6,1.9c-0.4,0.5-2,2.6-1.3,4.2C370.9,57.2,371.1,57.4,371.3,57.6z"/>
	<path d="M394.3,55.1c-0.2-0.1-0.5,0.1-0.5,0.1c-0.3,0.2-0.4,0.5-0.5,0.7c-0.3,0.9-0.6,1.6-0.7,2.1c-0.2,0.6-0.4,1.4-0.6,2.3
		c-0.3,1.2-0.4,1.7-0.8,2.5c-0.4,0.9-0.7,1.6-1.4,1.9c-0.4,0.2-0.9,0.2-1.5,0c-1.3-0.3-1.8-1.5-1.5-3.1c0.5-2.2,0.9-3.2,1.3-5.7
		c0.1-0.5,0.2-1,0.2-1.2c0-0.1,0.1-0.4-0.1-0.7c-0.3-0.4-0.7-0.5-1.1-0.4c-0.6,0.2-0.7,1.1-0.9,2.2c-0.8,4.1-0.8,3.6-1.5,6.4
		c-0.2,0.6-0.3,1.1-0.5,1.6c-0.5,1.4-1.6,2.1-2.8,1.7c-1.2-0.3-1.7-1.4-1.4-2.8c0.4-2,0.9-4,1.4-6c0.6-2.4,1.3-4.8,1.9-7.2
		c0.2-1,0.8-1.6,1.8-1.9c1-0.2,1.8,0.2,2.3,1.1c0.3,0.6,0.7,0.5,1.2,0.4c1.4-0.2,2.6,0,3.5,1.2c0.4,0.5,0.7,0.3,1.1,0.1
		c2.9-1.1,5.1,0.3,5.6,3.4c0.2,1.7,0.1,3.4-0.2,5.1c-0.4,2.4-0.9,4.8-1.3,7.2c-0.3,1.7-1.2,2.4-2.6,2.2c-1.3-0.2-2.1-1.2-1.8-2.8
		c0.4-2.4,0.8-4.5,1.3-6.8C394.4,57.2,394.7,55.3,394.3,55.1z"/>
	<path d="M409.4,55.1c0.2-1.1,0.2-1.4,0.4-2c0,0,0-0.5,0.2-1c0.3-1.2,0.4-1.9,0.5-2.3c0.3-1.1,0.4-1.7,0.8-2
		c0.2-0.2,0.6-0.5,2.1-0.6c0.9-0.1,2-0.1,3.5,0.2c1.2,0.3,2.4,0.5,3.6,1.4c0.7,0.5,2.1,1.6,2.3,3.3c0.1,1.8-1.2,3.6-3.2,4.6
		c0.5,0.1,2.6,0.7,3.7,2.8c1.4,2.6-0.1,5.5-0.5,6c-1,1.9-2.6,2.7-5.7,4.2c0,0-3.7,1.8-7.9,1.8c-0.5,0-1.3-0.1-1.9-0.6
		c-0.5-0.5-0.7-1.2-0.5-2.2c0.6-3.3,1.3-6.5,2-9.8C408.8,58,409.2,56,409.4,55.1z M413.8,55.4c1.4-0.5,2.5-1,3.6-1.8
		c0.5-0.4,0.5-0.7,0.5-0.9c0-0.3-0.2-0.6-0.3-0.7c-0.2-0.3-0.6-0.6-1.1-0.7c-0.2,0-1.2-0.4-1.8,0.2c-0.1,0.1-0.2,0.3-0.3,0.4
		C414.3,53.1,414,54.2,413.8,55.4z M411.6,66.6c2.1-0.4,4-1.1,5.9-1.9c0.8-0.3,1.5-0.8,1.4-1.7c0-1-0.6-1.6-1.5-2.1
		c-1.2-0.7-2.6-0.7-4-0.8c-0.4,0-0.5,0.1-0.6,0.5C412.4,62.4,412,64.4,411.6,66.6z"/>
	<path d="M437.9,66.7c1-2.1,1.4-4.3,1.9-6.5c0.5-1.7,0.8-3.4,1.2-5.1c0.2-0.6,0.3-1.2,0.6-1.7c0.5-1,1.4-1.4,2.5-1.2
		c1.1,0.2,1.8,1.2,1.6,2.4c-0.3,1.5-0.6,3-1,4.5c-1.2,4.9-2.2,9.9-4.2,14.6c-0.1,0.3-0.3,0.6-0.5,0.9c-0.6,1-1.5,1.7-2.8,1.6
		c-1.2-0.1-2-0.9-2.4-2.1c-0.7-1.7-0.9-3.5-1.1-5.3c-0.3-3.3-0.6-6.6-1.2-9.9c-0.5,1.7-1,3.4-1.5,5.1c-0.9,3.1-1.8,6.2-2.7,9.3
		c-0.4,1.5-1.6,2.3-2.9,1.9c-1.3-0.3-1.9-1.5-1.4-3c2.1-6.3,3.4-12.8,5.7-19c0.2-0.6,0.5-1.2,0.9-1.7c1.3-1.5,3.3-1.5,4.4,0.2
		c1.6,2.3,1.9,5,2.2,7.7C437.5,61.7,437.7,64.2,437.9,66.7z"/>
	<path d="M445.7,62.4c0.2-1.1,0.2-1.4,0.4-2c0,0,0-0.5,0.2-1c0.3-1.2,0.4-1.9,0.5-2.3c0.3-1.1,0.4-1.7,0.8-2
		c0.2-0.2,0.6-0.5,2.1-0.6c0.9-0.1,2-0.1,3.5,0.2c1.2,0.3,2.4,0.5,3.6,1.4c0.7,0.5,2.1,1.6,2.3,3.3c0.1,1.8-1.2,3.6-3.2,4.6
		c0.5,0.1,2.6,0.7,3.7,2.8c1.4,2.6-0.1,5.5-0.5,6c-1,1.9-2.6,2.7-5.7,4.2c0,0-3.7,1.8-7.9,1.8c-0.5,0-1.3-0.1-1.9-0.6
		c-0.5-0.5-0.7-1.2-0.5-2.2c0.6-3.3,1.3-6.5,2-9.8C445.1,65.4,445.6,63.4,445.7,62.4z M450.1,62.7c1.4-0.5,2.5-1,3.6-1.8
		c0.5-0.4,0.5-0.7,0.5-0.9c0-0.3-0.2-0.6-0.3-0.7c-0.2-0.3-0.6-0.6-1.1-0.7c-0.2,0-1.2-0.4-1.8,0.2c-0.1,0.1-0.2,0.3-0.3,0.4
		C450.6,60.5,450.3,61.6,450.1,62.7z M447.9,73.9c2.1-0.4,4-1.1,5.9-1.9c0.8-0.3,1.5-0.8,1.4-1.7c0-1-0.6-1.6-1.5-2.1
		c-1.2-0.7-2.6-0.7-4-0.8c-0.4,0-0.5,0.1-0.6,0.5C448.7,69.8,448.3,71.8,447.9,73.9z"/>
	<path d="M470.7,57.8c5.3,1.2,8.3,4.6,8,9.4c-0.2,3.5-1.8,6.6-4.3,9c-3.1,3-6.7,4.9-10.9,6c-1.1,0.3-2.2,0.4-3-0.6
		c-0.8-1-0.6-1.9,0.1-2.9c0.2-0.3,0.2-0.7,0.3-1.1c1.2-5.8,2.3-11.5,3.5-17.2c0.3-1.7,1.6-2.7,3.3-2.8
		C468.8,57.6,469.8,57.5,470.7,57.8z M465.8,76.8c3.6-1.8,6.6-3.8,8-7.5c1.5-3.6-0.3-6.6-4.2-7.1c-0.6-0.1-0.9,0-1,0.6
		C467.7,67.3,466.7,71.9,465.8,76.8z"/>
	<path d="M494.9,69.6c0.4,3.9-0.6,7-1.2,8.8c-0.7,2-1.1,3.3-2.2,4.6c-1.7,1.9-3.7,2.6-4,2.8c-5.2,2.3-9.9-1.2-9.5-7.2
		c0.2-3.7,1.2-6.4,2.8-9.3c1.3-2.4,2.4-4.5,4.8-5.6c0.7-0.3,2.3-1.1,4.4-0.6c2.3,0.5,3.6,2.2,3.8,2.6
		C494.5,66.9,494.7,68.1,494.9,69.6z M490.4,73.2c0.5-3.5-0.5-5.2-1-5.5c-0.4-0.3-0.9-0.3-0.9-0.3s-0.5-0.1-1,0.2
		c-0.3,0.1-2.8,1.5-4.5,7.2c-0.8,2.5-0.6,3.4-0.4,4c0.3,1.3,1.2,2.5,2.3,2.7c0.2,0,0.7,0.1,1.4-0.1C489.5,80,490.4,73.4,490.4,73.2z
		"/>
	<path d="M496.2,75.8c0.9-3.9,3.3-7.8,8-10.2c2.4-1.2,5-0.7,6.4,1.1c0.9,1.2,0.9,2.3,0,3.2c-0.8,0.9-2,0.9-3.1,0
		c-0.6-0.5-1-0.4-1.7-0.1c-2.9,1.5-4.4,4.1-5.3,7.1c-0.6,2.1-0.8,4.3,0.3,6.3c0.7,1.4,1.6,2.7,3.4,2.6c1.4,0,3-1.7,3.5-3.3
		c0.2-0.7,0-1-0.7-1c-0.8-0.1-1.6-0.1-2.3-0.2c-1.5-0.1-2.4-1.1-2.4-2.4c0.1-1.3,1.1-2.1,2.7-2.1c1.1,0.1,2.2,0.1,3.2,0.4
		c3,0.6,4.3,2.4,4,5.4c-0.4,4.2-4.4,7.7-8.6,7.6c-2.6,0-4.4-1.4-5.9-3.4C495.7,84,495.1,80.8,496.2,75.8z"/>
	<path d="M516.3,91.4c-0.2,1.2-1.4,1.9-2.6,1.7c-1.3-0.3-2-1.5-1.8-2.7c0.3-1.2,1.4-1.9,2.6-1.7C515.7,88.9,516.5,90.2,516.3,91.4z"
		/>
	<path d="M342.9,96.9c0-0.2,0.2-0.8,0.4-1.8c0.3-1,0.6-1.9,0.8-2.5c0.5-1.2,1.2-3.1,2.8-4.7c0.6-0.6,2.4-2.5,5.3-3.1
		c0.8-0.2,1.6-0.2,2.5-0.1c1.6,0.2,3.1,0.9,4.1,2.3c0.7,0.9,0.5,1.9-0.3,2.7c-0.8,0.8-1.7,0.9-2.6,0.3c-0.9-0.6-1.8-1.2-3-0.9
		c-1.4,0.4-2.6,1.2-3.3,2.4c-1.7,2.9-2.8,6-2.7,9.4c0,0.7,0.1,1.3,0.5,1.9c1.1,2,2.2,2.4,4.4,1.4c1.6-0.7,2.7-0.5,3.4,0.7
		c0.6,1.2,0.1,2.6-1.4,3.3c-5.1,2.5-9.3,0-10.8-4.6c-0.7-2.1-0.5-4.3-0.5-5C342.7,97.8,342.9,96.9,342.9,96.9z"/>
	<path d="M364.2,95.5c1.7-0.8,3.1-1.2,4.7-0.8c1.9,0.5,2.9,1.6,3,3.6c0.1,1.4-0.2,2.7-0.4,4c-0.6,3.1-1.3,6.1-2.2,9.2
		c-0.5,1.5-1.6,2.1-2.8,1.8c-1.3-0.4-1.8-1.6-1.4-3.1c0.6-2.2,0.9-3.7,1.4-5.2c0.7-2.2,1.3-4.5,0.4-5.3c-0.7-0.5-2.3,0.2-2.4,0.2
		c-0.2,0.1-0.8,0.4-1.3,1.1c-0.3,0.5-0.3,0.9-0.4,1.1c-0.5,2.5-1,5-1.5,7.6c-0.3,1.4-1.2,2.2-2.5,2c-1.2-0.2-2-1.3-1.9-2.6
		c0-0.4,0.1-0.8,0.2-1.2c1.4-6.7,2.7-13.4,4.1-20.1c0-0.1,0-0.2,0-0.2c0.3-1.4,1.5-2.3,2.7-2c1.2,0.3,1.9,1.5,1.6,2.9
		c-0.3,1.9-0.7,3.8-1.1,5.6C364.4,94.5,364.3,94.9,364.2,95.5z"/>
	<path d="M380.1,112.6c-0.1,0-0.1,0.1-0.3,0.2c0,0-0.1,0.1-0.5,0.3c-2.5,1.2-4.3,0.5-4.3,0.5c-1.2-0.5-2.1-1.7-2.5-3.4
		c-0.8-3.7,0.7-6.8,3-9.6c0.9-1,1.9-1.8,3.1-2.4c2.7-1.5,6.2-0.6,7.8,2c0.5,0.9,0.3,1.8,0.1,2.7c-0.7,3.6-1.4,7.2-2.1,10.8
		c-0.4,1.8-1.3,2.7-2.6,2.5c-0.2,0-0.7-0.1-1-0.5c-0.7-0.5-0.8-1.4-0.8-2.1C380,113.1,380.2,112.6,380.1,112.6z M377.1,109
		c0.2,0.1,0.7,0.3,1.3,0.1c0.6-0.1,0.9-0.5,1.2-0.8c0.3-0.3,0.5-0.7,0.9-1.6c0.3-0.8,0.6-1.6,0.9-2.8c0.4-1.7,0.4-1.9,0.2-2.1
		c0,0-0.3-0.2-1.3,0.2c-1.6,0.7-2.6,1.9-2.6,1.9c-0.4,0.5-2,2.6-1.3,4.2C376.6,108.6,376.8,108.8,377.1,109z"/>
	<path d="M387.2,107.5c0.4-2.1,0.8-4.2,1.3-6.3c0-0.2,0.4-1.8,1.5-2c0.6-0.2,1.7,0.1,2.2,0.5c0.4,0.3,0.7,0.4,1.2,0.3
		c0.2,0,0.3-0.1,0.5-0.1c4.6-0.5,6.8,1.8,6.4,6.4c-0.3,3.2-1.3,6.3-2,9.4c-0.5,2-2.6,2.7-3.9,1.3c-0.7-0.7-0.6-1.5-0.4-2.4
		c0.4-1.6,0.8-3.2,1.2-4.8c0.4-1.5,0.6-3,0.8-4.5c0-0.2,0-0.6-0.3-1c-0.2-0.3-0.5-0.4-0.9-0.6c-0.3-0.1-0.9-0.3-1.5-0.1
		c-0.4,0.1-0.6,0.3-0.8,0.5c-0.1,0.4-0.4,1.2-0.6,2.1c-0.6,2.4-1,5.2-1.6,8.5c-0.3,1.6-1.2,2.4-2.5,2.2c-0.2,0-0.9-0.1-1.4-0.7
		c-0.8-0.9-0.5-2.2-0.5-2.3C386.3,112,386.7,109.8,387.2,107.5z"/>
	<path d="M409.1,118.2c-1.8,1-3.4,1.5-5.2,0.7c-2.2-0.9-3.5-3.1-3.2-5.8c0.5-4.4,2.8-7.7,6.8-9.6c3.4-1.6,8,1,8.5,4.8
		c0,0.3,0.1,0.6,0,0.8c-1.1,4.9-1.8,9.9-3.8,14.6c-0.7,1.8-1.7,3.5-3.1,4.8c-2.3,2.1-5.8,2.6-8.3,1.2c-1.6-0.9-2.5-2.9-2.2-4.7
		c0.2-1.1,0.9-1.7,2-1.8c1.1-0.1,1.8,0.4,2.3,1.4c0.2,0.5-0.1,1.2,0.7,1.4c0.8,0.1,1.6-0.1,2.2-0.5c0.7-0.5,1.2-1.3,1.7-2
		c0.4-0.6,0.7-1.2,0.9-1.9C408.6,120.4,409,119.4,409.1,118.2z M405.2,112.5c-0.2,0.7-0.3,1.5,0.3,1.9c0.1,0.1,0.2,0.1,0.3,0.2
		c0.8,0.1,1.6-0.4,2.2-0.8c0,0,1.8-1.4,3-3.8c0.2-0.4,0.4-0.9,0.2-1.5c-0.1-0.3-0.3-0.5-0.4-0.6c-0.7-0.8-1.5-0.8-2.3-0.2
		C406.8,108.9,405.8,110.5,405.2,112.5z"/>
	<path d="M416.1,117.4c0.7-3.3,1.3-6.7,2-10c0.5-2.1,1.8-2.7,3.7-1.7c0.3,0.2,0.7,0.3,1.1,0.3c5.1,0,8.2,3.6,7.3,8.7
		c-0.6,4.1-2.7,6.3-6.7,7.2c-1.4,0.4-2.4,0.4-2.7,0.5c-0.5,0-1,0-1.4-0.1c-0.1,0.4-0.3,1-0.5,1.7c-0.4,1.9-0.5,2.8-0.9,4.6
		c-0.3,1.7-1.2,2.4-2.5,2.2c-0.6-0.1-1.1-0.3-1.4-0.7c0,0-0.8-0.9-0.5-2.4c0,0,0.1-0.3,0.2-0.7c0.1-0.3,0.1-0.5,0.2-0.6
		c1.2-4.5,2-8.9,2-8.9C416.1,117.6,416.1,117.5,416.1,117.4z M421.3,113.3c-0.1,0.3-0.1,0.6-0.2,0.9c-0.2,1-0.4,2-0.6,2.9
		c-0.1,0.4-0.1,0.6,0.4,0.7c3.2,0.3,5.6-2.4,5-5.6c-0.2-1-1.3-1.9-2.5-1.9c-0.6,0-0.9,0.1-1.2,0.3c-0.2,0.1-0.3,0.4-0.6,1.4
		C421.4,112.6,421.3,113,421.3,113.3z"/>
	<path d="M435.8,121.4c0.8,1.5,1.9,1.8,3.2,1.6c0.6-0.1,1.1-0.4,1.7-0.5c1.1-0.3,2.2,0.2,2.6,1.2c0.5,1,0.1,2.2-0.9,2.8
		c-2.6,1.4-5.3,1.7-7.9,0.2c-2.5-1.5-3.6-3.8-3.5-6.7c0.2-4,1.7-7.4,5.1-9.8c2.8-2.1,8.4-0.3,8.5,3.2c0,1.1-0.1,2.2-0.6,3.2
		c-1.2,2.2-3.1,3.8-5.5,4.8C437.7,121.6,436.8,121.5,435.8,121.4z M440,114.3c0.1-0.2,0.1-0.4-0.1-0.5c-0.5-0.2-0.9-0.3-1.3,0
		c-1,0.7-1.7,1.6-2.1,2.7c-0.3,0.6,0,0.7,0.5,0.7C437.7,117,439.9,115,440,114.3z"/>
	<path d="M445.9,119.4c0.4-2.1,0.8-4.2,1.3-6.3c0-0.2,0.4-1.8,1.5-2c0.6-0.2,1.7,0.1,2.2,0.5c0.4,0.3,0.7,0.4,1.2,0.3
		c0.2,0,0.3-0.1,0.5-0.1c4.6-0.5,6.8,1.8,6.4,6.4c-0.3,3.2-1.3,6.3-2,9.4c-0.5,2-2.6,2.7-3.9,1.3c-0.7-0.7-0.6-1.5-0.4-2.4
		c0.4-1.6,0.8-3.2,1.2-4.8c0.4-1.5,0.6-3,0.8-4.5c0-0.2,0-0.6-0.3-1c-0.2-0.3-0.5-0.4-0.9-0.6c-0.3-0.1-0.9-0.3-1.5-0.1
		c-0.4,0.1-0.6,0.3-0.8,0.5c-0.1,0.4-0.4,1.2-0.6,2.1c-0.6,2.4-1,5.2-1.6,8.5c-0.3,1.6-1.2,2.4-2.5,2.2c-0.2,0-0.9-0.1-1.4-0.7
		c-0.8-0.9-0.5-2.2-0.5-2.3C445,123.9,445.4,121.7,445.9,119.4z"/>
	<path d="M467.8,130.1c-1.8,1-3.4,1.5-5.2,0.7c-2.2-0.9-3.5-3.1-3.2-5.8c0.5-4.4,2.8-7.7,6.8-9.6c3.4-1.6,8,1,8.5,4.8
		c0,0.3,0.1,0.6,0,0.8c-1.1,4.9-1.8,9.9-3.8,14.6c-0.7,1.8-1.7,3.5-3.1,4.8c-2.3,2.1-5.8,2.6-8.3,1.2c-1.6-0.9-2.5-2.9-2.2-4.7
		c0.2-1.1,0.9-1.7,2-1.8c1.1-0.1,1.8,0.4,2.3,1.4c0.2,0.5-0.1,1.2,0.7,1.4c0.8,0.1,1.6-0.1,2.2-0.5c0.7-0.5,1.2-1.3,1.7-2
		c0.4-0.6,0.7-1.2,0.9-1.9C467.3,132.3,467.7,131.4,467.8,130.1z M464,124.4c-0.2,0.7-0.3,1.5,0.3,1.9c0.1,0.1,0.2,0.1,0.3,0.2
		c0.8,0.1,1.6-0.4,2.2-0.8c0,0,1.8-1.4,3-3.8c0.2-0.4,0.4-0.9,0.2-1.5c-0.1-0.3-0.3-0.5-0.4-0.6c-0.7-0.8-1.5-0.8-2.3-0.2
		C465.6,120.8,464.5,122.4,464,124.4z"/>
	<path d="M489.7,132.4c2.4,0.5,4.7,1,7,1.4c1.7,0.3,2.6,1.1,2.5,2.5c-0.1,1.4-1,2.2-2.7,2c-3.7-0.4-7.4-0.9-10.9-2
		c-2.8-0.9-3.3-3.4-1.1-5.3c4.3-3.7,7.3-6.3,11.1-9.9c1.1-1.1,2-2,2.5-2.6c-0.3-0.1-0.9-0.2-1.5-0.3c-2.6-0.4-3.5-0.6-5.3-1
		c-1.5-0.3-2.3-1.5-2-2.7c0.3-1.2,1.3-1.9,2.8-1.6c2.8,0.5,5.5,0.8,8.2,1.7c2.6,0.8,3.5,2.9,2.1,5.3c-1,1.7-2.4,3.1-3.9,4.6
		c-2.6,2.6-5.4,5.1-8.2,7.5C490.1,132,489.9,132.2,489.7,132.4z"/>
	<path d="M508.3,124.8c1.7-0.8,3.1-1.2,4.7-0.8c1.9,0.5,2.9,1.6,3,3.6c0.1,1.4-0.2,2.7-0.4,4c-0.6,3.1-1.3,6.1-2.2,9.2
		c-0.5,1.5-1.6,2.1-2.8,1.8c-1.3-0.4-1.8-1.6-1.4-3.1c0.6-2.2,0.9-3.7,1.4-5.2c0.7-2.2,1.3-4.5,0.4-5.3c-0.7-0.5-2.3,0.2-2.4,0.2
		c-0.2,0.1-0.8,0.4-1.3,1.1c-0.3,0.5-0.3,0.9-0.4,1.1c-0.5,2.5-1,5-1.5,7.6c-0.3,1.4-1.2,2.2-2.5,2c-1.2-0.2-2-1.3-1.9-2.6
		c0-0.4,0.1-0.8,0.2-1.2c1.4-6.7,2.7-13.4,4.1-20.1c0-0.1,0-0.2,0-0.2c0.3-1.4,1.5-2.3,2.7-2c1.2,0.3,1.9,1.5,1.6,2.9
		c-0.3,1.9-0.7,3.8-1.1,5.6C508.6,123.7,508.5,124.1,508.3,124.8z"/>
	<path d="M524.2,141.8c-0.1,0-0.1,0.1-0.3,0.2c0,0-0.1,0.1-0.5,0.3c-2.5,1.2-4.3,0.5-4.3,0.5c-1.2-0.5-2.1-1.7-2.5-3.4
		c-0.8-3.7,0.7-6.8,3-9.6c0.9-1,1.9-1.8,3.1-2.4c2.7-1.5,6.2-0.6,7.8,2c0.5,0.9,0.3,1.8,0.1,2.7c-0.7,3.6-1.4,7.2-2.1,10.8
		c-0.4,1.8-1.3,2.7-2.6,2.5c-0.2,0-0.7-0.1-1-0.5c-0.7-0.5-0.8-1.4-0.8-2.1C524.2,142.3,524.4,141.9,524.2,141.8z M521.2,138.3
		c0.2,0.1,0.7,0.3,1.3,0.1c0.6-0.1,0.9-0.5,1.2-0.8c0.3-0.3,0.5-0.7,0.9-1.6c0.3-0.8,0.6-1.6,0.9-2.8c0.4-1.7,0.4-1.9,0.2-2.1
		c0,0-0.3-0.2-1.3,0.2c-1.6,0.7-2.6,1.9-2.6,1.9c-0.4,0.5-2,2.6-1.3,4.2C520.8,137.9,521,138.1,521.2,138.3z"/>
	<path d="M544.1,138.7c-0.7,2.5-1.7,5.2-4.2,7c-3.2,2.3-7.1,1.1-8.4-2.5c-0.9-2.4-0.5-4.7,0.6-6.9c0.9-1.8,2-3.5,3.4-5
		c1.1-1.1,2.3-1.8,3.9-1.9c2.2-0.1,3.1,0.5,3.8,2.6c0.5,1.5,1.3,2.9,1.2,4.5C544.3,137.1,544.2,137.7,544.1,138.7z M539.8,137.5
		c0.3-0.9,0.1-1.7-0.2-2.5c-0.4-1.1-0.8-0.9-1.4-0.2c-1.1,1.3-2,2.7-2.5,4.4c-0.2,0.6-0.4,1.3-0.2,2c0.3,1.3,1.1,1.6,2,0.7
		C538.8,140.7,539.3,139.1,539.8,137.5z"/>
	<path d="M556,125.5c-0.2,1.2-0.7,1.9-1.2,2.6c-1,1.4-2.1,2.8-3.2,4.1c-0.9,1.1-2.1,1.3-3.1,0.5c-1-0.7-1.3-2-0.5-3.1
		c1.4-2,3-3.8,4.2-5.8c0.6-0.9,1.6-1,2.6-0.6C555.8,123.7,556.2,124.6,556,125.5z"/>
	<path d="M558.7,152.1c-1.5-0.4-3-0.9-4.3-1.8c-0.9-0.6-1.4-1.5-1.1-2.6c0.3-0.9,1-1.5,2-1.6c0.6-0.1,1,0.2,1.5,0.5
		c1,0.5,2.1,1,3.2,1.2c0.4,0.1,0.9,0.3,1.2-0.1c0.3-0.5,0.2-1-0.1-1.4c-0.2-0.3-0.5-0.6-0.8-0.8c-0.8-0.6-1.6-1.2-2.3-1.9
		c-3-2.6-2.7-6.9,0.8-9c2.5-1.5,5.1-1.4,7.6,0c1.4,0.8,1.8,2.1,1.1,3.2c-0.6,1.1-1.8,1.4-3.2,0.7c-1-0.5-2-0.7-3-0.2
		c-1.1,0.5-1.1,1.3-0.3,2c1,0.8,2,1.6,3,2.6c2,2,2.4,5,1.1,7.3C563.9,152,561.4,152.8,558.7,152.1z"/>
	<path d="M577.3,143.9c0.4-1.6,0.6-2.6,0.9-4c0.2-1.1,0.6-2.7,1-4.7c0.1-0.5,0.3-1,0.5-1.6c0.1-0.3,0.2-0.5,0.3-0.7
		c0.3-0.4,0.7-0.8,1.3-1.1c1.1-0.5,2.3-0.4,3.5,0c0.7,0.2,1.4,0.3,2,0.6c4.5,1.8,6.1,6.4,3.9,10.8c-0.6,1.1-1.1,1.9-1.8,2.7
		c-2.8,2.8-6.3,3.5-7.4,3.7c-0.4,0-0.8,0.1-1,0.1c0,0.2-0.2,0.6-0.3,1.1c-0.4,1.6-0.3,1.9-0.6,2.9c-0.3,1.5-1.2,2.2-2.5,2
		c-0.6-0.1-1.1-0.4-1.4-0.8c-0.5-0.6-0.4-1.4-0.4-1.9c0-0.3,0.1-0.6,0.2-0.8c0.2-1.2,0.5-2.1,0.6-2.7c0.3-1.3,0.4-1.8,0.8-3.1
		C577,145.4,577.2,144.6,577.3,143.9z M581.8,144.7c2.8-0.7,4.4-1.9,5.1-4c0.7-2.4,0.3-4-2.4-4.5c-0.6-0.1-0.9-0.1-1,0.5
		C582.8,139.4,582.3,142,581.8,144.7z"/>
	<path d="M593.4,153.4c0.8,1.5,1.9,1.8,3.2,1.6c0.6-0.1,1.1-0.4,1.7-0.5c1.1-0.3,2.2,0.2,2.6,1.2c0.5,1,0.1,2.2-0.9,2.8
		c-2.6,1.4-5.3,1.7-7.9,0.2c-2.5-1.5-3.6-3.8-3.5-6.7c0.2-4,1.7-7.4,5.1-9.8c2.8-2.1,8.4-0.3,8.5,3.2c0,1.1-0.1,2.2-0.6,3.2
		c-1.2,2.2-3.1,3.8-5.5,4.8C595.4,153.6,594.5,153.5,593.4,153.4z M597.6,146.3c0.1-0.2,0.1-0.4-0.1-0.5c-0.5-0.2-0.9-0.3-1.3,0
		c-1,0.7-1.7,1.6-2.1,2.7c-0.3,0.6,0,0.7,0.5,0.7C595.3,149,597.5,147,597.6,146.3z"/>
	<path d="M604.5,152.8c0.3-1.3,0.7-2.8,0.9-3.4c0.1-0.4,0.2-0.7,0.3-0.9c-0.4-0.1-0.7-0.2-1.1-0.3c-0.2,0-0.8-0.2-1.2-0.9
		c-0.4-0.6-0.3-1.3-0.2-1.6c0-0.2,0.3-1.3,1.2-1.7c0.5-0.2,0.9-0.2,1.1-0.2c0.5,0.1,0.9,0.2,1.4,0.3c0.1-0.3,0.2-0.7,0.3-1.3
		c0.5-1.8,0.6-2.2,0.9-3c0.5-1.4,1.5-2,2.8-1.6c1.3,0.3,1.8,1.4,1.4,2.9c-0.2,0.8-0.3,1-0.8,2.8c-0.1,0.5-0.3,0.9-0.4,1.1
		c0.3,0.1,0.8,0.2,1.3,0.3c0.6,0.2,0.9,0.3,1.3,0.6c0.1,0.1,0.7,0.6,0.7,1.5c0,0.3,0,0.6-0.2,0.8c-0.4,0.9-1.1,1.5-2.1,1.5
		c-0.1,0-0.3,0-1.1-0.2c-0.5-0.1-0.9-0.2-1.2-0.3c-0.1,0.4-0.3,0.8-0.4,1.2c-0.3,1-0.6,1.9-0.8,2.9c-0.1,0.6-0.2,1.3-0.4,2
		c0,0.2,0,0.5,0,0.9c0,0.8,0.1,0.9,0.2,0.9c0.2,0.2,0.5,0.1,0.9,0c1.5-0.5,2.7,0,3.1,1.3c0.5,1.3-0.2,2.3-1.8,3
		c-1.6,0.6-3,0.6-4.2,0c-2.6-1.2-2.7-4.7-2.7-5.4C604.1,155,604.3,154.2,604.5,152.8z"/>
	<path d="M618,162.4c-0.2,1.2-1.4,1.9-2.6,1.7c-1.3-0.3-2-1.5-1.8-2.7c0.3-1.2,1.4-1.9,2.6-1.7C617.4,159.9,618.3,161.2,618,162.4z"
		/>
</g>
</svg>
