<?xml version="1.0" encoding="UTF-8"?>
<svg id="Layer_1" data-name="Layer 1" xmlns="http://www.w3.org/2000/svg" viewBox="0 0 750 270">
  <defs>
    <style>
      .cls-1 {
        fill: #fdc121;
      }

      .cls-1, .cls-2, .cls-3, .cls-4 {
        stroke-width: 0px;
      }

      .cls-2 {
        fill: #000;
      }

      .cls-3 {
        fill: #f3ba2f;
      }

      .cls-4 {
        fill: #fff;
      }
    </style>
  </defs>
  <g>
    <path class="cls-1" d="M710.65,99c-5.6-3.6-11.6-4.8-18-4.8-8.8,0-20,2.8-29.2,8.4,2.4,12.4,5.2,27.6,6.4,39.6-3.2,1.6-8.4,3.6-11.6,3.6-12.4,0-23.2-12.8-24.4-36.8-1.2-23.6,9.6-37.2,21.2-37.2,6,0,12.4,4,19.2,13.2,14-2.8,31.2-17.2,33.2-29.6-10.4-20.8-30.4-31.2-50.4-31.2s-40.17,9.02-54.84,27.05c-12.41-15.92-30.14-26.66-52.36-27.05-24.21-.37-42.87,11.04-55.97,27.47-12.68-12.71-30.85-19.87-54.02-19.87-14.4,0-31.6,3.2-52.4,10.4-.56,1.79-.96,3.64-1.25,5.38-9.44-10.6-25.72-18.58-48.35-18.58-14.45,0-32.33,3.43-53.32,11.88-.22-3.33-.45-6.38-.68-9.08-10.4-5.2-22.8-7.2-33.2-7.2-8,0-16.8,1.2-24,4,.8,20.4,2.4,36,4.4,48.8,1.2,10.4,3.2,21.2,4,32-11.2-21.6-14.8-24.8-25.6-42-6-9.6-12-20-17.2-29.2-6.4-2-11.2-2.8-15.6-2.8-10.4,0-23.2,3.2-30.4,6.8-.26,1.26-.5,2.44-.7,3.53-9.94-8.45-25.59-13.93-46.5-13.93-15.6,0-38.4,2-60,11.2-3.2,16.8-5.2,45.6-5.2,73.2s2.4,59.99,6.8,76.39l3.2.4c6.8.4,13.6.8,20,.8,38.49,0,64.27-8.39,80.58-20.04.22,5.75.71,13.48,1.82,19.24,5.2.8,11.6,1.2,15.6,1.2,12.4,0,26.4-3.2,33.6-7.6-2-10.8-4.8-37.6-4.8-57.59,8,15.2,16.4,35.59,22.8,51.59,2,4.4,4,10.4,5.6,13.6,6.4,2,14.8,2.4,23.6,2.4,14.93,0,31.31-2.2,38.66-6.6.27,1.09.59,2.22.94,3.4,6.4.4,15.6.4,21.6.4,38.92,0,65.41-8.8,82.13-21.49-.06,4.17.02,12.85,1.47,20.69,14,2.8,26.8,4,38.8,4,30.07,0,52.9-9.04,67.9-24.96,12.52,12.89,31.27,21.36,54.09,21.36,23.96,0,41.72-8.37,53.85-21.42,14.58,15.1,34.31,21.02,53.35,21.02,17.6,0,35.2-5.6,47.6-14.4l4-2,8.8-4.4c1.2-13.6-1.6-50.39-5.2-73.19ZM524.65,111.8c0-18,8.4-36.4,24-36.8,13.2-.8,20.8,16.8,20.8,34,0,16-6.8,31.59-22.8,32.8-15.2,1.19-22-14-22-30ZM431.86,111c0-10,.4-19.6,1.6-27.6,4.4-1.2,6.8-1.6,10-1.6,12,0,18.4,10.4,20,27.6,1.6,21.8-8.2,38.99-29.8,38.99-.8-10.19-1.8-23.79-1.8-37.39ZM346.26,128.2c5.2,0,9.2,1.2,9.6,4,1.2,8.6-15.2,13.6-32.6,15.39-.6-3.6-1-8.19-1-14.59,8.8-3.2,16.8-4.8,24-4.8ZM347.06,79.4c-.4,6.8-10,12.8-25.2,13.6-.4-4-.2-9,.4-13.6,6.2-3,11.6-4.4,16-4.4s7.6,2,8.8,4.4ZM105.86,128.2c5.2,0,9.2,1.2,9.6,3.6,1.8,8.6-14.8,14-32.6,15.79-.6-3.6-1-8.19-1-14.59,8.8-3.2,16.8-4.8,24-4.8ZM81.86,93c-.4-4.4,0-9.6.2-14.2,6.2-2.8,11.8-4.2,16.2-4.2,5.2,0,9.2,2,9.6,5.6,1.6,6.4-11.2,11.6-26,12.8Z"/>
    <path class="cls-2" d="M123.46,130.2c-1.6-6.8-8.4-10-17.6-10s-20.4,2.8-32,7.6c0,15.6,1.2,23.59,2,27.99h4c22.8-1.2,45.2-11.2,43.6-25.59ZM82.86,147.59c-.6-3.6-1-8.19-1-14.59,8.8-3.2,16.8-4.8,24-4.8,5.2,0,9.2,1.2,9.6,3.6,1.8,8.6-14.8,14-32.6,15.79ZM115.86,77c-1.2-6.4-8.4-10.4-17.6-10.4-6.4,0-14.4,1.6-22,6l-2,.8c-.4,6.4-.8,18.8,0,27.6,25.2-.4,44.4-10.4,41.6-24ZM81.86,93c-.4-4.4,0-9.6.2-14.2,6.2-2.8,11.8-4.2,16.2-4.2,5.2,0,9.2,2,9.6,5.6,1.6,6.4-11.2,11.6-26,12.8ZM123.46,130.2c-1.6-6.8-8.4-10-17.6-10s-20.4,2.8-32,7.6c0,15.6,1.2,23.59,2,27.99h4c22.8-1.2,45.2-11.2,43.6-25.59ZM82.86,147.59c-.6-3.6-1-8.19-1-14.59,8.8-3.2,16.8-4.8,24-4.8,5.2,0,9.2,1.2,9.6,3.6,1.8,8.6-14.8,14-32.6,15.79ZM115.86,77c-1.2-6.4-8.4-10.4-17.6-10.4-6.4,0-14.4,1.6-22,6l-2,.8c-.4,6.4-.8,18.8,0,27.6,25.2-.4,44.4-10.4,41.6-24ZM81.86,93c-.4-4.4,0-9.6.2-14.2,6.2-2.8,11.8-4.2,16.2-4.2,5.2,0,9.2,2,9.6,5.6,1.6,6.4-11.2,11.6-26,12.8ZM115.86,77c-1.2-6.4-8.4-10.4-17.6-10.4-6.4,0-14.4,1.6-22,6l-2,.8c-.4,6.4-.8,18.8,0,27.6,25.2-.4,44.4-10.4,41.6-24ZM81.86,93c-.4-4.4,0-9.6.2-14.2,6.2-2.8,11.8-4.2,16.2-4.2,5.2,0,9.2,2,9.6,5.6,1.6,6.4-11.2,11.6-26,12.8ZM123.46,130.2c-1.6-6.8-8.4-10-17.6-10s-20.4,2.8-32,7.6c0,15.6,1.2,23.59,2,27.99h4c22.8-1.2,45.2-11.2,43.6-25.59ZM82.86,147.59c-.6-3.6-1-8.19-1-14.59,8.8-3.2,16.8-4.8,24-4.8,5.2,0,9.2,1.2,9.6,3.6,1.8,8.6-14.8,14-32.6,15.79ZM123.46,130.2c-1.6-6.8-8.4-10-17.6-10s-20.4,2.8-32,7.6c0,15.6,1.2,23.59,2,27.99h4c22.8-1.2,45.2-11.2,43.6-25.59ZM82.86,147.59c-.6-3.6-1-8.19-1-14.59,8.8-3.2,16.8-4.8,24-4.8,5.2,0,9.2,1.2,9.6,3.6,1.8,8.6-14.8,14-32.6,15.79ZM115.86,77c-1.2-6.4-8.4-10.4-17.6-10.4-6.4,0-14.4,1.6-22,6l-2,.8c-.4,6.4-.8,18.8,0,27.6,25.2-.4,44.4-10.4,41.6-24ZM82.06,78.8c6.2-2.8,11.8-4.2,16.2-4.2,5.2,0,9.2,2,9.6,5.6,1.6,6.4-11.2,11.6-26,12.8-.4-4.4,0-9.6.2-14.2ZM168.26,130.4c-.6-13.2-7.6-24.8-22-30,13.61-15.55,15.39-33.14,6.49-46.62-1.91-2.89-4.31-5.59-7.19-8.05-9.94-8.45-25.59-13.93-46.5-13.93-15.6,0-38.4,2-60,11.2-3.2,16.8-5.2,45.6-5.2,73.2s2.4,59.99,6.8,76.39l3.2.4c6.8.4,13.6.8,20,.8,38.49,0,64.27-8.39,80.58-20.04,2.89-2.05,5.48-4.21,7.79-6.46,12.06-11.65,16.56-25.29,16.03-36.89ZM63.86,185.79c-5.4,0-10.6-.2-16.2-.6-4-16.6-5.8-43.2-5.8-68.99s1.6-51.6,4.4-67.6c18.4-7.2,38.4-8.8,52.8-8.8,53.2,0,63.8,35,37.6,60l-8.8,5.2c25.8-.4,31.8,14.2,32.4,25.4,1.2,22.39-22,55.39-96.4,55.39ZM105.86,120.2c-8.8,0-20.4,2.8-32,7.6,0,15.6,1.2,23.59,2,27.99h4c22.8-1.2,45.2-11.2,43.6-25.59-1.6-6.8-8.4-10-17.6-10ZM82.86,147.59c-.6-3.6-1-8.19-1-14.59,8.8-3.2,16.8-4.8,24-4.8,5.2,0,9.2,1.2,9.6,3.6,1.8,8.6-14.8,14-32.6,15.79ZM115.86,77c-1.2-6.4-8.4-10.4-17.6-10.4-6.4,0-14.4,1.6-22,6l-2,.8c-.4,6.4-.8,18.8,0,27.6,25.2-.4,44.4-10.4,41.6-24ZM82.06,78.8c6.2-2.8,11.8-4.2,16.2-4.2,5.2,0,9.2,2,9.6,5.6,1.6,6.4-11.2,11.6-26,12.8-.4-4.4,0-9.6.2-14.2ZM115.86,77c-1.2-6.4-8.4-10.4-17.6-10.4-6.4,0-14.4,1.6-22,6l-2,.8c-.4,6.4-.8,18.8,0,27.6,25.2-.4,44.4-10.4,41.6-24ZM81.86,93c-.4-4.4,0-9.6.2-14.2,6.2-2.8,11.8-4.2,16.2-4.2,5.2,0,9.2,2,9.6,5.6,1.6,6.4-11.2,11.6-26,12.8ZM123.46,130.2c-1.6-6.8-8.4-10-17.6-10s-20.4,2.8-32,7.6c0,15.6,1.2,23.59,2,27.99h4c22.8-1.2,45.2-11.2,43.6-25.59ZM82.86,147.59c-.6-3.6-1-8.19-1-14.59,8.8-3.2,16.8-4.8,24-4.8,5.2,0,9.2,1.2,9.6,3.6,1.8,8.6-14.8,14-32.6,15.79ZM123.46,130.2c-1.6-6.8-8.4-10-17.6-10s-20.4,2.8-32,7.6c0,15.6,1.2,23.59,2,27.99h4c22.8-1.2,45.2-11.2,43.6-25.59ZM82.86,147.59c-.6-3.6-1-8.19-1-14.59,8.8-3.2,16.8-4.8,24-4.8,5.2,0,9.2,1.2,9.6,3.6,1.8,8.6-14.8,14-32.6,15.79ZM115.86,77c-1.2-6.4-8.4-10.4-17.6-10.4-6.4,0-14.4,1.6-22,6l-2,.8c-.4,6.4-.8,18.8,0,27.6,25.2-.4,44.4-10.4,41.6-24ZM81.86,93c-.4-4.4,0-9.6.2-14.2,6.2-2.8,11.8-4.2,16.2-4.2,5.2,0,9.2,2,9.6,5.6,1.6,6.4-11.2,11.6-26,12.8Z"/>
    <path class="cls-2" d="M285.53,58.04c-.3-6.27-.64-12.06-.99-17.16-.22-3.33-.45-6.38-.68-9.08-10.4-5.2-22.8-7.2-33.2-7.2-8,0-16.8,1.2-24,4,.8,20.4,2.4,36,4.4,48.8,1.2,10.4,3.2,21.2,4,32-11.2-21.6-14.8-24.8-25.6-42-6-9.6-12-20-17.2-29.2-6.4-2-11.2-2.8-15.6-2.8-10.4,0-23.2,3.2-30.4,6.8-.26,1.26-.5,2.44-.7,3.53-1.02,5.53-1.3,8.87-1.3,8.87l8,6.6s.16-3.52.49-7.42c.19-2.19.42-4.51.71-6.38,5.6-2,15.2-4,23.2-4,4,0,6.8.4,9.2.8,5.2,9.2,11.2,17.6,17.2,27.2,10.8,17.2,22.4,36.8,33.6,58.4l6.8,11.19c0-21.19-2.4-48.39-4.4-64.39-2-13.6-3.6-26.8-4.4-42.8,4-.8,10-1.2,16-1.2,8.4,0,18.4,1.6,25.6,4.4,1.6,19.2,2.8,51.6,2.8,83.2,0,24.79-1.2,49.19-4,64.39-5.2,2.8-19.2,4-32.4,4-6.8,0-12.8-.4-18-1.6l-4-9.6c-8.4-20-19.6-47.59-36.4-73.19-1.6,16-1.6,20.4-1.6,25.2,0,18.8,1.6,41.99,3.6,53.59-5.2,2-14.8,3.2-24.4,3.2-2,0-6-.4-8.4-.4-1.25-6.57-1.28-15.1-1.23-18.5.01-.95.03-1.5.03-1.5h-8s0,3.34.18,7.96c.22,5.75.71,13.48,1.82,19.24,5.2.8,11.6,1.2,15.6,1.2,12.4,0,26.4-3.2,33.6-7.6-2-10.8-4.8-37.6-4.8-57.59,8,15.2,16.4,35.59,22.8,51.59,2,4.4,4,10.4,5.6,13.6,6.4,2,14.8,2.4,23.6,2.4,14.93,0,31.31-2.2,38.66-6.6.33-.19.65-.39.94-.6,1.35-6.3,2.36-13.84,3.1-22.21v-.02c1.23-13.95,1.7-30.22,1.7-46.96,0-21.87-.65-44.06-1.53-62.16Z"/>
    <path class="cls-2" d="M363.86,130.6c-1.2-7.6-7.6-10.4-17.6-10.4-8.8,0-20.4,2.8-32,7.6,0,15.6.8,23.79,1.6,28.19l4.4-.2c22.8-1.2,46-9.59,43.6-25.19ZM323.26,147.59c-.6-3.6-1-8.19-1-14.59,8.8-3.2,16.8-4.8,24-4.8,5.2,0,9.2,1.2,9.6,4,1.2,8.6-15.2,13.6-32.6,15.39ZM355.06,77.4c-1.6-6.4-8-10.4-16.8-10.4-6.4,0-14,1.6-21.6,6l-2,1c-.8,6.4-.4,20.6,0,27,25.6,0,43.6-9.6,40.4-23.6ZM321.86,93c-.4-4-.2-9,.4-13.6,6.2-3,11.6-4.4,16-4.4s7.6,2,8.8,4.4c-.4,6.8-10,12.8-25.2,13.6ZM355.06,77.4c-1.6-6.4-8-10.4-16.8-10.4-6.4,0-14,1.6-21.6,6l-2,1c-.8,6.4-.4,20.6,0,27,25.6,0,43.6-9.6,40.4-23.6ZM321.86,93c-.4-4-.2-9,.4-13.6,6.2-3,11.6-4.4,16-4.4s7.6,2,8.8,4.4c-.4,6.8-10,12.8-25.2,13.6ZM363.86,130.6c-1.2-7.6-7.6-10.4-17.6-10.4-8.8,0-20.4,2.8-32,7.6,0,15.6.8,23.79,1.6,28.19l4.4-.2c22.8-1.2,46-9.59,43.6-25.19ZM323.26,147.59c-.6-3.6-1-8.19-1-14.59,8.8-3.2,16.8-4.8,24-4.8,5.2,0,9.2,1.2,9.6,4,1.2,8.6-15.2,13.6-32.6,15.39ZM409.46,125.4c-1.2-13.2-9.2-23.6-24.8-26.4,9.2-8.8,13.2-22,10.4-34.8-.44-1.94-1.07-3.87-1.88-5.78-1.61-3.77-3.93-7.44-6.97-10.84-9.44-10.6-25.72-18.58-48.35-18.58-14.45,0-32.33,3.43-53.32,11.88-1.67.68-3.37,1.38-5.08,2.12-1.2,4.8-1,7.2-1.4,12.4l6.4,11.6,1.07-8.96,1.13-9.44c19.2-8,37.2-11.6,51.2-11.6,29.6,0,46,14.4,49.2,28.8,2.8,13.2-4,26.4-18,33.6l-12.6,8,14.6-1.2c19.6-.8,29.6,7.6,30.4,20,2.8,28.39-22.4,59.59-97.6,59.59-4.8,0-10.4.4-15.2,0-1.22-4.26-2.43-11.99-3.3-18.61v-.02c-.27-2.08-.51-4.05-.7-5.77l-6.2,8.4c.68,8.53,1.22,13.85,2.86,20.2.27,1.09.59,2.22.94,3.4,6.4.4,15.6.4,21.6.4,38.92,0,65.41-8.8,82.13-21.49,2.74-2.07,5.21-4.25,7.43-6.51,11.99-12.19,16.73-26.77,16.04-40.39ZM314.26,127.8c0,15.6.8,23.79,1.6,28.19l4.4-.2c22.8-1.2,46-9.59,43.6-25.19-1.2-7.6-7.6-10.4-17.6-10.4-8.8,0-20.4,2.8-32,7.6ZM355.86,132.2c1.2,8.6-15.2,13.6-32.6,15.39-.6-3.6-1-8.19-1-14.59,8.8-3.2,16.8-4.8,24-4.8,5.2,0,9.2,1.2,9.6,4ZM338.26,67c-6.4,0-14,1.6-21.6,6l-2,1c-.8,6.4-.4,20.6,0,27,25.6,0,43.6-9.6,40.4-23.6-1.6-6.4-8-10.4-16.8-10.4ZM321.86,93c-.4-4-.2-9,.4-13.6,6.2-3,11.6-4.4,16-4.4s7.6,2,8.8,4.4c-.4,6.8-10,12.8-25.2,13.6ZM363.86,130.6c-1.2-7.6-7.6-10.4-17.6-10.4-8.8,0-20.4,2.8-32,7.6,0,15.6.8,23.79,1.6,28.19l4.4-.2c22.8-1.2,46-9.59,43.6-25.19ZM323.26,147.59c-.6-3.6-1-8.19-1-14.59,8.8-3.2,16.8-4.8,24-4.8,5.2,0,9.2,1.2,9.6,4,1.2,8.6-15.2,13.6-32.6,15.39ZM355.06,77.4c-1.6-6.4-8-10.4-16.8-10.4-6.4,0-14,1.6-21.6,6l-2,1c-.8,6.4-.4,20.6,0,27,25.6,0,43.6-9.6,40.4-23.6ZM321.86,93c-.4-4-.2-9,.4-13.6,6.2-3,11.6-4.4,16-4.4s7.6,2,8.8,4.4c-.4,6.8-10,12.8-25.2,13.6Z"/>
    <path class="cls-2" d="M471.46,108.6c-1.6-22-10.8-34.8-28-34.8-4.4,0-9.6,1.2-17.2,4-1.6,10-2.4,22-2.4,33.2,0,15.2,1.2,33.99,2,44.39l3.6.81c30,2.79,43.6-19.21,42-47.6ZM433.66,148.39c-.8-10.19-1.8-23.79-1.8-37.39,0-10,.4-19.6,1.6-27.6,4.4-1.2,6.8-1.6,10-1.6,12,0,18.4,10.4,20,27.6,1.6,21.8-8.2,38.99-29.8,38.99ZM515.06,106.2c-.86-19.46-6.24-35.95-15.84-48.43-1.65-2.15-3.43-4.19-5.34-6.1-12.68-12.71-30.85-19.87-54.02-19.87-14.4,0-31.6,3.2-52.4,10.4-.56,1.79-.96,3.64-1.25,5.38-.75,4.48-.75,8.22-.75,8.22l7.6,4.4s.04-.69.12-1.78c.19-2.54.64-7.26,1.48-10.62,16.8-5.6,31.2-8,45.2-8,41.6,0,65.2,26,67.2,66.4,2,50-26,82.79-80.8,82.79-9.6,0-20-1.2-31.6-3.2-1.09-5.97-1.25-14.89-1.24-20,0-2.43.04-4,.04-4l-7.4,8s-.04.93-.07,2.51c-.06,4.17.02,12.85,1.47,20.69,14,2.8,26.8,4,38.8,4,30.07,0,52.9-9.04,67.9-24.96,1.83-1.94,3.54-3.98,5.13-6.12,11.43-15.34,16.82-35.72,15.77-59.71ZM471.46,108.6c-1.6-22-10.8-34.8-28-34.8-4.4,0-9.6,1.2-17.2,4-1.6,10-2.4,22-2.4,33.2,0,15.2,1.2,33.99,2,44.39l3.6.81c30,2.79,43.6-19.21,42-47.6ZM433.46,83.4c4.4-1.2,6.8-1.6,10-1.6,12,0,18.4,10.4,20,27.6,1.6,21.8-8.2,38.99-29.8,38.99-.8-10.19-1.8-23.79-1.8-37.39,0-10,.4-19.6,1.6-27.6ZM471.46,108.6c-1.6-22-10.8-34.8-28-34.8-4.4,0-9.6,1.2-17.2,4-1.6,10-2.4,22-2.4,33.2,0,15.2,1.2,33.99,2,44.39l3.6.81c30,2.79,43.6-19.21,42-47.6ZM433.66,148.39c-.8-10.19-1.8-23.79-1.8-37.39,0-10,.4-19.6,1.6-27.6,4.4-1.2,6.8-1.6,10-1.6,12,0,18.4,10.4,20,27.6,1.6,21.8-8.2,38.99-29.8,38.99Z"/>
    <path class="cls-2" d="M548.25,67h.4c-21.2.4-32,23.2-32,44.8,0,20.4,9.6,39.19,30.8,37.99,20.8-1.2,30-20.79,30-40.79,0-21.2-10.8-43.2-29.2-42ZM546.65,141.8c-15.2,1.19-22-14-22-30,0-18,8.4-36.4,24-36.8,13.2-.8,20.8,16.8,20.8,34,0,16-6.8,31.59-22.8,32.8ZM607.02,58.1c-1.5-2.37-3.11-4.66-4.81-6.85-12.41-15.92-30.14-26.66-52.36-27.05-24.21-.37-42.87,11.04-55.97,27.47-.98,1.22-1.92,2.46-2.83,3.73l6.41,4.8c.57-.82,1.15-1.64,1.76-2.43,11.61-15.48,28.95-25.95,50.63-25.57,41.2.8,64.8,42,64.8,81.6,0,36.79-20.4,71.59-66.4,71.59-21.18,0-38.06-7.51-48.96-19.48-.63-.69-1.24-1.4-1.83-2.12l-6.41,4.8c.99,1.18,2.02,2.33,3.11,3.44,12.52,12.89,31.27,21.36,54.09,21.36,23.96,0,41.72-8.37,53.85-21.42,1.84-1.96,3.54-4.04,5.11-6.2,10.5-14.42,15.44-32.98,15.44-51.97s-5.44-39.61-15.63-55.7ZM516.65,111.8c0,20.4,9.6,39.19,30.8,37.99,20.8-1.2,30-20.79,30-40.79,0-21.2-10.8-43.2-29.2-42h.4c-21.2.4-32,23.2-32,44.8ZM548.65,75c13.2-.8,20.8,16.8,20.8,34,0,16-6.8,31.59-22.8,32.8-15.2,1.19-22-14-22-30,0-18,8.4-36.4,24-36.8ZM548.25,67h.4c-21.2.4-32,23.2-32,44.8,0,20.4,9.6,39.19,30.8,37.99,20.8-1.2,30-20.79,30-40.79,0-21.2-10.8-43.2-29.2-42ZM546.65,141.8c-15.2,1.19-22-14-22-30,0-18,8.4-36.4,24-36.8,13.2-.8,20.8,16.8,20.8,34,0,16-6.8,31.59-22.8,32.8Z"/>
    <path class="cls-2" d="M710.65,99c-5.6-3.6-11.6-4.8-18-4.8-8.8,0-20,2.8-29.2,8.4,2.4,12.4,5.2,27.6,6.4,39.6-3.2,1.6-8.4,3.6-11.6,3.6-12.4,0-23.2-12.8-24.4-36.8-1.2-23.6,9.6-37.2,21.2-37.2,6,0,12.4,4,19.2,13.2,14-2.8,31.2-17.2,33.2-29.6-10.4-20.8-30.4-31.2-50.4-31.2s-40.17,9.02-54.84,27.05c-1.09,1.33-2.14,2.72-3.16,4.15l6.4,4.8c.51-.71,1.03-1.42,1.57-2.1,13.15-17.03,31.96-25.9,50.03-25.9s34,7.6,42.4,24c-2,7.6-13.2,16.8-22,20-6.8-8-14.8-12.4-22.4-12.4-16,0-30.4,16.8-29.2,45.2,1.2,28.8,16,44.79,32.4,44.79,6.4,0,13.2-2.8,20-7.59-1.2-12.8-3.2-27.6-5.6-40.4,5.6-2.4,13.2-3.6,20-3.6,4.4,0,8.4.4,10.8,1.2,3.2,20.4,6,51.19,5.2,64.39-1.2,1.2-3.2,1.2-4.8,1.6l-5.6,2.8c-10.8,8-26.4,12.8-42.8,12.8-17.58,0-35.52-5.48-48.24-19.22-.61-.64-1.19-1.3-1.76-1.98l-6.4,4.8c.99,1.17,2,2.3,3.05,3.38,14.58,15.1,34.31,21.02,53.35,21.02,17.6,0,35.2-5.6,47.6-14.4l4-2,8.8-4.4c1.2-13.6-1.6-50.39-5.2-73.19Z"/>
  </g>
  <g>
    <g>
      <circle class="cls-3" cx="509.21" cy="229.59" r="22"/>
      <polygon class="cls-4" points="502.09 226.67 509.21 219.55 516.34 226.67 520.48 222.53 509.21 211.26 497.95 222.52 502.09 226.67"/>
      <rect class="cls-4" x="492.09" y="226.66" width="5.86" height="5.86" transform="translate(-17.36 417.28) rotate(-45)"/>
      <polygon class="cls-4" points="502.09 232.52 509.21 239.64 516.34 232.52 520.48 236.66 520.48 236.66 509.21 247.93 497.95 236.66 497.94 236.66 502.09 232.52"/>
      <rect class="cls-4" x="520.47" y="226.66" width="5.86" height="5.86" transform="translate(-9.05 437.35) rotate(-45)"/>
      <polygon class="cls-4" points="513.41 229.59 513.42 229.59 509.21 225.39 506.1 228.49 506.1 228.49 505.75 228.85 505.01 229.59 505.01 229.59 505 229.59 505.01 229.6 509.21 233.8 513.42 229.6 513.42 229.59 513.41 229.59"/>
    </g>
    <g>
      <path class="cls-2" d="M559.01,228.88c.31.17.62.39.93.64.31.25.6.56.86.93.26.37.47.8.64,1.28.16.48.25,1.04.25,1.66,0,1.26-.2,2.3-.6,3.13-.4.82-.94,1.48-1.62,1.98-.68.49-1.46.84-2.34,1.05-.88.2-1.81.31-2.78.31h-9.23c-.19,0-.36-.07-.49-.2-.14-.14-.2-.3-.2-.49v-19.9c0-.19.07-.36.2-.49s.3-.2.49-.2h8.79c.93,0,1.82.1,2.68.31s1.6.54,2.26,1c.65.47,1.17,1.07,1.57,1.82.4.75.6,1.66.6,2.75,0,.87-.22,1.63-.65,2.27-.44.64-.91,1.15-1.41,1.51-.35.25-.33.48.06.67ZM550.89,226.64h2.71c.39,0,.7-.15.93-.45.23-.3.35-.64.35-1,0-.35-.14-.65-.42-.9-.28-.25-.55-.38-.8-.38h-2.76c-.19,0-.36.07-.49.2s-.2.3-.2.49v1.34c0,.19.07.36.2.49.14.14.3.2.49.2ZM553.94,231.44h-3.05c-.19,0-.36.07-.49.2-.14.14-.2.3-.2.49v1.66c0,.19.07.36.2.49.14.14.3.2.49.2h3.26c.35,0,.68-.15.99-.44.31-.29.47-.63.47-1.02,0-.35-.15-.7-.45-1.06-.3-.36-.7-.54-1.21-.54Z"/>
      <path class="cls-2" d="M570.12,239.85h-4.37c-.21,0-.38-.07-.51-.2-.13-.14-.19-.3-.19-.49v-19.88c0-.19.06-.36.19-.49.13-.14.29-.2.51-.2h4.37c.19,0,.36.07.49.2.14.14.2.3.2.49v19.88c0,.19-.07.36-.2.49-.13.14-.3.2-.49.2Z"/>
      <path class="cls-2" d="M594.74,219.25v19.9c0,.19-.07.36-.2.49-.14.14-.3.2-.49.2h-4.3c-.19,0-.4-.06-.61-.17s-.38-.25-.49-.41l-7.58-10.68c-.12-.16-.24-.22-.36-.19s-.19.14-.19.33v10.42c0,.19-.07.36-.2.49-.14.14-.3.2-.5.2h-4.36c-.2,0-.36-.07-.5-.2-.14-.14-.2-.3-.2-.49v-19.9c0-.19.07-.36.2-.49.13-.14.3-.2.49-.2h4.36c.19,0,.4.05.61.16.21.11.38.24.49.39l7.57,10.68c.12.16.24.22.36.2.13-.02.19-.13.19-.32v-10.42c0-.19.07-.36.2-.49.13-.14.3-.2.49-.2h4.31c.19,0,.36.07.49.2.14.14.2.3.2.49Z"/>
      <path class="cls-2" d="M605.39,219.22c.08-.17.21-.32.39-.45.18-.13.38-.19.6-.19h4.07c.19,0,.38.06.57.19.18.13.31.28.39.45l8.5,19.79c.08.17.06.36-.04.55-.11.19-.31.29-.63.29h-4.98c-.21,0-.41-.06-.6-.19s-.32-.28-.42-.45l-.79-1.75c-.1-.17-.24-.33-.42-.45s-.37-.19-.57-.19h-6.14c-.21,0-.41.06-.6.19-.18.13-.32.28-.39.45l-.81,1.75c-.08.17-.21.33-.39.45-.18.13-.37.19-.57.19h-5.01c-.1,0-.2-.02-.31-.06s-.19-.1-.26-.17c-.07-.08-.11-.17-.13-.29-.02-.12,0-.25.09-.41l8.44-19.7ZM607.11,231.88h2.59c.19,0,.33-.06.42-.19s.08-.28-.01-.45c-.19-.48-.43-1.05-.7-1.7-.27-.65-.52-1.26-.76-1.82-.08-.17-.16-.26-.26-.26s-.18.09-.26.26l-1.46,3.52c-.08.17-.08.33,0,.45.08.13.22.19.44.19Z"/>
      <path class="cls-2" d="M641.97,219.25v19.9c0,.19-.07.36-.2.49-.14.14-.3.2-.49.2h-4.3c-.19,0-.4-.06-.61-.17s-.38-.25-.49-.41l-7.58-10.68c-.12-.16-.24-.22-.36-.19s-.19.14-.19.33v10.42c0,.19-.07.36-.2.49-.14.14-.3.2-.5.2h-4.36c-.2,0-.36-.07-.5-.2-.14-.14-.2-.3-.2-.49v-19.9c0-.19.07-.36.2-.49.13-.14.3-.2.49-.2h4.36c.19,0,.4.05.61.16.21.11.38.24.49.39l7.57,10.68c.12.16.24.22.36.2.13-.02.19-.13.19-.32v-10.42c0-.19.07-.36.2-.49.13-.14.3-.2.49-.2h4.31c.19,0,.36.07.49.2.14.14.2.3.2.49Z"/>
      <path class="cls-2" d="M666.91,234.21c-.56.91-1.18,1.73-1.86,2.48-.68.74-1.44,1.38-2.28,1.9-.84.52-1.78.93-2.81,1.22-1.03.29-2.16.43-3.41.43-1.55,0-3.01-.29-4.36-.87s-2.55-1.37-3.57-2.36-1.82-2.15-2.4-3.49c-.58-1.34-.87-2.76-.87-4.28s.29-2.94.87-4.28c.58-1.34,1.38-2.5,2.4-3.49s2.21-1.77,3.57-2.36,2.81-.87,4.36-.87c1.28,0,2.43.15,3.46.44,1.03.29,1.96.7,2.79,1.22.83.52,1.59,1.16,2.26,1.91.67.75,1.28,1.57,1.85,2.46.1.16.12.32.06.49-.06.17-.17.3-.35.38l-4.13,1.63c-.19.08-.39.08-.58,0s-.34-.19-.44-.35c-.56-.89-1.24-1.58-2.04-2.05s-1.76-.71-2.88-.71c-.74,0-1.43.16-2.08.47s-1.22.72-1.7,1.24c-.48.52-.86,1.11-1.13,1.79-.27.68-.41,1.38-.41,2.1s.13,1.44.41,2.12c.27.67.65,1.26,1.13,1.77.49.51,1.05.91,1.7,1.23.65.31,1.34.47,2.08.47,1.07,0,2.03-.26,2.9-.77.86-.51,1.55-1.18,2.05-1.99.1-.16.24-.27.42-.35.18-.08.37-.08.57,0l4.13,1.63c.17.08.29.2.35.36.06.17.04.34-.06.51Z"/>
      <path class="cls-2" d="M674.82,224.6v1.22c0,.19.07.36.2.49.13.14.3.2.49.2h7.89c.19,0,.36.07.49.2.14.14.2.3.2.49v4.02c0,.19-.07.36-.2.49s-.3.2-.49.2h-7.89c-.19,0-.36.07-.49.2-.14.14-.2.3-.2.49v1.11c0,.19.07.36.2.49.13.14.3.2.49.2h9.05c.19,0,.36.07.49.2.14.14.2.3.2.49v4.02c0,.19-.07.36-.2.49-.13.14-.3.2-.49.2h-14.81c-.19,0-.36-.07-.49-.2-.14-.14-.2-.3-.2-.49v-19.9c0-.19.07-.36.2-.49.13-.14.3-.2.49-.2h14.81c.19,0,.36.07.49.2.14.14.2.3.2.49v3.96c0,.19-.07.36-.2.49-.13.14-.3.2-.49.2h-9.05c-.19,0-.36.07-.49.2-.14.14-.2.3-.2.49Z"/>
    </g>
  </g>
</svg>