<svg width="216" height="41" viewBox="0 0 216 41" fill="none" xmlns="http://www.w3.org/2000/svg">
<g clip-path="url(#clip0_2001_1484)">
<path d="M58.4496 35.7899V5.81946H66.2515V29.7941H79.9805V35.7899H58.4496Z" fill="#F8E19A"/>
<path d="M216 35.7899L200.785 20.8977L216 6.0055H204.863L195.221 15.4516V5.81946H187.419V35.7899H195.221V26.3438L204.863 35.7899H216Z" fill="#F8E19A"/>
<path d="M127.112 29.9801L125.254 35.7899H117.089L127.673 5.81946H138.059L148.643 35.7899H140.478L138.62 29.9801L136.763 24.348L132.866 11.8152L128.779 24.348L127.112 29.9801Z" fill="#F8E19A"/>
<path d="M161.257 16.1789V35.7899H153.835V5.81946H163.486L174.986 26.3438V5.81946H182.416V35.7899H172.765L161.257 16.1789Z" fill="#F8E19A"/>
<path d="M111.344 24.1704C110.972 23.2655 110.419 22.5382 109.858 21.811C109.305 21.2697 108.562 20.7201 107.628 20.3564C106.885 19.9928 105.961 19.8152 105.218 19.6291C105.961 19.4516 106.704 19.2655 107.447 18.9019C108.19 18.5382 108.743 18.1746 109.305 17.6334C109.858 17.0921 110.229 16.5425 110.419 15.6376C110.791 14.9103 110.791 14.0055 110.791 13.0921C110.791 12.1873 110.609 11.274 110.419 10.3691C110.048 9.46424 109.676 8.73697 108.752 8.00969C108.009 7.28242 107.084 6.7412 105.78 6.37756C104.484 6.01392 102.997 5.83633 101.14 5.83633H84.9917V35.8067H102.246C105.399 35.8067 107.629 35.0795 109.296 33.6249C110.964 32.1704 111.707 30.1746 111.707 27.6291C111.897 26.3437 111.715 25.2528 111.344 24.1704ZM92.9664 10.7243H101.131C101.874 10.7243 102.427 10.9019 102.989 11.0879C103.542 11.2655 103.913 11.4516 104.285 11.8152C104.656 12.1788 104.838 12.5425 105.028 12.9061C105.209 13.2697 105.209 13.6334 105.209 14.1746C105.209 15.0795 104.838 15.9928 104.285 16.534C103.732 17.2613 102.617 17.4389 101.131 17.4389H92.9664V10.7243ZM105.218 29.4304C104.665 30.1577 103.55 30.3353 102.064 30.3353H92.9664V23.6122H102.056C102.799 23.6122 103.352 23.7898 103.913 23.9759C104.466 24.1535 104.838 24.3395 105.209 24.7031C105.581 25.0668 105.762 25.4304 105.952 25.7941C106.134 26.1577 106.134 26.5213 106.134 27.0625C106.142 27.9843 105.961 28.8892 105.218 29.4304Z" fill="#F8E19A"/>
<path d="M20.4163 40.8813C31.6919 40.8813 40.8326 31.9346 40.8326 20.8982C40.8326 9.86189 31.6919 0.915161 20.4163 0.915161C9.1407 0.915161 0 9.86189 0 20.8982C0 31.9346 9.1407 40.8813 20.4163 40.8813Z" fill="#F8E19A"/>
<path d="M25.8163 23.5192C27.3862 23.5192 28.6589 22.2584 28.6589 20.7032C28.6589 19.1479 27.3862 17.8871 25.8163 17.8871C24.2464 17.8871 22.9737 19.1479 22.9737 20.7032C22.9737 22.2584 24.2464 23.5192 25.8163 23.5192Z" fill="#5B5347"/>
<path d="M33.5923 24.8639L33.5059 24.7371L33.48 24.7032C33.1689 24.2212 33.0739 24.1197 32.927 23.8999C30.8448 20.7624 32.0371 18.7498 32.9702 17.718C33.0825 17.5912 33.1949 17.4474 33.2899 17.329C33.4281 17.1684 33.5577 16.9908 33.6528 16.8047L33.6701 16.7794C33.8515 16.4242 33.9465 16.0267 33.9465 15.6208C33.9465 15.6123 33.9465 15.5954 33.9465 15.587C33.8169 14.1832 32.616 13.1007 31.1731 13.1007C29.7302 13.1007 28.5293 14.1747 28.3997 15.587C28.3997 16.0352 28.5206 16.4834 28.7366 16.8808C28.7712 16.9485 28.9267 17.1514 28.944 17.1853C28.9785 17.236 29.0131 17.2868 29.0649 17.329C29.16 17.4474 29.2637 17.5574 29.376 17.6588C29.6525 17.9633 29.8944 18.2931 30.0931 18.6398C30.4214 19.2994 30.5942 20.0267 30.5942 20.7624C30.5942 21.8111 30.2486 22.8259 29.6093 23.6715L28.9181 24.644C28.8921 24.6694 28.8749 24.7032 28.8576 24.7286L28.8403 24.754C28.5725 25.1768 28.4256 25.6588 28.4256 26.1578C28.4256 26.1747 28.4256 26.1916 28.4256 26.2085C28.5552 27.6123 29.7561 28.6948 31.199 28.6948C32.6419 28.6948 33.8429 27.6208 33.9725 26.2085C33.9725 25.735 33.8429 25.2698 33.5923 24.8639Z" fill="#5B5347"/>
<path d="M22.7059 24.7031C22.3949 24.221 22.2998 24.1195 22.1529 23.8997C20.0707 20.7622 21.263 18.7496 22.1961 17.7179C22.3085 17.591 22.4208 17.4472 22.5158 17.3288C22.6541 17.1682 22.7837 16.9906 22.8787 16.8045L22.896 16.7792C23.0774 16.4155 23.1725 16.0096 23.1725 15.6037C23.1725 15.5952 23.1725 15.5952 23.1725 15.5868C23.1725 15.5699 23.1725 15.5529 23.1725 15.536C23.1725 14.0307 21.9283 12.813 20.3904 12.813C18.8525 12.813 17.5997 14.0307 17.5997 15.5445C17.5997 16.0181 17.7206 16.4832 17.9625 16.8891C17.9971 16.9568 18.1526 17.1597 18.1699 17.1935C18.2045 17.2443 18.239 17.295 18.2909 17.3373C18.3859 17.4557 18.4896 17.5656 18.6019 17.6671C18.8784 17.9631 19.1203 18.3014 19.3277 18.6481C19.6646 19.3077 19.8374 20.0434 19.8374 20.7876C19.8374 21.8278 19.4918 22.8426 18.8611 23.6798C18.4032 24.3056 17.9366 24.72 17.2454 25.0921C14.3424 26.4451 11.9923 24.5762 11.9923 24.5762L11.759 24.3902C11.5862 24.2548 11.4307 24.0942 11.3184 23.9081C9.23613 20.7707 10.4285 18.758 11.3616 17.7263C11.4739 17.5995 11.5862 17.4557 11.6813 17.3373C11.8195 17.1766 11.9491 16.999 12.0441 16.8045L12.0614 16.7792C12.2515 16.4071 12.3552 16.0011 12.3552 15.5868C12.2256 14.183 11.0246 13.1005 9.58173 13.1005C8.13885 13.1005 6.93789 14.1745 6.80829 15.5868C6.80829 16.035 6.92925 16.4832 7.14525 16.8806C7.17981 16.9483 7.33533 17.1513 7.35261 17.1935C7.38717 17.2443 7.42173 17.295 7.47357 17.3373C7.56861 17.4557 7.67229 17.5656 7.78461 17.6671C8.06109 17.9631 8.30301 18.3014 8.50173 18.6481C8.83005 19.3077 9.00285 20.035 9.00285 20.7707C9.00285 21.8193 8.65725 22.8341 8.01789 23.6798L7.66365 24.1703C7.11069 24.6861 6.79965 25.3965 6.79965 26.1407V26.1999C6.82557 27.6883 8.06973 28.8806 9.58173 28.8806C10.3161 28.8806 11.0246 28.5931 11.5517 28.0857C11.6899 27.9927 11.7763 27.925 11.9059 27.8489C15.1113 25.8109 17.1677 26.9779 18.2217 27.8912C18.3081 27.9673 18.3945 28.035 18.4809 28.1026C18.9993 28.6016 19.6992 28.8806 20.4336 28.8806C21.9542 28.8806 23.1984 27.6798 23.2157 26.1914C23.1897 25.6248 23.0342 25.1766 22.7059 24.7031Z" fill="#5B5347"/>
</g>
<defs>
<clipPath id="clip0_2001_1484">
<rect width="216" height="40" fill="white" transform="translate(0 0.897705)"/>
</clipPath>
</defs>
</svg>
