<?xml version="1.0" encoding="utf-8"?>
<!-- Generator: Adobe Illustrator 28.4.1, SVG Export Plug-In . SVG Version: 6.00 Build 0)  -->
<svg version="1.1" id="Layer_1" xmlns="http://www.w3.org/2000/svg" xmlns:xlink="http://www.w3.org/1999/xlink" x="0px" y="0px"
	 viewBox="0 0 114 38" style="enable-background:new 0 0 114 38;" xml:space="preserve">
<style type="text/css">
	.st0{fill:#C4BAE3;}
</style>
<g>
	<path class="st0" d="M0.7,9.9c2.7-1.1,5.7-1.3,7.8-1.3c7.9,0,9.4,5.2,5.6,8.9l-1.3,0.8c3.8-0.1,4.7,2.1,4.8,3.7
		c0.2,3.3-3.2,8.2-14.2,8.2c-0.8,0-1.6,0-2.4-0.1C0.3,27.6,0,23.7,0,19.8C0,16.1,0.2,12.2,0.7,9.9z M10.9,14.1
		c-0.2-0.9-1.2-1.5-2.6-1.5c-0.9,0-2.1,0.2-3.5,1c-0.1,0.9-0.1,2.8,0,4.1C8.5,17.5,11.3,16,10.9,14.1z M12,21.9
		c-0.2-1-1.2-1.5-2.6-1.5c-1.3,0-3,0.4-4.7,1.1c0,2.3,0.2,3.5,0.3,4.1h0.6C9,25.5,12.3,24,12,21.9z"/>
	<path class="st0" d="M18.7,19.1c0-3.8,0.2-7.3,0.7-9.4C20.2,9.4,21.7,9,23,9c0.5,0,1,0.1,1.4,0.2l1,1.6c1.9,3.2,5,8.7,7.1,12.9
		v-2.1c0-3-0.3-5.2-0.6-7.6c-0.2-1.9-0.5-3.9-0.6-6.3c0.6-0.1,1.4-0.2,2.3-0.2c1.2,0,2.7,0.2,3.8,0.7c0.2,2.8,0.4,7.5,0.4,12.1
		c0,3.7-0.2,7.4-0.6,9.7c-0.8,0.4-2.8,0.6-4.8,0.6c-1,0-1.9-0.1-2.7-0.2l-0.5-1.1c-1.3-3-3.1-7.4-5.6-11.2c-0.2,2.4-0.2,3.1-0.2,3.8
		c0,2.8,0.3,6.3,0.6,8c-1.1,0.5-3,0.9-4.8,0.8C18.9,27.8,18.7,23.3,18.7,19.1z"/>
	<path class="st0" d="M39.7,9.9c2.7-1.1,5.7-1.3,7.8-1.3c7.9,0,9.4,5.2,5.6,8.9l-1.3,0.8c3.8-0.1,4.7,2.1,4.8,3.7
		c0.2,3.3-3.2,8.2-14.2,8.2c-0.8,0-1.6,0-2.4-0.1c-0.6-2.5-0.9-6.4-0.9-10.2C39.1,16.1,39.3,12.2,39.7,9.9z M50,14.1
		c-0.2-0.9-1.2-1.5-2.6-1.5c-0.9,0-2.1,0.2-3.5,1c-0.1,0.9-0.1,2.8,0,4.1C47.6,17.5,50.4,16,50,14.1z M51.1,21.9
		c-0.2-1-1.2-1.5-2.6-1.5c-1.3,0-3,0.4-4.7,1.1c0,2.3,0.2,3.5,0.3,4.1h0.6C48,25.5,51.3,24,51.1,21.9z"/>
	<path class="st0" d="M58.5,9.7c2.5-0.8,4.7-1.2,6.7-1.2c6.2,0,9.7,3.9,9.8,9.9c0.2,7.4-3.8,12.2-11.8,12.2c-1.4,0-3-0.1-4.8-0.5
		c-0.5-2.7-0.7-6.6-0.7-10.6C57.7,15.9,58,12.3,58.5,9.7z M69.8,18.7c-0.2-3.2-1.5-5.1-4.1-5.1c-0.6,0-1.4,0.2-2.5,0.6
		c-0.3,1.9-0.5,4.2-0.5,6.3c0,1.8,0.2,3.9,0.4,5.3l0.5,0.1C68.1,26,70.1,22.8,69.8,18.7z"/>
	<path class="st0" d="M86.2,7.4c6,0.1,9.6,6.3,9.4,12C95.4,26,92.1,30,85.9,30c-7.1,0-9.7-5.3-9.7-10.7C76.3,13.4,79.8,7.3,86.2,7.4
		z M85.8,24.7c3.1-0.2,4.4-3.1,4.4-6c0-3.1-1.6-6.3-4.3-6.2c-3.1,0.1-4.7,3.4-4.7,6.6C81.2,22.1,82.7,24.9,85.8,24.7z"/>
	<path class="st0" d="M101.1,28.4L101.1,28.4c-3.1-1.9-4.4-5.5-4.4-9.3c0-1.3,0.1-2.6,0.4-3.9c1-4.5,4.4-7.8,9.3-7.8
		c2.5,0.1,5,1.2,6.2,3.6c-0.3,1.1-1.9,2.5-3.2,2.9c-1-1.2-2.2-1.8-3.3-1.8c-2.4,0-4.5,2.5-4.3,6.7c0.2,4.3,2.4,6.6,4.8,6.6
		c0.9,0,2-0.4,3-1.1c-0.2-1.8-0.5-4.1-0.9-5.9c0.8-0.4,1.9-0.5,3.1-0.5c0.6,0,1.1,0.1,1.5,0.2c0.5,3.1,0.9,7.7,0.8,9.4
		c-0.4,0.2-1.2,0.5-1.5,0.6c-1.5,1.2-3.7,1.8-5.8,1.8C104.6,29.8,102.7,29.4,101.1,28.4z"/>
</g>
</svg>
