<svg width="230" height="43" viewBox="0 0 230 43" fill="none" xmlns="http://www.w3.org/2000/svg">
<g clip-path="url(#clip0_2001_1473)">
<path d="M67.2464 30.5642L52.4663 4.90971C49.2253 -0.434319 41.3342 -0.497007 38.2029 5.12911L22.7025 31.8022C19.806 36.6918 23.3914 42.8351 29.1845 42.8351H60.2634C66.1035 42.8351 70.4874 36.5351 67.2464 30.5642Z" fill="#3156AA"/>
<path d="M45.9374 32.5545L45.0293 30.956C44.1838 29.4828 42.305 26.2858 42.305 26.2858L29.7951 4.56493C26.5698 -0.261936 18.8979 -0.669399 15.6569 5.42687L1.11164 30.6112C-1.89449 35.9082 1.67529 42.7881 8.21988 42.8351H39.1266H52.3097H60.1538C52.1375 42.8978 49.5698 38.7448 45.9374 32.5545Z" fill="#1972E2"/>
<path d="M45.9374 32.5545L45.0293 30.956C44.1838 29.4828 42.305 26.2858 42.305 26.2858L34.1477 12.1187L22.6399 31.8649C19.7434 36.7545 23.3288 42.8978 29.1219 42.8978H39.064H52.2471H60.1382C52.0749 42.8351 49.5698 38.7448 45.9374 32.5545Z" fill="url(#paint0_linear_2001_1473)"/>
<path d="M126.445 40.4687V5.77173H155.254V7.96576C155.254 9.70531 153.861 11.1001 152.123 11.1001H133.632V20.4247H152.123V25.7531H133.632V35.0777H152.123C153.845 35.0777 155.254 36.4725 155.254 38.212V40.4061L126.445 40.4687Z" fill="white"/>
<path d="M196.635 5.77161H189.856C188.587 5.77161 187.46 6.30444 186.662 7.30743L178.473 17.635L170.285 7.38579C169.486 6.3828 168.359 5.84996 167.091 5.84996H160.311L174.089 23.1671L160.311 40.4843H167.091C168.359 40.4843 169.486 39.9515 170.285 38.9485L178.473 28.6992L186.724 39.0268C187.523 39.9515 188.65 40.5626 189.918 40.5626H196.698L182.92 23.2455L196.635 5.77161Z" fill="white"/>
<path d="M103.884 36.8014L113.325 20.2835V40.3903H120.511V5.70891H116.049C114.656 5.70891 113.325 6.44548 112.651 7.71488L101.347 28.3544L90.0429 7.69921C89.3696 6.4298 88.0388 5.69324 86.6453 5.69324H82.1988V40.3903H89.3853V20.2835L98.8264 36.8014H103.884Z" fill="white"/>
<path d="M215.408 40.8605C205.434 40.9858 197.308 33.1343 197.246 23.1515C197.246 17.6821 198.905 13.153 202.037 10.0343C205.168 6.96271 209.693 5.30151 215.079 5.30151C221.404 5.30151 226.383 7.49554 229.984 11.7582L227.73 13.6858C226.336 14.8769 224.27 14.9552 222.735 13.8269C220.731 12.2911 218.21 11.5545 215.345 11.5545C208.3 11.5545 204.103 15.8172 204.103 23.0105C204.103 30.2664 208.425 34.7329 215.345 34.7329C218.273 34.7329 220.731 33.9336 222.735 32.4761C224.207 31.3478 226.258 31.4105 227.73 32.6172L229.984 34.5448C226.383 38.7291 221.592 40.8605 215.408 40.8605Z" fill="white"/>
</g>
<defs>
<linearGradient id="paint0_linear_2001_1473" x1="19.253" y1="22.9346" x2="52.9278" y2="36.1429" gradientUnits="userSpaceOnUse">
<stop stop-color="#264CA2" stop-opacity="0"/>
<stop offset="1" stop-color="#234588"/>
</linearGradient>
<clipPath id="clip0_2001_1473">
<rect width="230" height="42" fill="white" transform="translate(0 0.897705)"/>
</clipPath>
</defs>
</svg>
