<?xml version="1.0" encoding="utf-8"?>
<!-- Generator: Adobe Illustrator 28.4.1, SVG Export Plug-In . SVG Version: 6.00 Build 0)  -->
<svg version="1.1" id="Layer_1" xmlns="http://www.w3.org/2000/svg" xmlns:xlink="http://www.w3.org/1999/xlink" x="0px" y="0px"
	 viewBox="0 0 120 103" style="enable-background:new 0 0 120 103;" xml:space="preserve">
<style type="text/css">
	.st0{fill:#F3BA2F;}
	.st1{fill:#FFFFFF;}
</style>
<g>
	<ellipse transform="matrix(0.1602 -0.9871 0.9871 0.1602 9.4171 77.0684)" class="st0" cx="50" cy="33" rx="70" ry="70"/>
	<polygon class="st1" points="27.3,23.7 50,1.1 72.7,23.7 85.9,10.5 50,-25.3 14.2,10.5 	"/>
	
		<rect x="-4.5" y="23.7" transform="matrix(0.7071 -0.7071 0.7071 0.7071 -21.9231 13.0899)" class="st1" width="18.6" height="18.6"/>
	<polygon class="st1" points="27.3,42.3 50,65 72.7,42.3 85.9,55.5 85.9,55.5 50,91.4 14.2,55.5 14.1,55.5 	"/>
	
		<rect x="85.8" y="23.7" transform="matrix(0.7071 -0.7071 0.7071 0.7071 4.5177 76.9386)" class="st1" width="18.6" height="18.6"/>
	<polygon class="st1" points="63.4,33 63.4,33 50,19.6 40.1,29.5 40.1,29.5 39,30.6 36.6,33 36.6,33 36.6,33 36.6,33 50,46.4 
		63.4,33 63.4,33 	"/>
</g>
</svg>
