<?xml version="1.0" encoding="utf-8"?>
<!-- Generator: Adobe Illustrator 28.4.1, SVG Export Plug-In . SVG Version: 6.00 Build 0)  -->
<svg version="1.1" id="Layer_1" xmlns="http://www.w3.org/2000/svg" xmlns:xlink="http://www.w3.org/1999/xlink" x="0px" y="0px"
	 viewBox="0 0 143.9 164.9" style="enable-background:new 0 0 143.9 164.9;" xml:space="preserve">
<style type="text/css">
	.st0{fill:#F3BA2F;}
	.st1{fill:#FFFFFF;}
</style>
<g>
	<circle class="st0" cx="91.9" cy="92.6" r="90"/>
	<path id="binancedex" class="st1" d="M105.8,140.2v16.1l-14.1,8.3l-13.7-8.3v-16.1l13.7,8.3L105.8,140.2z M30.5,84.4l13.7,8.3v27.7
		l23.6,14.1v16.1l-37.2-21.9V84.4z M153,84.4v44.3l-37.7,21.9v-16.1l23.6-14.1V92.6L153,84.4z M115.3,62.4l14.1,8.3l0,0v16.1
		l-23.6,14.1V129l-13.7,8.3L78.5,129v-28.1L54.1,86.8V70.7l14.1-8.3l23.6,14.1L115.3,62.4z M54.1,98.4l13.7,8.3v16.1l-13.7-8.3V98.4
		z M129.4,98.4v16.1l-13.7,8.3v-16.1L129.4,98.4z M44.1,48.4l14.1,8.3l-14.1,8.3V81l-13.7-8.3V56.6L44.1,48.4z M139.3,48.4l14.1,8.3
		v16.1L139.3,81V64.9l-13.7-8.3L139.3,48.4z M91.7,48.4l14.1,8.3l-14.1,8.3l-13.7-8.3L91.7,48.4z M91.7,20.6l37.7,21.9l-13.7,8.3
		L92.1,36.8l-24,14.1l-13.7-8.3L91.7,20.6z"/>
</g>
</svg>
