<svg width="264" height="65" viewBox="0 0 264 65" fill="none" xmlns="http://www.w3.org/2000/svg">
<path d="M90.7632 23.736H84.5856L84.5645 32.2291H90.7421C93.2976 32.2291 95.1456 30.5524 95.1456 27.988C95.1456 25.4236 93.2976 23.736 90.7632 23.736ZM80.0342 46.3113L80.0659 19.6045L91.3757 19.6154C96.7824 19.6154 99.7814 23.473 99.7814 27.999C99.7814 32.525 96.719 36.3606 91.3546 36.3606L84.5539 36.3497L84.5328 46.3223H80.0342V46.3113Z" fill="white"/>
<path d="M115.526 23.3634C110.331 23.3634 106.994 27.473 106.994 32.9962C106.994 38.4757 110.299 42.651 115.516 42.651C120.69 42.651 124.048 38.4976 124.048 33.0182C124.059 27.4949 120.69 23.3743 115.526 23.3634ZM115.537 19.199C123.256 19.2099 128.684 25.062 128.684 33.0291C128.663 40.9963 123.225 46.8373 115.505 46.8264C107.786 46.8154 102.358 40.9634 102.358 32.9962C102.379 25.0291 107.818 19.188 115.537 19.199Z" fill="white"/>
<path d="M133.024 46.3771L133.067 19.6702H137.576L137.544 42.2565L148.885 42.2675V46.388L133.024 46.3771Z" fill="white"/>
<path d="M163.838 23.4291C158.643 23.4291 155.306 27.5387 155.306 33.062C155.306 38.5415 158.611 42.7168 163.828 42.7168C169.002 42.7168 172.36 38.5634 172.36 33.0839C172.36 27.5606 169.013 23.4401 163.838 23.4291ZM163.838 19.2647C171.558 19.2867 176.986 25.1278 176.986 33.0949C176.964 41.062 171.526 46.9031 163.807 46.8921C156.087 46.8812 150.66 41.0291 150.66 33.062C150.681 25.0949 156.13 19.2538 163.838 19.2647Z" fill="white"/>
<path d="M199.278 46.4647L185.877 26.9908L185.867 46.4428H181.347L181.379 19.736H186.004L199.14 38.6949L199.151 19.7469H203.671L203.639 46.4647H199.278Z" fill="white"/>
<path d="M209.109 46.4757L209.141 19.7689H213.66L213.629 46.4757H209.109Z" fill="white"/>
<path d="M219.109 46.4976L219.141 19.7798L236.776 19.8017V23.9223L223.661 23.9113L223.65 30.8264L236.491 30.8483V34.9689L223.65 34.9469L223.629 42.3552L236.745 42.3661V46.4976H219.109Z" fill="white"/>
<path d="M258.593 46.5415L251.391 36.0757L244.168 46.5305H238.751L248.424 32.8428L239.385 19.8127H244.791L251.412 29.6319L258.012 19.8346H263.461L254.411 32.799L264 46.5415H258.593Z" fill="white"/>
<path d="M53.4019 16.9524L53.3913 32.9305L40.054 24.9305L26.7273 16.9196L40.0857 8.95245L53.423 0.974365L53.4019 16.9524Z" fill="#21392B"/>
<path opacity="0.5" d="M26.7061 32.8976L26.6956 48.8757L13.3689 40.8757L0.0421448 32.8648L13.39 24.8976L26.7273 16.9196L26.7061 32.8976Z" fill="#015C30"/>
<path d="M0.0640582 16.8869L0.0746182 0.908813L13.4013 8.91977L26.7281 16.9198L13.3908 24.8979L0.0429382 32.865L0.0640582 16.8869Z" fill="#3AB069"/>
<path d="M0.02112 48.8429L0.04224 32.8649L13.369 40.8758L26.6957 48.8758L13.3584 56.8539L0 64.821L0.02112 48.8429Z" fill="#21392B"/>
<path d="M40.0541 24.9305L26.7274 16.9196L26.7063 32.8976L26.6957 48.8757L40.0224 56.8976L53.3386 64.8867L53.3597 48.9086L53.3914 32.9305L40.0541 24.9305Z" fill="#3AB069"/>
</svg>
