<?xml version="1.0" encoding="utf-8"?>
<!-- Generator: Adobe Illustrator 28.4.1, SVG Export Plug-In . SVG Version: 6.00 Build 0)  -->
<svg version="1.1" id="Layer_1" xmlns="http://www.w3.org/2000/svg" xmlns:xlink="http://www.w3.org/1999/xlink" x="0px" y="0px"
	 viewBox="0 0 317 438" style="enable-background:new 0 0 317 438;" xml:space="preserve">
<style type="text/css">
	.st0{fill:#1C1C1B;}
	.st1{fill:#E73842;}
	.st2{fill:#F5BC2A;}
	.st3{fill:#E87624;}
	.st4{fill:#707070;}
	.st5{fill:#EBEBEB;}
	.st6{fill:#9B9B9A;}
	.st7{fill:#D8D8D8;}
	.st8{fill:#CCE7E9;}
	.st9{opacity:0.16;fill:#1C1C1B;}
	.st10{opacity:0.42;fill:#FFFFFF;}
</style>
<g>
	<path class="st0" d="M112.8,402.4c-1.8,1.2-4,3.4-6.3,3.8c-4.4,0.8-4.7-4.5-4.7-7.5c-0.2-14,3.9-27.6,3.5-41.6
		c-0.2,0-0.3-0.1-0.5-0.2c-2.9-1.9-5.7-4-8.5-6.1c-0.8,4.8-1.5,9.7-2.5,14.4c-0.4,1.8-0.7,3.8-2.2,5.1c-1.5,1.3-3.1,1.4-4.7,0.8
		c-1.1,6.9-4.6,23.2-13.7,23.2c-2.5,0-5-1.5-7.3-3.3c1.9,11.4-3.2,23-12.8,29.7c-0.6,0.4-1.7,0.1-1.8-0.7c-0.1-3.1-0.2-6.2-0.3-9.3
		C39.1,423.7,21.6,430.5,5.3,436c-0.6,0.2-1.4-0.1-1.4-0.9c0-16,2.5-32.8,9.5-47.3c-3,1.3-5.3,3.2-7.2,6c-0.5,0.7-1.6,0.3-1.7-0.5
		c-2.5-16.3,13.3-25.9,27.2-29c-0.7-0.7-1.5-1.4-2.2-2.1c-2.6-2.6-5.2-5.8-4.6-9.7c0.5-3.4,3.2-6.1,5.7-8.2
		c4.5-3.6,9.7-6.5,14.6-9.4c-0.6-1-1.1-2.1-1.4-3.3c-0.1-0.4-0.1-0.9,0.3-1.1c5.5-4.1,11.6-7.3,18.2-9c-2.8-2.4-5.5-4.8-8.3-7.2
		c-0.2-0.2-0.3-0.4-0.3-0.6c-9.1,3.6-18.1,7.3-27.2,11c-4.4,1.8-8.8,3.6-13.2,5.3c-2.1,0.8-4.5,1.8-6.8,1.3
		c-4.5-1.1-3.4-5.6-2.6-8.9c1.7-6.9,3.9-13.7,6.4-20.4c5.4-14.3,11.5-28.4,16.6-42.8c1.9-5.4,4.2-10.9,8.3-15.1
		c5-5.2,12.1-7.3,18.9-9.4c16-4.9,32-9.8,48.2-13.5c10.5-19.7,21-39.5,31.7-59.1c11-20.2,22.7-40.3,37.9-57.8
		c15.6-17.9,34.9-32.1,57.2-40.6c11.2-4.3,22.9-7.5,34.5-10.4c10.9-2.6,21.9-4.2,33.1-2.9c0.6,0.1,0.8,0.5,0.7,1
		c12.6,1.2,15.4,15.8,16.1,26.1c0.9,12.9,0.9,25.9-0.1,38.8c-1.8,22.8-7.2,45.7-18.8,65.7c-12.9,22.4-33.3,38.9-52.4,55.7
		l-53.6,47.1c0.1,0.1,0.2,0.2,0.2,0.3c1.3,9.2,1,18.9,1.1,28.2c0.1,8.5,0.4,17.2-0.3,25.8c-0.9,12.8-14.9,21.1-24.5,27.7
		c-13.7,9.4-27.5,18.7-41.3,28L112.8,402.4z M107.6,403.4c1-0.1,3.9-2.6,4.7-3.2c2.1-1.4,4.2-2.8,6.3-4.3c3.7-2.5,7.3-4.9,11-7.4
		c7.3-5,14.6-9.9,22-14.9c7-4.8,14.2-9.4,20.9-14.6c6.8-5.2,14.4-11,15.2-20.1c1.5-17.7-0.9-35.5-0.1-53.2L107.7,356
		c-0.1,0.1-0.2,0.2-0.4,0.2c0.3,7.6-0.6,15-1.6,22.4c-0.5,3.8-1.1,7.5-1.4,11.3C104,392.9,101.9,404.1,107.6,403.4z M53.2,409.1
		c0.1,2.9,0.2,5.7,0.3,8.6c8.4-6.8,12.2-17.5,10.5-28.2c-1-0.9-2-1.7-2.8-2.3c-0.8-0.6-1.7-1.3-2.5-1.9c2.7,7.1,2.2,15-1,22
		c-0.4,0.8-1.4,0.7-1.8,0c-1.2-2.2-2.4-4.4-3.6-6.6c-6,10.1-20.3,8.8-29.2,15.1c-0.5,0.4-1.4,0.1-1.4-0.6
		c-0.4-10.8-3.6-26.4,4.5-35.3c-2.6-0.6-5.2-0.9-7.9-1c-0.6,0-0.8-0.9-0.3-1.3c6.4-4.2,13.7-6.8,21.3-7c-1.9-1.5-3.8-2.9-5.7-4.5
		c-6.6,2-13.1,3.6-18.6,8c-5.2,4.2-8.5,10-8.6,16.5c2-2.2,4.4-3.7,7.4-4.5c0.2-0.1,0.4,0,0.6,0.1c0.4-0.4,1.2,0,1,0.6
		c-5.3,15.4-9.1,30.4-9.2,46.7c16.4-6.3,32.7-12.5,44.8-25.9c0.7-0.8,2-0.2,2,0.7C53,408.4,53.2,408.7,53.2,409.1z M53,398.2
		c1.2,2.1,2.4,4.3,3.5,6.4c2.8-7.4,2-14.8-1.3-21.9c-3.7-2.7-7.3-5.5-10.9-8.2c-1.2-0.9-2.4-1.8-3.6-2.6c-7.3,0.5-13.9,2.1-20.2,5.8
		c2.4,0.2,4.7,0.5,7.1,1.1c0.6,0.2,0.8,0.9,0.3,1.3c-8.3,7.9-5.4,22.8-4.7,33.4c9-5.4,23.2-4.6,28-15.2
		C51.6,397.4,52.6,397.5,53,398.2z M65.5,387.6c3.4,2.6,6.7,6.3,11.9,2.2c1.7-1.4,2.7-4.1,3.6-6c1.9-4.2,3.1-8.6,3.8-13.1
		c0-0.2,0.1-0.3,0.2-0.5c-1.8-1.1-3.4-2.6-4.7-3.7c-7-5.8-13.9-11.5-20.8-17.3c-4.6-3.8-10-7.5-13.3-12.6c-3.7,2.5-7.5,4.9-11.2,7.4
		c-2.8,1.9-6,4-7.4,7.1c-3.6,8.1,11.3,16.4,16.7,20.4C51.3,376.9,58.4,382.3,65.5,387.6z M84.5,367.2c2,1.5,4.3,3.8,6.6-0.1
		c0.9-1.5,0.9-4.2,1.2-5.8l1.9-11.1c0.1-0.3,0.2-0.5,0.4-0.6c-5.2-4.2-10.1-8.6-15.1-12.9c-5.4-4.6-10.8-9.3-16.1-13.9
		c-3.8,1.4-7.5,2.9-11,4.9c-1.6,0.9-3.8,1.8-5.1,3.2c-1.9,2-0.9,3.2,0.8,5.4c4.5,6.1,11.9,10.8,17.8,15.7
		C72.1,356.8,78,362.4,84.5,367.2z M105.6,355.1c0.1-0.1,0.2-0.1,0.3-0.1c0-0.3,0.1-0.6,0.4-0.8c10.6-9.4,21.3-18.7,31.9-28.1
		c-10.4-8.2-20.8-16.4-31.3-24.5c-10.5-8.1-21.4-15.9-31.6-24.4c-6.4,11.7-12.9,23.4-19.5,35c-0.2,0.3-0.4,0.4-0.7,0.4
		c0,0,0,0.1,0,0.1c0,0,0.1,0,0.1,0.1C71.8,327,88,342,105.6,355.1z M139.2,325.3c12.4-10.9,24.8-21.8,37.3-32.8
		c6-5.3,12-10.6,18.1-15.9c-8.3-6.5-16.7-13-24.7-19.9c-7.8,8.9-16.6,17-24.6,25.7c-8.3,9-16.1,18.4-24.5,27.4
		c-0.1,0.1-0.2,0.2-0.3,0.2C126.7,315,132.9,320.2,139.2,325.3z M119.2,309.1c0-0.1,0.1-0.2,0.2-0.3c7.8-9.8,16.6-19,25.1-28.1
		c7.9-8.4,15.7-17.2,24.4-24.7c-3.5-3.1-7-6.2-10.3-9.4c-0.2-0.2-0.2-0.4-0.2-0.6c-0.4-0.3-0.7-0.8-0.3-1.3
		c6.2-8.2,12.3-16.4,18.4-24.7c6-8.1,11.5-16.8,18.1-24.4c-9.4-8-15.3-20.1-16.5-32.4c-2-8.4-1.8-17.3,1.4-25.7
		c7-18.7,26.5-31.1,46.4-31c9.6,0.1,18.5,4,25.8,10.2c3.5-4.9,7-10,10.9-14.5c-11.7-10.4-21.1-23.9-28-38c-5.6,2-11.1,4.2-16.5,6.9
		c-43.7,21.5-67.4,64.5-89.5,105.7c-17.7,33.2-35,66.7-53,99.8C90.5,286.6,105,297.7,119.2,309.1z M195.7,275.5
		c14-12.3,28-24.6,42-37c19.1-16.8,39.8-33.1,53.2-55c11.5-18.8,17.3-40.4,19.7-62.2c-18.4,0-34.3-7.4-47.3-18.7
		c-3.1,5.2-6.9,10-10.5,14.9c5.3,4.7,9.6,10.6,12.5,16.9c0.1,0,0.2,0.1,0.3,0.2c7.3,12.2,8.3,27.4,2.8,40.5
		c-5.7,13.6-17.9,23.1-31.7,27.5c-12.6,4-26.5,3.4-37.8-4c-1.2-0.8-2.3-1.6-3.4-2.5c-4.9,8.4-11.3,16.2-17,24
		c-6.3,8.5-12.5,17.1-18.9,25.5c-0.1,0.1-0.1,0.1-0.2,0.2C171.7,255.5,183.5,265.8,195.7,275.5z M53.8,311.8
		c0.1-0.1,0.3-0.1,0.4-0.1c0,0,0-0.1,0-0.1c13.5-26.9,28.2-53.3,42.4-79.9c1.7-3.1,3.3-6.1,4.9-9.2c-17,5.3-34.2,9.7-51.1,15.2
		c-9.6,3.2-16.1,8-20.1,17.4c-2.9,6.8-5,14-7.7,20.9c-6.1,15.6-13.5,31-17.2,47.5c-0.2,1-0.4,1.9-0.6,2.9l3.7,3.1
		c1.7,0.3,5-1.6,6.5-2.2c4.1-1.7,8.2-3.3,12.3-5C36.2,318.9,45,315.3,53.8,311.8z M237,201.1c13.2-4.3,24.7-13.5,30.2-26.5
		c3.6-8.5,4.2-17.4,2.4-26c2.1,16.4-4.7,32.7-18.7,42.4c-7.8,5.4-17.5,11.1-27.2,10.9c-8.9-0.2-18.6-1.4-25.3-7.7
		c-7.2-5.6-13.1-13.1-16.8-21.5c3.2,9.5,8.4,18,17,24C209.9,204.6,224.1,205.4,237,201.1z M227.2,200.1c5.5-0.6,10.8-3.6,15.6-6.2
		c5.2-2.9,10.3-6.1,14.5-10.5c27.8-29.3-1.2-82.5-40.7-74.6c-18.4,3.7-34.3,17.7-37.6,36.5c-3.1,17.8,6.2,35.3,19.1,47
		c0.2-0.1,0.5-0.2,0.8,0.1C205.7,199.3,217.9,201.1,227.2,200.1z M310.8,119.3c1.1-11,1.3-22,1-33.1c-0.4-12.1,0-31.3-15.5-33.9
		c-0.2,0-0.3-0.1-0.4-0.2c-13.6-1.5-27,1.8-40,5.4c-6.6,1.8-13.2,3.7-19.7,6C251.1,92.2,276.1,119.6,310.8,119.3z"/>
	<path class="st1" d="M112.3,400.2c-0.8,0.6-3.7,3.1-4.7,3.2c-5.6,0.7-3.6-10.4-3.3-13.5c0.3-3.8,0.9-7.5,1.4-11.3
		c1-7.5,2-14.9,1.6-22.4c0.1,0,0.2-0.1,0.4-0.2l79.9-70.2c-0.8,17.7,1.6,35.5,0.1,53.2c-0.8,9.1-8.4,14.9-15.2,20.1
		c-6.7,5.2-13.9,9.8-20.9,14.6c-7.3,5-14.6,9.9-22,14.9c-3.7,2.5-7.3,4.9-11,7.4C116.4,397.3,114.4,398.7,112.3,400.2z"/>
	<path class="st2" d="M53.4,417.7c-0.1-2.9-0.2-5.7-0.3-8.6c0-0.4-0.2-0.7-0.4-0.8c0-0.8-1.3-1.5-2-0.7
		c-12.1,13.5-28.4,19.6-44.8,25.9c0.1-16.3,3.9-31.3,9.2-46.7c0.2-0.6-0.5-1.1-1-0.6c-0.2-0.1-0.3-0.1-0.6-0.1
		c-3.1,0.8-5.5,2.3-7.4,4.5c0.1-6.5,3.4-12.4,8.6-16.5c5.5-4.4,12-6,18.6-8c1.8,1.6,3.8,3,5.7,4.5c-7.6,0.2-14.9,2.9-21.3,7
		c-0.5,0.3-0.3,1.2,0.3,1.3c2.7,0.1,5.3,0.4,7.9,1c-8.1,8.9-4.9,24.5-4.5,35.3c0,0.7,0.9,1,1.4,0.6c8.9-6.4,23.2-5.1,29.2-15.1
		c1.2,2.2,2.4,4.4,3.6,6.6c0.4,0.7,1.4,0.8,1.8,0c3.2-7,3.7-14.9,1-22c0.8,0.6,1.7,1.3,2.5,1.9c0.9,0.7,1.8,1.5,2.8,2.3
		C65.6,400.1,61.9,410.9,53.4,417.7z"/>
	<path class="st3" d="M56.6,404.7c-1.2-2.1-2.4-4.3-3.5-6.4c-0.4-0.7-1.4-0.8-1.8,0c-4.8,10.6-19,9.8-28,15.2
		c-0.7-10.6-3.6-25.5,4.7-33.4c0.5-0.5,0.3-1.2-0.3-1.3c-2.4-0.6-4.7-1-7.1-1.1c6.3-3.6,12.9-5.3,20.2-5.8c1.2,0.9,2.4,1.8,3.6,2.6
		c3.6,2.8,7.3,5.5,10.9,8.2C58.5,389.9,59.3,397.3,56.6,404.7z"/>
	<path class="st4" d="M77.4,389.8c-5.2,4.1-8.4,0.4-11.9-2.2c-7.1-5.3-14.2-10.7-21.4-16c-5.4-4-20.3-12.3-16.7-20.4
		c1.4-3.2,4.6-5.3,7.4-7.1c3.7-2.5,7.5-4.9,11.2-7.4c3.3,5,8.7,8.7,13.3,12.6c6.9,5.8,13.9,11.5,20.8,17.3c1.3,1.1,2.9,2.6,4.7,3.7
		c-0.1,0.1-0.1,0.3-0.2,0.5c-0.7,4.5-1.9,8.9-3.8,13.1C80,385.7,79.1,388.4,77.4,389.8z"/>
	<path class="st4" d="M91.1,367c-2.3,3.9-4.6,1.6-6.6,0.1c-6.4-4.8-12.4-10.3-18.6-15.4c-5.8-4.9-13.2-9.5-17.8-15.7
		c-1.7-2.2-2.7-3.3-0.8-5.4c1.3-1.3,3.5-2.3,5.1-3.2c3.5-2,7.2-3.4,11-4.9c5.4,4.7,10.8,9.3,16.1,13.9c5,4.3,9.9,8.8,15.1,12.9
		c-0.2,0.1-0.3,0.3-0.4,0.6l-1.9,11.1C92,362.9,92,365.6,91.1,367z"/>
	<path class="st5" d="M105.9,355c-0.1,0-0.2,0.1-0.3,0.1C88,342,71.8,327,55.2,312.8c0,0-0.1,0-0.1-0.1c0,0,0-0.1,0-0.1
		c0.3,0,0.5-0.1,0.7-0.4c6.6-11.6,13.1-23.3,19.5-35c10.2,8.5,21.1,16.3,31.6,24.4c10.5,8.1,20.9,16.3,31.3,24.5
		c-10.6,9.4-21.3,18.7-31.9,28.1C106,354.4,105.9,354.7,105.9,355z M125.2,329.6c1.6-0.5,2.5-2.6,1.8-4.1c0-0.4-0.3-0.9-0.6-1.2
		c-0.6-0.6-1.5-0.8-2.4-0.8c-1.8,0.1-3,1.7-2.6,3.5C121.8,328.8,123.5,330.2,125.2,329.6z M107,316.8c1.1,1.3,3.2,2,4.7,0.8
		c0.9-0.7,1.2-2,0.8-3c0.2-0.1,0.3-0.3,0.2-0.5c-1-1.5-3.1-2.6-4.9-1.8C105.9,313.1,105.7,315.3,107,316.8z M92.1,305
		c1.3,1.4,3.5,1.7,4.9,0.3c1.1-1.1,0.9-3-0.4-3.9c-0.9-1.4-2.8-2.1-4.3-1.2C90.4,301.2,90.8,303.6,92.1,305z M75.8,292
		c1.2,1.7,3.7,2.3,5.4,0.9c1.3-1.1,1.5-3.3,0.3-4.5c-0.5-1.8-2.8-2.3-4.5-1.7C74.6,287.6,74.5,290.1,75.8,292z"/>
	<path class="st5" d="M176.4,292.5c-12.4,10.9-24.8,21.8-37.3,32.8c-6.2-5.1-12.5-10.2-18.8-15.3c0.1,0,0.2-0.1,0.3-0.2
		c8.3-9,16.1-18.4,24.5-27.4c8.1-8.7,16.8-16.8,24.6-25.7c8,6.9,16.4,13.5,24.7,19.9C188.4,281.9,182.4,287.2,176.4,292.5z"/>
	<path class="st0" d="M127,325.6c0.7,1.5-0.2,3.5-1.8,4.1c-1.7,0.6-3.4-0.8-3.8-2.5c-0.4-1.8,0.8-3.4,2.6-3.5
		c0.8-0.1,1.7,0.2,2.4,0.8C126.7,324.7,127,325.1,127,325.6z M122.7,327.3c1,2.4,3.8,1,3.8-1.1c-0.2,0-0.4-0.3-0.2-0.5
		c0.2-0.3-1-0.8-1.2-0.8c-0.5-0.1-1-0.1-1.5,0.1C122.6,325.4,122.3,326.3,122.7,327.3z"/>
	<path class="st0" d="M124.9,327.6c0,0.3-0.5,0.5-0.6,0.2c-0.1-0.2-0.1-0.4-0.2-0.6c-0.2,0-0.3,0.1-0.5,0.2
		c-0.3,0.2-0.5-0.3-0.3-0.5c0.2-0.2,0.4-0.3,0.7-0.4c0-0.1,0-0.3,0-0.4c0-0.2,0.3-0.3,0.4-0.1c0,0.1,0.1,0.2,0.1,0.4
		c0.2,0,0.4,0,0.6,0c0.4,0.1,0.3,0.7-0.1,0.7c-0.1,0-0.1,0-0.2,0C124.9,327.3,124.9,327.4,124.9,327.6z"/>
	<path class="st6" d="M126.5,326.2c0,2.1-2.8,3.5-3.8,1.1c-0.4-0.9,0-1.9,0.9-2.3c0.5-0.2,1-0.2,1.5-0.1c0.2,0.1,1.4,0.5,1.2,0.8
		C126.1,325.9,126.2,326.2,126.5,326.2z M124.4,327.8c0.1,0.3,0.6,0.2,0.6-0.2c0-0.2-0.1-0.4-0.1-0.5c0.1,0,0.1,0,0.2,0
		c0.4,0,0.5-0.6,0.1-0.7c-0.2-0.1-0.4-0.1-0.6,0c0-0.1-0.1-0.2-0.1-0.4c-0.1-0.2-0.4-0.1-0.4,0.1c0,0.1,0,0.2,0,0.4
		c-0.2,0.1-0.5,0.3-0.7,0.4c-0.2,0.2,0,0.6,0.3,0.5c0.2-0.1,0.3-0.1,0.5-0.2C124.2,327.4,124.3,327.6,124.4,327.8z"/>
	<path class="st0" d="M111.7,317.6c-1.4,1.1-3.6,0.4-4.7-0.8c-1.3-1.5-1.1-3.7,0.8-4.5c1.8-0.8,3.8,0.3,4.9,1.8
		c0.1,0.2,0,0.5-0.2,0.5C112.9,315.6,112.5,316.9,111.7,317.6z M110.6,316.9c1.1-0.4,1.5-1.9,0.6-2.7c-0.1-0.1-0.2-0.3-0.1-0.4
		c-0.6-0.4-1.2-0.7-2-0.7c-1.3,0.1-2.2,1.1-1.5,2.4C108.2,316.5,109.5,317.3,110.6,316.9z"/>
	<path class="st6" d="M111.3,314.3c0.8,0.8,0.5,2.3-0.6,2.7c-1.1,0.4-2.5-0.4-3-1.4c-0.6-1.2,0.2-2.3,1.5-2.4c0.8,0,1.4,0.3,2,0.7
		C111.1,314,111.1,314.1,111.3,314.3z M109.6,316.5c0.1,0.4,0.8,0.2,0.7-0.2c0-0.3-0.1-0.5-0.2-0.8c0,0,0,0,0,0
		c0.6,0.1,0.7-0.8,0.1-0.9c-0.1,0-0.3,0-0.4,0c-0.1-0.2-0.2-0.5-0.2-0.7c-0.1-0.4-0.7-0.2-0.6,0.2c0.1,0.2,0.1,0.5,0.1,0.7
		c-0.3,0.1-0.6,0.4-0.8,0.6c-0.2,0.2,0.1,0.6,0.4,0.4c0.2-0.1,0.4-0.2,0.6-0.3c0,0,0,0.1,0,0.1c0,0.1,0,0.1,0.1,0.2
		C109.5,316.1,109.6,316.3,109.6,316.5z"/>
	<path class="st0" d="M110.3,316.3c0,0.4-0.6,0.6-0.7,0.2c-0.1-0.2-0.1-0.4-0.2-0.6c0-0.1,0-0.1-0.1-0.2c0,0,0-0.1,0-0.1
		c-0.2,0.1-0.4,0.2-0.6,0.3c-0.3,0.2-0.5-0.1-0.4-0.4c0.2-0.3,0.5-0.5,0.8-0.6c-0.1-0.2-0.1-0.5-0.1-0.7c-0.1-0.4,0.5-0.5,0.6-0.2
		c0.1,0.2,0.1,0.5,0.2,0.7c0.1,0,0.3,0,0.4,0c0.6,0,0.4,1-0.1,0.9c0,0,0,0,0,0C110.3,315.8,110.3,316.1,110.3,316.3z"/>
	<path class="st7" d="M119.4,308.7c-0.1,0.1-0.1,0.2-0.2,0.3c-14.2-11.3-28.7-22.4-43.5-32.7c18-33.1,35.3-66.6,53-99.8
		c22.1-41.2,45.8-84.1,89.5-105.7c5.4-2.6,10.9-4.9,16.5-6.9c6.9,14.1,16.3,27.6,28,38c-4,4.5-7.4,9.6-10.9,14.5
		c-7.2-6.1-16.2-10.1-25.8-10.2c-19.8-0.1-39.3,12.3-46.4,31c-3.2,8.4-3.4,17.3-1.4,25.7c1.2,12.3,7.1,24.4,16.5,32.4
		c-6.6,7.6-12.2,16.3-18.1,24.4c-6.1,8.3-12.2,16.5-18.4,24.7c-0.4,0.5-0.1,1.1,0.3,1.3c-0.1,0.2,0,0.4,0.2,0.6
		c3.3,3.2,6.8,6.4,10.3,9.4c-8.7,7.5-16.6,16.3-24.4,24.7C135.9,289.8,127.1,298.9,119.4,308.7z M120.3,298.6
		c1.6,1.3,4.3,1.2,5.6-0.5c1.1-1.5,1-4.4-0.8-5.4c-0.1,0-0.2-0.1-0.3-0.1c-1.2-1-3.2-1-4.5,0.2C118.7,294.3,118.5,297.2,120.3,298.6
		z M134.8,283.9c1.8,0.9,4.4,0.1,5.2-1.8c0.8-1.9-0.3-4.4-2.4-5c-0.2,0-0.3,0-0.4,0c-1.4-0.4-3.1,0.2-3.9,1.6
		C132.3,280.5,133,283,134.8,283.9z M147.1,266.8c1.2,1.7,3.8,2.1,5.5,0.9c1.7-1.3,1.8-3.9,0.5-5.4c-0.1-0.1-0.2-0.2-0.3-0.2
		c-1.1-1.2-3.1-1.6-4.5-0.6C146.4,262.5,145.9,265.1,147.1,266.8z"/>
	<path class="st5" d="M237.8,238.5c-14,12.3-28,24.6-42,37c-12.3-9.6-24-20-36.3-29.6c0.1,0,0.1-0.1,0.2-0.2
		c6.4-8.5,12.7-17,18.9-25.5c5.7-7.8,12.1-15.6,17-24c1.1,0.9,2.2,1.7,3.4,2.5c11.3,7.4,25.1,8,37.8,4c13.9-4.3,26-13.9,31.7-27.5
		c5.5-13.1,4.6-28.3-2.8-40.5c-0.1-0.1-0.2-0.2-0.3-0.2c-3-6.3-7.3-12.2-12.5-16.9c3.6-4.9,7.4-9.7,10.5-14.9
		c13,11.3,28.9,18.8,47.3,18.7c-2.4,21.7-8.2,43.4-19.7,62.2C277.6,205.5,256.8,221.8,237.8,238.5z M185.2,258.3
		c1.1,1.9,3.9,2.4,5.6,0.8c1.2-1.1,1.3-3.2,0.3-4.5c-0.3-1.5-2.2-2.4-3.7-2C185,253.4,184,256.2,185.2,258.3z M171,243.2
		c1.4,1.5,4.5,1.3,5.9-0.2c0.9-1,0.9-2.8,0-3.7c-0.3-2.1-3.3-2.7-4.9-1.8C170,238.6,169.3,241.5,171,243.2z M182.2,227
		c0.9,1.9,3.3,2.6,5.1,1.5c1.7-1,2.7-3.5,1.4-5.2c-0.1-0.1-0.3-0.2-0.4-0.1c-0.9-1.3-2.8-1.8-4.3-1.2
		C182,222.8,181.3,225.2,182.2,227z M192.5,208.6c0.9,1.6,2.9,2.5,4.6,1.7c1.7-0.8,2.7-3.1,1.7-4.8c-0.1-0.1-0.2-0.2-0.3-0.2
		c-1.1-1.4-2.7-2.1-4.5-1.1C192.3,205.1,191.6,207,192.5,208.6z M259.7,117.5c1.1,1.5,3.5,1.8,5,0.7c1.7-1.3,1.7-3.9,0.9-5.7
		c-0.1-0.3-0.5-0.3-0.7-0.2c-1.3-1-3.3-0.9-4.6,0.2C258.9,113.7,258.6,116,259.7,117.5z"/>
	<path class="st0" d="M125.9,298.1c-1.3,1.7-4,1.8-5.6,0.5c-1.8-1.4-1.6-4.3,0-5.8c1.3-1.1,3.2-1.2,4.5-0.2c0.1,0,0.2,0,0.3,0.1
		C126.9,293.8,127,296.6,125.9,298.1z M121.6,298c1.3,0.6,3,0.3,3.6-1.1c0.6-1.3,0.1-2.4-0.8-3.4c-1.1-0.5-2.5-0.6-3.4,0.5
		C119.9,295.2,120.1,297.2,121.6,298z"/>
	<path class="st6" d="M125.2,296.9c-0.6,1.4-2.3,1.8-3.6,1.1c-1.6-0.8-1.7-2.8-0.6-4c0.9-1.1,2.3-1,3.4-0.5
		C125.3,294.4,125.8,295.6,125.2,296.9z M122.9,297.4c0.1,0.5,0.9,0.5,0.8-0.1c0-0.4,0-0.8,0-1.2c0.3-0.1,0.6-0.2,0.9-0.3
		c0.5-0.1,0.3-1-0.2-0.9c-0.3,0.1-0.6,0.1-0.9,0.2c0-0.1-0.1-0.3-0.1-0.4c-0.1-0.3-0.5-0.2-0.6,0.1c0,0.2-0.1,0.4-0.1,0.5
		c-0.3,0.1-0.7,0.2-1,0.3c-0.5,0.1-0.3,0.9,0.2,0.8c0.3-0.1,0.5-0.1,0.8-0.2C122.8,296.7,122.8,297.1,122.9,297.4z"/>
	<path class="st0" d="M123.8,297.3c0,0.5-0.7,0.6-0.8,0.1c-0.1-0.4-0.1-0.7-0.1-1.1c-0.3,0.1-0.5,0.1-0.8,0.2
		c-0.5,0.1-0.7-0.7-0.2-0.8c0.3-0.1,0.7-0.2,1-0.3c0-0.2,0.1-0.4,0.1-0.5c0.1-0.3,0.5-0.4,0.6-0.1c0,0.1,0.1,0.3,0.1,0.4
		c0.3-0.1,0.6-0.2,0.9-0.2c0.5-0.1,0.7,0.7,0.2,0.9c-0.3,0.1-0.6,0.2-0.9,0.3C123.8,296.5,123.7,296.9,123.8,297.3z"/>
	<path class="st0" d="M97,305.2c-1.4,1.4-3.6,1.1-4.9-0.3c-1.3-1.4-1.7-3.8,0.2-4.9c1.5-0.9,3.4-0.1,4.3,1.2
		C97.9,302.2,98.1,304.1,97,305.2z M92.7,303.9c0.7,1,2.1,1.5,3.1,0.8c1-0.7,1-2,0-2.7c-0.1-0.1-0.2-0.2-0.2-0.4
		c-0.7-0.5-1.4-0.9-2.4-0.6C91.9,301.4,91.9,302.9,92.7,303.9z"/>
	<path class="st6" d="M95.9,304.7c-1.1,0.7-2.4,0.2-3.1-0.8c-0.8-1-0.8-2.5,0.6-2.9c0.9-0.3,1.7,0.1,2.4,0.6c0,0.1,0,0.3,0.2,0.4
		C96.9,302.7,96.9,304,95.9,304.7z M94,304.4c0.1,0.3,0.7,0.1,0.5-0.2c-0.1-0.3-0.2-0.6-0.4-0.9c0,0,0,0,0.1-0.1c0.4,0,0.7,0,1.1,0
		c0.4,0,0.4-0.6,0.1-0.7c-0.4-0.1-0.9-0.2-1.3-0.1c-0.1-0.2-0.1-0.3-0.2-0.5c-0.1-0.3-0.5-0.2-0.6,0c-0.1,0-0.2,0.1-0.1,0.3
		c0,0.1,0.1,0.3,0.1,0.4c-0.1,0-0.2,0.1-0.2,0.1c-0.3,0.1-0.3,0.6,0.1,0.6c0.1,0,0.3,0,0.4,0C93.7,303.6,93.9,304,94,304.4z"/>
	<path class="st0" d="M94.6,304.2c0.1,0.3-0.4,0.6-0.5,0.2c-0.2-0.4-0.3-0.8-0.5-1.2c-0.1,0-0.3,0-0.4,0c-0.3,0-0.3-0.5-0.1-0.6
		c0.1,0,0.2-0.1,0.2-0.1c0-0.1-0.1-0.3-0.1-0.4c0-0.1,0-0.2,0.1-0.3c0.1-0.2,0.4-0.3,0.6,0c0.1,0.2,0.2,0.3,0.2,0.5
		c0.5,0,0.9,0,1.3,0.1c0.4,0.1,0.3,0.7-0.1,0.7c-0.3,0-0.7,0-1.1,0c0,0,0,0.1-0.1,0.1C94.3,303.6,94.5,303.9,94.6,304.2z"/>
	<path class="st0" d="M140,282.1c-0.8,1.9-3.3,2.8-5.2,1.8c-1.8-0.9-2.5-3.4-1.5-5.2c0.8-1.4,2.5-1.9,3.9-1.6c0.1-0.1,0.2-0.1,0.4,0
		C139.6,277.6,140.8,280.1,140,282.1z M135.4,282.7c1.2,0.6,2.8,0,3.3-1.1c0.6-1.3-0.2-2.6-1.3-3.3c-1.1-0.3-2.4,0.1-3,1
		C133.8,280.4,134.2,282.1,135.4,282.7z"/>
	<path class="st6" d="M138.7,281.5c-0.5,1.2-2.2,1.8-3.3,1.1c-1.2-0.6-1.6-2.3-0.9-3.4c0.6-0.9,1.9-1.3,3-1
		C138.5,279,139.3,280.3,138.7,281.5z M136.7,282.2c0.2,0.3,0.6,0,0.6-0.2c0-0.4-0.1-0.7-0.2-1.1c0.2-0.1,0.4-0.1,0.6-0.2
		c0.5-0.2,0.3-0.9-0.2-0.8c-0.2,0-0.5,0.1-0.7,0.1c-0.1-0.2-0.2-0.4-0.2-0.6c-0.1-0.4-0.7-0.2-0.6,0.2c0,0.2,0.1,0.4,0.1,0.7
		c-0.3,0.1-0.6,0.2-0.9,0.3c-0.4,0.1-0.3,0.9,0.2,0.8c0.3-0.1,0.6-0.1,0.8-0.2C136.4,281.4,136.5,281.8,136.7,282.2z"/>
	<path class="st0" d="M137.3,281.9c0,0.3-0.4,0.6-0.6,0.2c-0.2-0.4-0.3-0.7-0.4-1.1c-0.3,0.1-0.6,0.1-0.8,0.2
		c-0.5,0.1-0.6-0.7-0.2-0.8c0.3-0.1,0.6-0.2,0.9-0.3c0-0.2-0.1-0.5-0.1-0.7c-0.1-0.4,0.5-0.5,0.6-0.2c0.1,0.2,0.2,0.4,0.2,0.6
		c0.2,0,0.5-0.1,0.7-0.1c0.5-0.1,0.7,0.7,0.2,0.8c-0.2,0.1-0.4,0.1-0.6,0.2C137.3,281.2,137.3,281.6,137.3,281.9z"/>
	<path class="st0" d="M190.8,259.1c-1.7,1.6-4.4,1.1-5.6-0.8c-1.2-2.1-0.3-4.9,2.1-5.6c1.5-0.4,3.4,0.5,3.7,2
		C192.1,255.9,192,258,190.8,259.1z M186.4,257.6c0.7,1.3,2.5,1.6,3.7,0.6c0.7-0.6,0.9-1.4,0.7-2.2c-0.1,0-0.2,0-0.3-0.2
		c-0.4-1.3-1.6-2.5-3-1.8C186.1,254.8,185.7,256.4,186.4,257.6z"/>
	<path class="st6" d="M190,258.2c-1.1,0.9-2.9,0.7-3.7-0.6c-0.7-1.2-0.3-2.9,1-3.5c1.5-0.7,2.6,0.4,3,1.8c0,0.1,0.2,0.2,0.3,0.2
		C190.9,256.8,190.8,257.6,190,258.2z M187.6,257.1c0,0.5,0.7,0.8,1.1,0.5c0.3-0.2,0.3-0.5,0.3-0.8c0.2,0,0.4,0,0.7,0
		c0.5,0,0.6-0.9,0-1c-0.4,0-0.8,0-1.2,0.1c0-0.1-0.1-0.1,0-0.2c0.2-0.5-0.5-0.7-0.7-0.3c-0.1,0.3-0.1,0.5,0,0.8
		c-0.3,0.2-0.6,0.4-0.9,0.6c-0.2,0.2,0.1,0.5,0.3,0.4C187.3,257.2,187.4,257.2,187.6,257.1z"/>
	<path class="st0" d="M188.7,257.6c-0.4,0.3-1.1,0-1.1-0.5c-0.1,0-0.3,0.1-0.4,0.2c-0.2,0.1-0.6-0.2-0.3-0.4
		c0.3-0.3,0.6-0.4,0.9-0.6c-0.1-0.3-0.1-0.5,0-0.8c0.2-0.4,0.9-0.2,0.7,0.3c0,0.1,0,0.1,0,0.2c0.4-0.1,0.8-0.2,1.2-0.1
		c0.6,0,0.5,0.9,0,1c-0.2,0-0.4,0-0.7,0C189,257.1,188.9,257.4,188.7,257.6z"/>
	<path class="st1" d="M54.2,311.7c-0.1,0-0.2,0-0.4,0.1c-8.8,3.6-17.6,7.1-26.5,10.6c-4.1,1.6-8.2,3.3-12.3,5
		c-1.5,0.6-4.8,2.6-6.5,2.2l-3.7-3.1c0.2-1,0.4-2,0.6-2.9c3.7-16.5,11.1-31.8,17.2-47.5c2.7-6.9,4.8-14.1,7.7-20.9
		c4-9.4,10.5-14.3,20.1-17.4c16.9-5.6,34.2-9.9,51.1-15.2c-1.6,3.1-3.3,6.2-4.9,9.2c-14.2,26.6-28.9,52.9-42.4,79.9
		C54.2,311.7,54.2,311.7,54.2,311.7z"/>
	<path class="st0" d="M152.5,267.6c-1.7,1.3-4.3,0.8-5.5-0.9c-1.2-1.7-0.6-4.3,1.1-5.4c1.4-0.9,3.4-0.6,4.5,0.6
		c0.1,0,0.2,0.1,0.3,0.2C154.4,263.8,154.2,266.4,152.5,267.6z M148.2,266.1c0.8,1,2.5,1.3,3.5,0.5c1.2-0.9,1.2-2.6,0.5-3.7
		c0,0,0,0,0-0.1c-1-0.8-2.4-1.1-3.5-0.2C147.7,263.4,147.4,265.1,148.2,266.1z"/>
	<path class="st6" d="M151.7,266.6c-1,0.8-2.7,0.5-3.5-0.5c-0.8-1-0.5-2.7,0.5-3.5c1.1-0.8,2.5-0.5,3.5,0.2c0,0,0,0,0,0.1
		C153,264,152.9,265.7,151.7,266.6z M150.1,265.6c0,0.6,0.8,0.5,1,0c0.1-0.4,0.1-0.7,0-1.1c0.2,0,0.5,0,0.7-0.1c0.5-0.1,0.6-0.9,0-1
		c-0.4-0.1-0.8,0-1.2,0.2c-0.1-0.1-0.1-0.2-0.2-0.2c-0.3-0.3-0.9,0-0.7,0.4c0,0.1,0.1,0.1,0.1,0.2c-0.3,0.2-0.6,0.4-0.8,0.6
		c-0.2,0.2,0,0.6,0.3,0.5c0.3-0.1,0.5-0.2,0.8-0.3C150.1,265,150.1,265.3,150.1,265.6z"/>
	<path class="st0" d="M151.1,265.6c-0.1,0.5-1,0.6-1,0c0-0.3,0-0.6-0.1-0.9c-0.3,0.1-0.5,0.2-0.8,0.3c-0.3,0.1-0.5-0.3-0.3-0.5
		c0.2-0.2,0.5-0.4,0.8-0.6c0-0.1-0.1-0.1-0.1-0.2c-0.2-0.4,0.4-0.7,0.7-0.4c0.1,0.1,0.1,0.1,0.2,0.2c0.4-0.1,0.8-0.2,1.2-0.2
		c0.6,0.1,0.5,0.8,0,1c-0.2,0.1-0.5,0.1-0.7,0.1C151.1,264.9,151.2,265.3,151.1,265.6z"/>
	<path class="st0" d="M81.1,292.9c-1.7,1.4-4.2,0.8-5.4-0.9c-1.3-1.9-1.1-4.4,1.2-5.2c1.6-0.6,4-0.1,4.5,1.7
		C82.6,289.6,82.4,291.8,81.1,292.9z M76.9,291.7c0.9,1.1,2.8,1.2,3.7,0c0.8-1,0.4-2.2-0.4-3c-0.2-0.2-0.2-0.4,0-0.5
		c-0.8-0.7-1.9-0.8-3-0.3C75.6,288.6,75.9,290.6,76.9,291.7z"/>
	<path class="st6" d="M80.6,291.7c-0.9,1.2-2.8,1-3.7,0c-1-1.1-1.3-3.1,0.3-3.8c1.1-0.5,2.2-0.4,3,0.3c-0.1,0.1-0.2,0.3,0,0.5
		C81,289.5,81.4,290.7,80.6,291.7z M78.6,291.8c0.2,0.2,0.5,0.1,0.6-0.1c0.1-0.5-0.1-1-0.2-1.4c0.1-0.1,0.3-0.1,0.4-0.2
		c0.1,0,0.1-0.1,0.2-0.1c0.5-0.3,0.2-1-0.3-0.8c-0.2,0.1-0.3,0.2-0.5,0.2c-0.1-0.2-0.1-0.5-0.2-0.7c-0.1-0.3-0.7-0.2-0.6,0.2
		c0,0.3,0.1,0.6,0.2,0.9c-0.4,0.2-0.7,0.4-1,0.6c-0.3,0.2-0.1,0.6,0.2,0.6c0.3-0.1,0.6-0.2,1-0.3C78.2,291,78.3,291.5,78.6,291.8z"
		/>
	<path class="st0" d="M79.2,291.7c-0.1,0.3-0.4,0.4-0.6,0.1c-0.3-0.4-0.4-0.8-0.5-1.3c-0.3,0.1-0.6,0.2-1,0.3
		c-0.3,0.1-0.5-0.4-0.2-0.6c0.3-0.2,0.7-0.4,1-0.6c0-0.3-0.1-0.6-0.2-0.9c0-0.4,0.5-0.5,0.6-0.2c0.1,0.2,0.2,0.5,0.2,0.7
		c0.2-0.1,0.3-0.2,0.5-0.2c0.6-0.2,0.9,0.6,0.3,0.8c-0.1,0-0.1,0.1-0.2,0.1c-0.1,0.1-0.3,0.1-0.4,0.2
		C79.1,290.7,79.3,291.2,79.2,291.7z"/>
	<path class="st0" d="M176.8,243c-1.4,1.5-4.4,1.6-5.9,0.2c-1.6-1.7-1-4.6,1-5.7c1.6-0.9,4.6-0.2,4.9,1.8
		C177.8,240.2,177.7,242,176.8,243z M171.4,241.6c0.5,1.4,2.6,1.6,3.8,1c1.3-0.6,1.7-2.4,0.3-3.2c-0.2-0.1-0.2-0.3-0.2-0.5
		c-0.7-0.5-1.4-0.8-2.3-0.6C171.8,238.8,171,240.3,171.4,241.6z"/>
	<path class="st6" d="M175.2,242.6c-1.2,0.6-3.3,0.4-3.8-1c-0.5-1.3,0.3-2.8,1.6-3.2c0.9-0.3,1.6,0.1,2.3,0.6c0,0.2,0,0.4,0.2,0.5
		C176.9,240.2,176.5,242,175.2,242.6z M174,241.8c0.1,0.5,0.8,0.5,0.9,0c0.1-0.3,0-0.7-0.1-1.1c0.1,0,0.2-0.1,0.3-0.1
		c0.5-0.3,0.2-1.1-0.3-0.8c-0.1,0-0.2,0.1-0.3,0.1c-0.1-0.2-0.3-0.4-0.5-0.6c-0.2-0.1-0.5,0-0.5,0.3c0.1,0.2,0.1,0.4,0.2,0.6
		c-0.4,0.2-0.7,0.4-1.1,0.6c-0.3,0.2-0.1,0.7,0.3,0.6c0.3-0.1,0.7-0.2,1.1-0.3C173.9,241.4,173.9,241.6,174,241.8z"/>
	<path class="st0" d="M174.9,241.8c-0.1,0.5-0.9,0.5-0.9,0c0-0.2,0-0.5-0.1-0.7c-0.3,0.1-0.7,0.2-1.1,0.3c-0.3,0.1-0.5-0.5-0.3-0.6
		c0.3-0.2,0.7-0.4,1.1-0.6c-0.1-0.2-0.2-0.4-0.2-0.6c-0.1-0.3,0.3-0.4,0.5-0.3c0.2,0.1,0.4,0.3,0.5,0.6c0.1,0,0.2-0.1,0.3-0.1
		c0.6-0.2,0.9,0.6,0.3,0.8c-0.1,0-0.2,0.1-0.3,0.1C174.9,241.1,174.9,241.5,174.9,241.8z"/>
	<path class="st0" d="M187.2,228.5c-1.8,1.1-4.2,0.3-5.1-1.5c-0.8-1.8-0.2-4.2,1.7-5c1.5-0.6,3.4-0.1,4.3,1.2c0.1,0,0.3,0,0.4,0.1
		C189.9,225,188.9,227.5,187.2,228.5z M183.3,226.4c0.6,1.5,2.5,1.9,3.7,0.9c0.8-0.7,1.2-1.7,1.1-2.7c0,0,0,0,0,0
		c-0.8-1.1-2.3-1.9-3.7-1.3C183.1,223.7,182.8,225.2,183.3,226.4z"/>
	<path class="st6" d="M186.9,227.2c-1.2,1-3.1,0.6-3.7-0.9c-0.4-1.2-0.1-2.7,1.1-3.2c1.4-0.6,2.8,0.2,3.7,1.3c0,0,0,0,0,0
		C188.1,225.5,187.8,226.6,186.9,227.2z M185.4,226.8c0.2,0.4,0.7,0.3,0.8-0.1c0.1-0.4,0-0.8-0.1-1.2c0.4,0,0.9,0,1.3-0.1
		c0.3-0.1,0.3-0.5,0.1-0.7c-0.5-0.3-1.1-0.3-1.7-0.2c-0.1-0.2-0.2-0.4-0.2-0.6c-0.2-0.5-0.9-0.2-0.7,0.3c0,0.2,0.1,0.3,0.1,0.5
		c-0.3,0.1-0.6,0.3-0.8,0.5c-0.2,0.2-0.1,0.6,0.2,0.6c0.3-0.1,0.5-0.1,0.8-0.2C185.2,226,185.2,226.4,185.4,226.8z"/>
	<path class="st0" d="M186.2,226.7c-0.1,0.4-0.6,0.5-0.8,0.1c-0.2-0.4-0.2-0.8-0.3-1.2c-0.3,0.1-0.5,0.1-0.8,0.2
		c-0.3,0.1-0.4-0.4-0.2-0.6c0.2-0.2,0.5-0.4,0.8-0.5c0-0.2-0.1-0.3-0.1-0.5c-0.1-0.5,0.5-0.7,0.7-0.3c0.1,0.2,0.2,0.4,0.2,0.6
		c0.6-0.1,1.3-0.1,1.7,0.2c0.2,0.1,0.2,0.6-0.1,0.7c-0.4,0.1-0.9,0.1-1.3,0.1C186.2,225.9,186.3,226.3,186.2,226.7z"/>
	<path class="st6" d="M267.2,174.6c-5.5,13-17,22.2-30.2,26.5c-12.9,4.2-27.1,3.5-38.4-4.4c-8.7-6-13.8-14.5-17-24
		c3.8,8.3,9.7,15.8,16.8,21.5c6.8,6.3,16.4,7.5,25.3,7.7c9.7,0.3,19.4-5.5,27.2-10.9c14-9.7,20.9-26,18.7-42.4
		C271.3,157.2,270.7,166.1,267.2,174.6z"/>
	<path class="st7" d="M242.8,193.9c-4.8,2.6-10.1,5.7-15.6,6.2c-9.4,1-21.5-0.8-28.4-7.6c-0.3-0.3-0.6-0.3-0.8-0.1
		c-13-11.8-22.3-29.2-19.1-47c3.3-18.9,19.2-32.8,37.6-36.5c39.6-7.9,68.6,45.3,40.7,74.6C253.2,187.7,248.1,191,242.8,193.9z
		 M223.7,190.1c14.8,0.4,27.7-9.8,32.7-23.4c5.1-14.1,0.9-30.3-10.6-40.1c-11.4-9.7-28.5-11.3-41.5-3.5
		c-12.1,7.2-19.8,22.6-16.6,36.4c0.1,2.4,1,5.2,2.3,7.3C196.6,179.7,208.7,189.8,223.7,190.1z"/>
	<path class="st0" d="M197.1,210.3c-1.7,0.8-3.7-0.1-4.6-1.7c-0.9-1.7-0.2-3.6,1.4-4.4c1.8-1,3.4-0.2,4.5,1.1c0.1,0,0.3,0,0.3,0.2
		C199.7,207.2,198.8,209.5,197.1,210.3z M193.4,207.9c0.5,1.2,1.9,2,3.1,1.5c1.3-0.6,1.7-2,1.5-3.3c-1-0.8-2-1.6-3.3-1
		C193.7,205.5,192.9,206.7,193.4,207.9z"/>
	<path class="st6" d="M196.5,209.4c-1.2,0.5-2.7-0.3-3.1-1.5c-0.4-1.1,0.3-2.3,1.4-2.8c1.3-0.6,2.3,0.2,3.3,1
		C198.2,207.4,197.9,208.8,196.5,209.4z M196,208.7c0.1,0.4,0.8,0.4,0.7-0.1c-0.1-0.3-0.1-0.7-0.2-1c0.3,0,0.5,0.1,0.8,0.1
		c0.4,0,0.5-0.5,0.2-0.7c-0.3-0.2-0.7-0.3-1.1-0.3c-0.1-0.2-0.1-0.4-0.2-0.7c-0.1-0.4-0.8-0.2-0.8,0.2c0,0.2,0.1,0.4,0.1,0.7
		c-0.3,0.1-0.6,0.3-0.8,0.4c-0.3,0.2,0,0.7,0.3,0.6c0.2-0.1,0.5-0.2,0.8-0.2C195.8,208,195.9,208.4,196,208.7z"/>
	<path class="st0" d="M196.7,208.6c0.1,0.5-0.6,0.5-0.7,0.1c-0.1-0.4-0.2-0.7-0.2-1.1c-0.3,0.1-0.5,0.1-0.8,0.2
		c-0.4,0.2-0.6-0.3-0.3-0.6c0.2-0.2,0.5-0.3,0.8-0.4c0-0.2-0.1-0.4-0.1-0.7c-0.1-0.4,0.6-0.6,0.8-0.2c0.1,0.2,0.2,0.4,0.2,0.7
		c0.4,0,0.8,0.1,1.1,0.3c0.3,0.2,0.2,0.7-0.2,0.7c-0.3,0-0.5,0-0.8-0.1C196.6,208,196.7,208.3,196.7,208.6z"/>
	<path class="st8" d="M255.6,163.5c-2.8,10.1-9.9,19-20.1,23c-10.9,4.3-21.9,1.6-30.6-4.7c-7.8-8.4-13.2-18.8-11.9-30.6
		c1.2-12.1,9.2-22.1,21-25.5C237.5,119.1,257.3,141,255.6,163.5z"/>
	<path class="st0" d="M256.4,166.7c-5,13.6-17.9,23.8-32.7,23.4c-15-0.4-27.1-10.5-33.7-23.4c-1.3-2.1-2.1-4.9-2.3-7.3
		c-3.2-13.8,4.6-29.1,16.6-36.4c12.9-7.8,30-6.2,41.5,3.5C257.3,136.4,261.5,152.6,256.4,166.7z M235.4,186.5
		c10.2-4,17.4-12.8,20.1-23c1.7-22.6-18.1-44.5-41.7-37.7c-11.8,3.4-19.7,13.4-21,25.5c-1.2,11.8,4.1,22.2,11.9,30.6
		C213.5,188.1,224.5,190.8,235.4,186.5z M256.8,156c0.2-4.3-0.3-8.8-1.7-13c-6.1-18-26.3-27.7-44.1-21.2
		c-17.9,6.5-26.2,25.7-20.1,43.1c0.1,0.1,0.2,0.2,0.3,0.3c2.3,4.8,5.5,9.1,9.3,12.8c-6.3-8-9.8-18.1-8.5-28.4
		c1.6-12,9.9-21.9,21.6-25.3C234.6,118.3,255,135.5,256.8,156z"/>
	<path class="st6" d="M255.1,143c1.4,4.2,2,8.6,1.7,13c-1.8-20.5-22.2-37.7-43.4-31.6c-11.6,3.3-20,13.3-21.6,25.3
		c-1.3,10.2,2.2,20.4,8.5,28.4c-3.8-3.7-7-8.1-9.3-12.8c-0.1-0.1-0.2-0.2-0.3-0.3c-6.1-17.4,2.3-36.6,20.1-43.1
		C228.8,115.3,249,125.1,255.1,143z"/>
	<path class="st0" d="M300.6,113.1c-1,1.6-3.1,2.2-4.7,1.2c-1.8-1.1-2.2-3.5-0.9-5.1c1.1-1.3,2.9-1.2,4.1-0.2
		C300.8,109.6,301.5,111.5,300.6,113.1z M296.3,113.2c2.5,1.7,5.3-2.1,2.2-3.5c-0.2-0.1-0.3-0.3-0.3-0.5c-0.9-0.2-1.9,0-2.5,0.7
		C295,111,295.3,112.5,296.3,113.2z"/>
	<path class="st0" d="M298.1,112.9c0,0.3-0.4,0.4-0.5,0.1c-0.1-0.4-0.2-0.7-0.3-1.1c-0.2,0.1-0.4,0.1-0.6,0.3
		c-0.4,0.2-0.6-0.4-0.2-0.6c0.2-0.1,0.5-0.2,0.7-0.3c-0.1-0.2-0.1-0.5-0.2-0.7c-0.1-0.4,0.5-0.4,0.6-0.1c0,0.2,0.1,0.4,0.1,0.6
		c0.2,0,0.4-0.1,0.7-0.1c0.4,0,0.5,0.7,0.1,0.7c-0.2,0-0.4,0.1-0.6,0.1C298,112.2,298.1,112.6,298.1,112.9z"/>
	<path class="st6" d="M298.5,109.7c3.1,1.3,0.3,5.2-2.2,3.5c-1-0.7-1.3-2.2-0.5-3.2c0.6-0.7,1.6-1,2.5-0.7
		C298.2,109.4,298.3,109.7,298.5,109.7z M297.7,113.1c0.1,0.3,0.5,0.1,0.5-0.1c0-0.4-0.1-0.7-0.2-1.1c0.2,0,0.4-0.1,0.6-0.1
		c0.5,0,0.4-0.7-0.1-0.7c-0.2,0-0.4,0.1-0.7,0.1c-0.1-0.2-0.1-0.4-0.1-0.6c-0.1-0.4-0.7-0.3-0.6,0.1c0.1,0.2,0.1,0.5,0.2,0.7
		c-0.3,0.1-0.5,0.2-0.7,0.3c-0.4,0.2-0.1,0.8,0.2,0.6c0.2-0.1,0.4-0.2,0.6-0.3C297.5,112.3,297.6,112.7,297.7,113.1z"/>
	<path class="st0" d="M264.7,118.2c-1.5,1.1-3.9,0.8-5-0.7c-1.1-1.5-0.9-3.8,0.6-5c1.3-1.1,3.3-1.2,4.6-0.2c0.2-0.1,0.6-0.1,0.7,0.2
		C266.4,114.3,266.4,116.9,264.7,118.2z M260.6,117c1.1,1.3,3.3,1,4.1-0.5c0.5-1,0.4-2.2,0.2-3.3c-1.2-0.6-2.7-0.9-3.8,0
		C259.9,114.1,259.7,115.9,260.6,117z"/>
	<path class="st6" d="M264.7,116.5c-0.8,1.5-3,1.7-4.1,0.5c-0.9-1.1-0.7-2.9,0.4-3.8c1.2-0.9,2.6-0.6,3.8,0
		C265.1,114.3,265.2,115.5,264.7,116.5z M262.6,116.4c0.1,0.5,0.9,0.5,0.8-0.1c0-0.2-0.1-0.4-0.1-0.6c0.3,0,0.5,0,0.8-0.1
		c0.4-0.1,0.5-0.6,0.1-0.8c-0.3-0.1-0.7-0.2-1-0.1c-0.1-0.4-0.1-0.8-0.2-1.1c-0.1-0.3-0.5-0.3-0.5,0.1c0,0.4,0,0.8,0,1.2
		c-0.2,0.1-0.4,0.1-0.6,0.2c-0.1,0.1-0.2,0.1-0.3,0.2c-0.1,0.1-0.1,0.2-0.2,0.3c-0.2,0.2,0,0.5,0.2,0.4c0.1,0,0.3,0,0.5,0
		c0.1,0,0.3-0.1,0.4-0.1C262.5,116,262.6,116.2,262.6,116.4z"/>
	<path class="st0" d="M263.5,116.3c0,0.6-0.7,0.6-0.8,0.1c0-0.2-0.1-0.4-0.1-0.6c-0.1,0-0.3,0.1-0.4,0.1c-0.1,0-0.3,0-0.5,0
		c-0.3,0.1-0.5-0.2-0.2-0.4c0.1-0.1,0.1-0.2,0.2-0.3c0.1-0.1,0.2-0.1,0.3-0.2c0.2-0.1,0.4-0.1,0.6-0.2c0-0.4,0-0.8,0-1.2
		c0-0.3,0.4-0.4,0.5-0.1c0.1,0.4,0.1,0.8,0.2,1.1c0.4,0,0.7,0,1,0.1c0.4,0.2,0.3,0.7-0.1,0.8c-0.3,0.1-0.5,0-0.8,0.1
		C263.4,115.9,263.4,116.1,263.5,116.3z"/>
	<path class="st0" d="M280.9,105.8c-1.4,1.3-3.7,0.4-4.6-1c-1-1.5-0.8-3.8,0.9-4.8c1.3-0.7,3-0.3,3.7,1c0,0,0,0,0.1,0.1
		C281.8,102.5,282.2,104.6,280.9,105.8z M277.2,104.3c0.7,1,2.2,1.5,3.2,0.6c1-0.8,0.5-2.4,0-3.3c-0.7-0.9-2.1-1.2-3-0.4
		C276.6,101.9,276.6,103.4,277.2,104.3z"/>
	<path class="st6" d="M280.5,104.9c-1,0.9-2.5,0.4-3.2-0.6c-0.6-0.9-0.6-2.3,0.2-3.1c0.9-0.8,2.3-0.5,3,0.4
		C281,102.5,281.4,104.1,280.5,104.9z M279.1,104.4c0.1,0.3,0.6,0.1,0.5-0.2c-0.1-0.2-0.2-0.5-0.3-0.7c0,0,0.1,0,0.1,0
		c0.4-0.1,0.9-0.3,1.1-0.6c0.1-0.2,0-0.5-0.2-0.5c-0.4-0.1-0.8,0.2-1.2,0.3c0,0-0.1,0-0.1,0c-0.1-0.3-0.3-0.6-0.4-0.9
		c-0.1-0.2-0.4-0.1-0.4,0.1c0.1,0.3,0.2,0.7,0.4,1c-0.2,0.1-0.5,0.3-0.7,0.4c-0.2,0.2-0.1,0.5,0.2,0.5c0.3,0,0.5-0.1,0.8-0.2
		C278.8,103.8,279,104.1,279.1,104.4z"/>
	<path class="st0" d="M279.5,104.2c0.1,0.3-0.3,0.5-0.5,0.2c-0.1-0.2-0.2-0.5-0.3-0.8c-0.3,0.1-0.5,0.1-0.8,0.2
		c-0.3,0-0.4-0.3-0.2-0.5c0.2-0.2,0.4-0.3,0.7-0.4c-0.1-0.3-0.3-0.7-0.4-1c-0.1-0.2,0.2-0.4,0.4-0.1c0.2,0.3,0.3,0.6,0.4,0.9
		c0,0,0.1,0,0.1,0c0.4-0.2,0.8-0.4,1.2-0.3c0.2,0,0.3,0.3,0.2,0.5c-0.3,0.3-0.7,0.5-1.1,0.6c0,0-0.1,0-0.1,0
		C279.3,103.7,279.4,103.9,279.5,104.2z"/>
	<path class="st1" d="M311.8,86.2c0.4,11,0.1,22.1-1,33.1c-34.8,0.3-59.8-27.1-74.6-55.8c6.5-2.2,13.1-4.2,19.7-6
		c13.1-3.6,26.4-6.9,40-5.4c0.1,0.1,0.2,0.2,0.4,0.2C311.8,54.9,311.5,74.2,311.8,86.2z M295.9,114.3c1.7,1,3.7,0.5,4.7-1.2
		c0.9-1.6,0.2-3.5-1.5-4.1c-1.2-1-3-1.1-4.1,0.2C293.6,110.8,294.1,113.2,295.9,114.3z M276.3,104.8c0.9,1.4,3.2,2.3,4.6,1
		c1.3-1.2,0.9-3.3,0-4.7c0,0,0,0-0.1-0.1c-0.6-1.3-2.4-1.8-3.7-1C275.5,100.9,275.4,103.3,276.3,104.8z M257.1,89.2
		c0.9,1.5,2.7,2.3,4.3,1.5c1.7-0.9,2.5-3.3,1.4-4.9c-0.1-0.1-0.3-0.2-0.4-0.2c0,0,0-0.1,0-0.1c-0.9-1.4-3-1.4-4.3-0.6
		C256.6,85.9,256.3,87.8,257.1,89.2z M242.9,70.1c0.9,1.6,3.2,2.3,4.8,1.4c1.6-0.8,2.5-3.3,1.4-4.8c-0.1-0.1-0.3-0.2-0.4-0.1
		c-0.8-1.3-2.5-2-4-1.3C242.9,66,242,68.4,242.9,70.1z"/>
	<path class="st0" d="M261.4,90.7c-1.6,0.8-3.5,0-4.3-1.5c-0.9-1.5-0.6-3.3,0.9-4.3c1.3-0.8,3.4-0.8,4.3,0.6c0,0,0,0.1,0,0.1
		c0.1,0,0.3,0,0.4,0.2C264,87.4,263.1,89.8,261.4,90.7z M258,88.5c0.5,1,1.7,1.7,2.8,1.2c1.3-0.6,1.6-2.1,1.2-3.4c0-0.1,0-0.2,0-0.3
		c0,0,0,0,0,0c-0.9-0.6-2-0.8-3-0.3C257.8,86.3,257.5,87.4,258,88.5z"/>
	<path class="st6" d="M260.8,89.7c-1.1,0.5-2.3-0.2-2.8-1.2c-0.5-1.1-0.2-2.2,0.9-2.8c1-0.5,2.1-0.4,3,0.3c0,0,0,0,0,0
		c0,0.1,0,0.2,0,0.3C262.4,87.6,262.1,89.1,260.8,89.7z M259.9,88.8c0.1,0.2,0.4,0.2,0.4,0c0.1-0.4,0.1-0.8,0-1.2
		c0.3-0.1,0.7-0.2,0.9-0.3c0.3-0.2,0.2-0.5-0.1-0.5c-0.3,0-0.6,0.1-0.9,0.1c0-0.2-0.1-0.5-0.1-0.7c-0.1-0.4-0.6-0.3-0.6,0.1
		c0,0.3,0,0.5,0.1,0.8c-0.3,0.1-0.6,0.2-0.8,0.3c-0.3,0.1-0.2,0.6,0.1,0.5c0.2,0,0.5-0.1,0.8-0.1C259.7,88.1,259.8,88.5,259.9,88.8z
		"/>
	<path class="st0" d="M260.4,88.7c0,0.2-0.3,0.2-0.4,0c-0.2-0.3-0.3-0.7-0.3-1c-0.3,0.1-0.5,0.1-0.8,0.1c-0.3,0.1-0.4-0.4-0.1-0.5
		c0.3-0.1,0.5-0.2,0.8-0.3c0-0.3,0-0.6-0.1-0.8c0-0.4,0.5-0.5,0.6-0.1c0,0.2,0.1,0.5,0.1,0.7c0.3-0.1,0.6-0.1,0.9-0.1
		c0.3,0,0.4,0.4,0.1,0.5c-0.3,0.2-0.6,0.3-0.9,0.3C260.4,88,260.4,88.4,260.4,88.7z"/>
	<path class="st0" d="M247.7,71.5c-1.6,0.9-3.9,0.2-4.8-1.4c-0.9-1.7-0.1-4.1,1.7-4.8c1.5-0.6,3.2,0,4,1.3c0.1,0,0.3,0,0.4,0.1
		C250.3,68.2,249.3,70.7,247.7,71.5z M244,69.8c0.8,1.3,2.9,1.5,3.9,0.4c0.7-0.8,0.7-1.6,0.6-2.4c0,0-0.1,0-0.1-0.1
		c-0.6-1.3-2.3-2-3.6-1.3C243.7,67.1,243.3,68.7,244,69.8z"/>
	<path class="st6" d="M247.9,70.2c-1,1.2-3.1,1-3.9-0.4c-0.7-1.1-0.3-2.8,0.8-3.4c1.3-0.7,3,0,3.6,1.3c0,0,0.1,0.1,0.1,0.1
		C248.6,68.6,248.6,69.4,247.9,70.2z M246.2,70.4c0.1,0.2,0.4,0.2,0.5,0c0.2-0.4,0.1-1,0.1-1.5c0-0.1,0-0.2,0-0.3
		c0.3,0,0.6,0.1,1,0.1c0.4,0,0.6-0.5,0.2-0.7c-0.3-0.2-0.8-0.2-1.2-0.2c0-0.2,0-0.4,0-0.7c0-0.4-0.7-0.4-0.7,0c0,0.2,0,0.5,0,0.8
		c-0.4,0.1-0.8,0.2-1.1,0.4c-0.2,0.1-0.2,0.5,0.1,0.5c0.3-0.1,0.7-0.1,1-0.1c0,0.1,0,0.1,0,0.2C246,69.3,246,69.9,246.2,70.4z"/>
	<path class="st0" d="M246.7,70.4c-0.1,0.2-0.4,0.2-0.5,0c-0.2-0.5-0.2-1.1-0.2-1.6c0-0.1,0-0.1,0-0.2c-0.3,0-0.7,0.1-1,0.1
		c-0.3,0.1-0.4-0.4-0.1-0.5c0.3-0.2,0.7-0.3,1.1-0.4c0-0.3,0-0.5,0-0.8c0-0.4,0.7-0.4,0.7,0c0,0.2,0,0.4,0,0.7
		c0.4,0,0.8,0.1,1.2,0.2c0.4,0.2,0.2,0.7-0.2,0.7c-0.3,0-0.7-0.1-1-0.1c0,0.1,0,0.2,0,0.3C246.9,69.4,246.9,70,246.7,70.4z"/>
	<path class="st9" d="M200.6,176.8c-5.1-5.5-8.4-12.3-9.1-19.9c-0.5-5.6,1.1-10.5,2.6-15.7c6.9-11.1,18.9-19.1,32.5-17.4
		c14.9,1.8,26.3,15.2,28,29.7c0.2,1.5,2.3,1.2,2.3-0.3c-0.2-16.6-13.9-31.4-30.4-33.2c-1.2-0.1-2.4-0.2-3.6-0.1
		c-0.2-0.2-0.5-0.3-0.8-0.2c-9.1,0.3-25,4.2-27.4,14.7c0,0.2,0,0.3,0.1,0.4c-0.8,1.2-1.5,2.4-2.1,3.6c-9.4,11.6-3.3,30.7,6.3,40
		C199.9,179.5,201.6,177.9,200.6,176.8z"/>
	<path class="st9" d="M108.3,358.4c13.3-12.8,27.5-24.4,41.6-36.2c7-5.8,13.9-11.7,20.8-17.7c6-5.2,14.1-10.7,18-17.7
		c0.4-0.8-0.6-1.7-1.3-1.3c-3.8,1.6-6.9,4.7-10.1,7.5c-3.5,3.1-7.1,6.2-10.7,9.3c-6.6,5.8-13.3,11.5-20.1,17.1
		c-1.7,1.4-3.4,2.8-5.1,4.3c0.2-0.6,0.1-1.3-0.6-1.8c-5.9-4.1-11.7-8.1-17.5-12.3c7.2-8.8,14.6-17.4,22.3-25.7
		c3.9-4.2,7.8-8.4,11.9-12.5c4-4.1,8.6-7.9,12.2-12.4c1.2,1.1,2.5,2.2,3.7,3.2c6.2,5.4,12.6,10.5,19.4,15.2c1.6,1.1,3.5-1.3,1.9-2.5
		c-6.4-4.7-12.7-9.5-18.7-14.6c-5.7-4.9-11-10.4-16.8-15.2c6.2-8.4,12.4-16.9,18.6-25.3c5.4-7.4,12.1-14.8,16.5-22.9
		c9.7,7.8,23.3,10.9,35.8,8.6c20.7-3.8,42.3-18.5,41.2-41.7c0.9-5.3,0.8-10.8-0.7-15.6c-0.2-0.5-1-0.4-1.1,0.1
		c-0.3,5.1-0.3,10.1-1.4,15.2c-1.3,6-3.9,11-7,16.3c-0.3,0.5-0.3,1-0.2,1.4c-11.1,10.8-24.9,21-41.2,20c-16.9-1.1-29.7-13-36.9-27.7
		c-0.3-0.7-1.3-0.3-1.1,0.4c0.6,2.2,1.4,4.3,2.3,6.3c-0.5-0.8-0.9-1.7-1.3-2.6c-0.2-0.5-1-0.3-0.9,0.2c1.8,7.1,5.7,13,10.7,17.6
		c-6.5,6.6-11.6,15.2-17.1,22.6c-6.3,8.4-12.5,16.9-18.8,25.3c-0.4,0.6-0.4,1.2-0.1,1.6c-0.1,0.3-0.1,0.7,0.2,1
		c3.3,4.2,7.3,8,11.3,11.6c-4.4,3.2-8.2,7.3-12,11.1c-4.2,4.1-8.3,8.3-12.3,12.6c-8,8.5-15.7,17.3-23.2,26.3
		c-4.3-3.1-8.7-6.2-13-9.4c-5.3-3.9-10.6-7.9-15.9-11.9c-5-3.9-9.9-8.3-15.5-11.4c-1-0.5-2,0.9-1.3,1.7c4.3,4.7,9.8,8.4,14.8,12.2
		c5.2,4,10.5,8,15.8,12c4.4,3.3,8.8,6.5,13.2,9.7c0.2,0.8,1,1.5,1.9,1.4c5.9,4.3,11.9,8.5,17.9,12.6c0.4,0.3,0.8,0.3,1.2,0.3
		c-11.7,9.7-23.3,19.5-34.3,30.1C103.6,356.9,106.3,360.3,108.3,358.4z M264.3,180.9c1.5-2.1,2.9-4.4,4-7c-0.9,2.8-2.1,5.4-3.7,7.8
		C264.5,181.5,264.4,181.2,264.3,180.9z"/>
	<path class="st9" d="M310.2,120.1c-16.7,1.1-33.1-7.3-45.7-17.6c-13.1-10.6-20.9-23.8-28.2-38.7c-0.9-1.7-3.2-0.7-2.7,1.1
		c3.8,14.7,14.3,28.3,25.9,38.4c-3.6,3.3-7,7.7-9.1,12c-0.6,1.2,1.2,2.1,1.9,1.1c1.6-2,2.9-4.2,4.4-6.3c1.4-1.9,2.8-3.8,4.1-5.8
		c0.9,0.7,1.8,1.5,2.6,2.1c13,10.2,30.3,18.6,47.2,17.1C312.9,123.4,312.4,120,310.2,120.1z"/>
	<path class="st9" d="M250.4,68.5c-0.2-0.7-1.2-0.8-1.3,0c-0.2,1.5-1.5,3.2-3.2,2.9c-0.8-0.2-1.5-0.8-1.8-1.5
		c-0.4-0.8-0.2-1.5-0.3-2.3c-0.1-0.5-0.7-0.6-1-0.3c-0.9,0.9-0.5,2.6,0,3.6c0.6,1.1,1.6,2,2.9,2.2C248.2,73.6,251,71.2,250.4,68.5z"
		/>
	<path class="st9" d="M263.7,87.3c-0.2-0.3-0.6-0.1-0.7,0.2c-0.3,1.5-1.4,3.6-3.3,3.1c-0.7-0.2-1.3-0.8-1.6-1.5
		c-0.3-0.6-0.2-1.3-0.6-1.9c-0.1-0.1-0.3-0.2-0.4-0.1c-1.1,0.6-0.7,2.2-0.2,3.1c0.6,1.1,1.7,1.9,2.9,2.1
		C262.3,92.5,265.2,89.7,263.7,87.3z"/>
	<path class="st9" d="M281.1,101.1c-0.4-0.5-1.1,0-0.9,0.5c0.3,0.7,0.6,1.4,0.9,2.1c0.3,0.8,0.6,1.7-0.4,2.1c-1.3,0.6-2.2-0.3-3-1.2
		c-0.4-0.5-1.4-0.2-1.3,0.5c0.5,2,3.2,2.8,4.9,2C283.9,105.8,282.4,102.8,281.1,101.1z"/>
	<path class="st9" d="M300.9,111.7c-0.1-0.2-0.4-0.2-0.5,0c-0.6,1-1,2.2-2.3,2.4c-1.2,0.2-2.5-1-2.9-2.1c-0.1-0.4-0.7-0.3-0.8,0.1
		c-0.4,2.2,1.5,4,3.7,3.7C299.8,115.7,301.9,113.5,300.9,111.7z"/>
	<path class="st9" d="M266.3,115c-0.3-0.8-1.5-0.5-1.4,0.4c0.1,1.5-1,3.5-2.8,3.2c-1.6-0.3-2.3-2.5-1.8-3.9c0.2-0.6-0.5-1-0.9-0.5
		c-1.8,2.2-0.3,5.7,2.4,6.2C264.7,120.9,267.6,117.8,266.3,115z"/>
	<path class="st9" d="M199.6,207.3c-0.3-0.4-0.8-0.1-0.9,0.2c-0.4,1.4-1.1,3.2-2.9,3.2c-1.6,0-2.8-1.8-2.7-3.2
		c0-0.5-0.7-0.8-0.9-0.3c-1,2.5,1,5.2,3.6,5.3C198.3,212.6,201,209.8,199.6,207.3z"/>
	<path class="st9" d="M188.2,229.6c1-0.9,2-2.6,1.3-4c-0.3-0.6-1.2-0.7-1.5,0c-0.3,0.8-0.4,1.6-1,2.2c-0.6,0.6-1.4,1-2.3,0.9
		c-0.9-0.1-1.6-0.8-1.9-1.6c-0.4-1-0.2-1.8-0.1-2.8c0-0.4-0.4-0.6-0.7-0.4c-1.2,0.8-1.2,2.6-0.8,3.8c0.5,1.4,1.6,2.6,3,3
		C185.6,231,187.1,230.5,188.2,229.6z"/>
	<path class="st9" d="M177.4,241.4c-0.2-0.6-1-0.4-1.2,0c-0.6,1.2-1.7,2.8-3.4,2.3c-0.7-0.2-1.2-0.8-1.5-1.5
		c-0.3-0.8-0.2-1.5-0.3-2.2c-0.1-0.4-0.4-0.5-0.7-0.3c-1.1,0.6-0.9,2.3-0.5,3.3c0.5,1.2,1.5,2.2,2.7,2.5
		C174.9,246.1,178.1,244.1,177.4,241.4z"/>
	<path class="st9" d="M190.5,260.4c0.9-0.7,1.7-1.9,1.1-3.1c-0.3-0.7-1.5-0.5-1.4,0.4c0.3,2.8-7.1,2.1-5-2.1c0.3-0.5-0.5-1-0.9-0.7
		c-1.1,0.8-1.3,2.2-1,3.4c0.4,1.5,1.6,2.5,3,2.9C187.8,261.5,189.3,261.3,190.5,260.4z"/>
	<path class="st9" d="M154.9,267.6c0.3-1.3,0-3-1.3-3.7c-0.6-0.3-1.2,0.4-1,0.9c0.3,0.8,0.7,1.5,0.2,2.3c-0.4,0.8-1.2,1.1-2.1,1.1
		c-0.9-0.1-1.7-0.6-2.2-1.3c-0.5-0.7-0.5-1.6-1-2.3c-0.2-0.3-0.5-0.2-0.7,0c-1,1-0.3,3,0.5,4c1,1.3,2.7,2,4.3,1.7
		C153.2,270.2,154.5,269.2,154.9,267.6z"/>
	<path class="st9" d="M139.3,284.4c0.7-0.8,1.3-2.2,0.8-3.3c-0.3-0.5-1.1-0.6-1.3,0c-0.5,1.2-0.9,2.6-2.5,2.6
		c-1.6,0-2.1-1.7-2.2-2.9c-0.1-0.7-1-0.8-1.3-0.2c-1.2,2.3,1.2,4.9,3.4,5.1C137.4,285.8,138.5,285.3,139.3,284.4z"/>
	<path class="st9" d="M126.7,296.3c0-0.7-1-0.9-1.4-0.4c-0.8,1-1.4,3.8-3.2,3.3c-1.3-0.4-1.9-2.2-1.9-3.4c0-0.7-1.2-0.7-1.3,0
		c-0.2,2.1,0.6,4.8,2.9,5.4C124.5,301.9,126.8,298.8,126.7,296.3z"/>
	<path class="st9" d="M82.3,294.2c0.7-1,1-2.6,0.1-3.5c-0.5-0.5-1.2-0.3-1.4,0.4c-0.3,1.3-0.9,2.6-2.5,2.2c-1.6-0.4-2.4-2.1-2.8-3.6
		c-0.2-0.7-1.1-0.8-1.2,0c-0.4,2.9,1.2,5.9,4.3,6.1C80.1,295.8,81.5,295.3,82.3,294.2z"/>
	<path class="st9" d="M97.6,305.2c0-0.5-0.5-0.9-0.9-0.6c-1,0.8-2.3,1.6-3.6,0.9c-1.2-0.7-1.4-2.3-0.8-3.4c0.3-0.7-0.6-1.1-1.1-0.6
		c-1.6,1.7-1,4.6,0.9,5.9C93.8,308.5,97.3,307.8,97.6,305.2z"/>
	<path class="st9" d="M110.9,319.4c1.1-0.6,1.8-1.7,1.5-2.9c-0.1-0.6-1.1-0.9-1.3-0.2c-1,3.3-5.9-0.1-4.3-1.9
		c0.5-0.5-0.2-1.1-0.7-0.9c-1.1,0.3-1.5,1.5-1.3,2.6c0.2,1.3,1.1,2.4,2.2,3.1C108.2,319.8,109.6,320,110.9,319.4z"/>
	<path class="st9" d="M127.3,327c-0.1-0.4-0.9-0.5-1,0c-0.3,1.1-1.2,2.3-2.6,2.1c-1.3-0.2-1.9-1.8-1.5-2.9c0.2-0.6-0.6-1.2-1-0.6
		c-1.4,1.9-0.3,5,2,5.5C125.4,331.6,128.1,329.4,127.3,327z"/>
	<path class="st9" d="M54,312.4c8.2-14.9,16.3-29.7,24.5-44.6c4-7.3,8-14.6,11.9-21.9c3.9-7.2,8.3-14.4,11.2-22
		c0.5-1.3-1.3-2.4-2.1-1.2c-4.8,6.5-8.5,13.8-12.4,20.8c-4.1,7.2-8.1,14.5-12.1,21.8c-8.3,15.1-16.7,30.3-25,45.4
		C48.7,313.1,52.7,314.8,54,312.4z"/>
	<path class="st9" d="M95.4,347.9c-10-8.8-20.1-18.9-31.6-25.8c-1.3-0.8-3.3,0.7-2,2c9.4,9.8,20.9,18,31.1,27
		C94.9,352.8,97.4,349.6,95.4,347.9z"/>
	<path class="st9" d="M84.9,369c-12.3-11.5-26-21.1-38-33c-1.1-1.1-3.3,0.5-2.5,1.9c3.9,6.8,10.5,11.6,16.5,16.6
		c7.1,5.9,14.1,12.3,21.5,17.8C84.5,373.8,86.8,370.8,84.9,369z"/>
	<path class="st10" d="M308.6,114c1.5-12,1.8-24.2,0.5-36.2c-0.6-5.6-0.9-22.7-10.3-20.8c-0.4,0.1-0.6,0.6-0.2,0.9
		c4.4,2.9,5,7.8,5.7,12.6c0.6,4.6,1,9.3,1.3,13.9c0.5,9.7,0.1,19.4-1.2,29.1C304.1,116.1,308.3,116.7,308.6,114z"/>
	<path class="st10" d="M250.8,156.6c0.1-10.7-7.2-25.1-18.9-26.5c-0.9-0.1-1.4,1-0.7,1.6c7.7,6.7,15,12.8,15.3,24
		c0.3,10.7-6.9,20.4-16.7,24.3c-2.6,1-1,5.1,1.6,4C242.6,179.6,250.7,168.8,250.8,156.6z"/>
	<path class="st10" d="M121.6,391.8c14.7-10.2,29.1-20.8,43.6-31.3c8.2-5.9,23.7-17.7,18.4-29.8c-0.3-0.7-1.4-0.8-1.7,0
		c-1.9,5.9-3.2,11.3-7.4,16.2c-4.9,5.6-11.4,9.7-17.4,14c-12.7,9.2-25.6,18.2-38.2,27.5C116.7,390,119.3,393.4,121.6,391.8z"/>
	<path class="st10" d="M89.5,364.2c1-2,1.4-4.5,1.7-6.7c0.2-1.7,0.7-4.2-0.7-5.4c-0.2-0.2-0.6-0.3-0.9-0.1c-1.6,0.9-1.7,3.2-2.1,4.8
		c-0.6,2.1-1.3,4.2-1.7,6.3C85.2,365.5,88.5,366.2,89.5,364.2z"/>
	<path class="st10" d="M73.9,389.4c2.1-2,3.6-4.3,4.7-7c0.9-2.2,2.6-6,1.5-8.2c-0.3-0.5-0.9-0.9-1.5-0.6c-2.1,1-2.6,3.8-3.4,5.9
		c-0.9,2.4-2,4.8-3.9,6.5C69.2,387.8,71.9,391.3,73.9,389.4z"/>
</g>
</svg>
