<?xml version="1.0" encoding="UTF-8"?>
<svg id="Layer_1" data-name="Layer 1" xmlns="http://www.w3.org/2000/svg" viewBox="0 0 1079.41 1050.29">
  <defs>
    <style>
      .cls-1 {
        fill: #000;
      }

      .cls-1, .cls-2 {
        stroke-width: 0px;
      }

      .cls-3 {
        fill: none;
      }

      .cls-3, .cls-4 {
        stroke: #000;
        stroke-miterlimit: 10;
        stroke-width: 8px;
      }

      .cls-4 {
        fill: #ffb804;
      }

      .cls-2 {
        fill: #fff;
      }
    </style>
  </defs>
  <path class="cls-4" d="M714.76,405.67c142.31,16.41,207.17,13.72,239.18,6.39,4.61-1.06,45.87-10.76,78.51,7.3,1.82,1.01,12.95,7.27,11.87,10.95-2.12,7.19-48.87-1.73-49.77,2.58-.71,3.39,27.72,11.34,26.95,14.77-.71,3.17-25.65-.79-26.47,2.74-.84,3.62,24.61,10.99,23.74,15.52-.83,4.34-25.17,2.31-25.56,5.48-.37,3,21.26,6.54,21,10.04-.22,2.96-15.87,3.29-37.43,6.39-17.14,2.46-22.82,4.48-37.43,7.3-9.71,1.88-28,5-71.21,7.3-67.56,3.6-152.48,2.87-166.15,2.74"/>
  <path class="cls-4" d="M118.97,597.43c7.4-26.48,5.9-63.71,2.59-137.09-5.81-128.65-14.86-134.74-5.17-173.3,17.54-69.82,63.16-113.32,77.6-126.74,54.15-50.34,112.86-63.97,139.68-69.84,40.92-8.95,110.55-24.19,173.3,7.76,16.5,8.4,52.35,30.16,98.29,33.63,12.53.94,23.25.33,33.63-5.17,8.33-4.42,14.99-11.23,36.21-49.15,16.7-29.83,18.71-36.57,28.45-41.39,13.36-6.6,29.94-3.98,41.39,2.59,18.75,10.76,26.5,33.75,25.87,51.73-.79,22.17-17.77,43.23-51.73,85.36-12.62,15.66-17.42,20.21-20.69,31.04-4.53,14.98-1.72,27.38,7.76,62.08,10.18,37.27,13.98,48.71,18.11,64.66,0,0,7.2,27.86,12.93,69.84,10.19,74.61-2.87,173.55-7.76,212.1-6.63,52.32-15.55,130.32-23.28,230.21,16.04,9.48,32.42,18.97,49.15,28.45,15.67,8.88,31.19,17.5,46.56,25.87.61-6.09,3.23-24.22,18.11-38.8,4.77-4.68,17.77-17.41,33.63-15.52,20.38,2.43,30.94,27.29,33.63,33.63,15.94,37.53-5.14,75.88-10.35,85.36-7.26,13.21-20.99,38.2-43.97,41.39-15.41,2.14-27.31-6.59-41.39-15.52,0,0-29.51-17.91-90.53-43.97-8.48-3.62-46.47-19.56-96.66-29.1-3.5-.67-23.91-4.45-51.12-4.87-29.03-.45-43.7-.5-51.38,8.11-11.24,12.58,2.47,27.56-5.17,59.49-1.93,8.05-8.31,34.7-28.45,46.56-16.34,9.62-34.82,5.44-65.92-3.39-72.91-20.69-102.2-32.82-102.2-32.82-126.81-52.5-127.7-41.68-155.2-64.66-13.47-11.26-51.67-44.04-69.84-100.88-15.79-49.38-8.36-91.64-5.17-108.64,10.69-56.97,33.68-63.67,49.15-118.98Z"/>
  <path class="cls-3" d="M149.06,310.12c-.71,2.56-7.39,28.46,9.74,48.69,7.81,9.23,23.55,20.8,38.95,17.04,18.64-4.55,33.58-30.79,26.78-62.08"/>
  <path class="cls-3" d="M298.77,598.6c20.83,40.63,43.35,70.86,62.08,92.51,27.66,31.99,46,44.08,82.77,81.55,0,0,51.22,43.32,71.82,82.77.32.6,1.42,2.93,3.72,7.46,2.83,5.56,3.26,6.19,2.98,6.54-1.89,2.31-28.1-16.1-29.21-14.61-.68.91,9.29,7.36,13.22,19.82.79,2.51,2.48,7.84.47,9.4-4.25,3.29-21.22-13.47-22.82-11.87-1.77,1.77,18.42,22.73,15.98,25.56-2.6,3.01-30.14-15.3-30.58-14.61-.28.45,11.97,6.85,16.89,19.63,1,2.6,1.88,4.89.91,5.93-3.66,3.94-29.8-14.12-44.73-25.56-31.47-24.11-44.72-42.99-65.73-65.27-33.5-35.53-46.37-36.9-74.86-63.45-25.25-23.54-57.4-61.86-82.62-125.07"/>
  <g>
    <path class="cls-4" d="M246.43,871.26c55.59,19.88,111.17,39.76,166.76,59.64,1.15-6.37,4.71-20.74,17.04-32.86,5.67-5.58,17.24-16.96,34.08-15.82,17.55,1.18,27.47,15.06,28,15.82,9.51,13.77,5.79,28.62,5.22,30.75"/>
    <ellipse class="cls-1" cx="392.22" cy="282.75" rx="107.27" ry="103.43" transform="translate(-21.04 31.75) rotate(-4.51)"/>
    <ellipse class="cls-1" cx="657.91" cy="271.34" rx="77.7" ry="87.25" transform="translate(-19.32 52.63) rotate(-4.51)"/>
    <ellipse class="cls-2" cx="673.37" cy="266" rx="49.98" ry="58.03" transform="translate(-18.85 53.83) rotate(-4.51)"/>
    <ellipse class="cls-2" cx="411.23" cy="281.25" rx="70.34" ry="72.26" transform="translate(-20.86 33.24) rotate(-4.51)"/>
  </g>
  <g>
    <path class="cls-4" d="M429.47,402.48c-.67-31.56,15.47-54.93,22.82-65.27,14.64-20.61,31.57-31.57,38.34-35.6,18.92-11.27,35.8-14.44,48.84-16.89,10.95-2.06,26.08-4.94,45.19-2.74,13,1.5,41.15,4.74,64.82,26.93,21.63,20.28,26.73,44.41,31.04,64.82,3.8,17.99,9.91,46.94-5.93,61.62-5.76,5.34-12.79,7-14.15,7.3-15.9,3.53-29.2-7.15-31.04-8.67-13.93-11.53-17.16-30.87-18.26-37.43-.93-5.54-1.38-12.34-5.02-21.91-2.7-7.08-4.04-10.62-7.3-13.24-6.85-5.49-14.62-1.16-32.86.46-24.3,2.15-31.4-3.7-37.89,2.74-3.82,3.8-2.03,6.5-6.39,25.56-1.53,6.67-3.54,15.47-7.3,25.11-5.22,13.37-8.94,22.92-18.71,30.13-11.05,8.15-22.95,8.23-25.11,8.22-1.95-.01-16.5-.34-27.84-10.95-12.64-11.84-13-28.7-13.24-40.17Z"/>
    <ellipse class="cls-1" cx="561.82" cy="343.35" rx="41.08" ry="23.77" transform="translate(-21.07 37.14) rotate(-3.72)"/>
  </g>
</svg>